<?xml version="1.0" standalone="no"?>
<!DOCTYPE svg PUBLIC "-//W3C//DTD SVG 1.1//EN" "http://www.w3.org/Graphics/SVG/1.1/DTD/svg11.dtd" >
<svg xmlns="http://www.w3.org/2000/svg" xmlns:xlink="http://www.w3.org/1999/xlink" version="1.1">
<metadata>
Created by FontForge 20170731 at Fri Oct 31 17:37:40 2008
 By Aleksey,,,
Copyright 2008 Linotype GmbH. All rights reserved. 
</metadata>
<defs>
<font id="HelveticaNeueOTS" horiz-adv-x="1139" >
  <font-face 
    font-family="Helvetica Neue OTS"
    font-weight="400"
    font-stretch="normal"
    units-per-em="2048"
    panose-1="2 11 6 4 2 0 2 2 2 3"
    ascent="1638"
    descent="-410"
    x-height="1059"
    cap-height="1462"
    bbox="-721 -381 2561 1667"
    underline-thickness="102"
    underline-position="-307"
    unicode-range="U+0002-FB02"
  />
<missing-glyph horiz-adv-x="1049" 
d="M949 1667v-2048h-849v2048h849zM847 -279v1844h-645v-1844h645z" />
    <glyph glyph-name=".notdef" horiz-adv-x="1049" 
d="M949 1667v-2048h-849v2048h849zM847 -279v1844h-645v-1844h645z" />
    <glyph glyph-name=".null" horiz-adv-x="0" 
 />
    <glyph glyph-name=".null" horiz-adv-x="0" 
 />
    <glyph glyph-name="nonmarkingreturn" horiz-adv-x="569" 
 />
    <glyph glyph-name="space" unicode=" " horiz-adv-x="569" 
 />
    <glyph glyph-name="exclam" unicode="!" horiz-adv-x="530" 
d="M362 1012l-51 -637h-92l-51 637v450h194v-450zM152 227h227v-227h-227v227z" />
    <glyph glyph-name="quotedbl" unicode="&#x22;" horiz-adv-x="872" 
d="M362 934h-139v528h139v-528zM649 934h-139v528h139v-528z" />
    <glyph glyph-name="numbersign" unicode="#" 
d="M268 422h-198v139h219l43 308h-209v139h227l60 419h141l-59 -419h253l60 419h141l-59 -419h182v-139h-201l-43 -308h187v-139h-207l-60 -422h-141l60 422h-254l-60 -422h-141zM473 869l-43 -308h254l43 308h-254z" />
    <glyph glyph-name="dollar" unicode="$" 
d="M514 -35q-213 24 -329 144t-134 337h174q4 -131 76 -210.5t213 -106.5v543q-220 52 -320 135t-100 260q0 171 113.5 293t306.5 137v135h113v-137q159 -18 260 -119.5t143 -285.5h-174q-21 101 -78 160t-151 77v-504q248 -60 348 -160.5t100 -252.5q0 -187 -121.5 -307
t-326.5 -138v-168h-113v168zM514 1333q-118 -16 -176.5 -78t-58.5 -170q0 -94 55.5 -145.5t179.5 -85.5v479zM627 129q132 12 198 77.5t66 184.5q0 89 -55.5 149t-208.5 103v-514z" />
    <glyph glyph-name="percent" unicode="%" horiz-adv-x="2048" 
d="M520 631q-165 0 -248.5 106.5t-83.5 298.5q0 201 85 308.5t247 107.5q164 0 246 -102.5t82 -307.5q0 -193 -88 -302t-240 -109zM514 743q90 0 135 74.5t45 224.5q0 148 -43.5 223t-130.5 75q-89 0 -133.5 -75.5t-44.5 -224.5t43 -223t129 -74zM388 -45l1096 1517h176
l-1096 -1517h-176zM1532 -25q-165 0 -248.5 106.5t-83.5 298.5q0 201 85 308.5t247 107.5q164 0 246 -102.5t82 -307.5q0 -193 -88 -302t-240 -109zM1526 87q90 0 135 74.5t45 224.5q0 148 -43.5 223t-130.5 75q-89 0 -133.5 -75.5t-44.5 -224.5t43 -223t129 -74z" />
    <glyph glyph-name="ampersand" unicode="&#x26;" horiz-adv-x="1290" 
d="M938 182q-66 -102 -178.5 -154.5t-235.5 -52.5q-209 0 -332.5 110.5t-123.5 289.5q0 135 76.5 239t265.5 203q-85 109 -123.5 190.5t-38.5 153.5q0 128 90 214.5t240 86.5q154 0 254 -82t100 -217q0 -111 -69 -205.5t-206 -173.5l265 -321q41 115 47 227h166
q-16 -199 -99 -360l285 -330h-227zM563 899q97 61 146 124.5t49 129.5q0 64 -45 110t-123 46q-62 0 -115 -38t-53 -118q0 -87 141 -254zM506 707q-153 -85 -203.5 -161t-50.5 -169q0 -108 85 -178t193 -70q96 0 174 43.5t138 130.5z" />
    <glyph glyph-name="quotesingle" unicode="'" horiz-adv-x="569" 
d="M354 934h-139v528h139v-528z" />
    <glyph glyph-name="parenleft" unicode="(" horiz-adv-x="530" 
d="M418 -381q-200 299 -261 521.5t-61 422.5q0 507 322 934h133q-270 -416 -270 -934q0 -512 270 -944h-133z" />
    <glyph glyph-name="parenright" unicode=")" horiz-adv-x="530" 
d="M-20 -381q270 421 270 930q0 518 -270 948h133q170 -269 245.5 -487.5t75.5 -460.5q0 -502 -321 -930h-133z" />
    <glyph glyph-name="asterisk" unicode="*" horiz-adv-x="721" 
d="M412 1231l219 82l41 -99l-223 -77l135 -187l-84 -63l-142 196l-133 -196l-92 63l133 187l-217 77l37 99l217 -82v231h109v-231z" />
    <glyph glyph-name="plus" unicode="+" horiz-adv-x="1229" 
d="M684 0h-140v448h-448v140h448v448h140v-448h448v-140h-448v-448z" />
    <glyph glyph-name="comma" unicode="," horiz-adv-x="569" 
d="M170 227h227v-207q0 -255 -225 -321v102q126 55 119 199h-121v227z" />
    <glyph glyph-name="hyphen" unicode="-" horiz-adv-x="797" 
d="M102 651h592v-164h-592v164z" />
    <glyph glyph-name="period" unicode="." horiz-adv-x="569" 
d="M170 0v227h227v-227h-227z" />
    <glyph glyph-name="slash" unicode="/" horiz-adv-x="682" 
d="M569 1497h150l-606 -1532h-150z" />
    <glyph glyph-name="zero" unicode="0" 
d="M569 -25q-231 0 -357 155t-126 583q0 429 125.5 584t357.5 155q236 0 360 -158t124 -581q0 -424 -125 -581t-359 -157zM569 129q141 0 220 117.5t79 468.5q0 361 -82.5 472t-216.5 111q-137 0 -218 -114.5t-81 -468.5q0 -343 78 -464.5t221 -121.5z" />
    <glyph glyph-name="one" unicode="1" 
d="M729 0h-174v1040h-377v140q187 0 291.5 68t126.5 204h133v-1452z" />
    <glyph glyph-name="two" unicode="2" 
d="M90 938q-11 236 119 375t348 139q200 0 327.5 -113.5t127.5 -304.5q0 -112 -48 -209.5t-140 -171.5t-299 -197q-250 -148 -273 -302h745v-154h-948q16 209 107.5 338.5t300.5 255.5q220 136 295 223t75 219q0 111 -78 186.5t-202 75.5q-133 0 -209.5 -100.5t-73.5 -259.5
h-174z" />
    <glyph glyph-name="three" unicode="3" 
d="M447 831q43 -4 76 -4q119 0 198 64.5t79 173.5q0 117 -74 175t-184 58q-129 0 -202 -87t-73 -228h-174q10 228 129 348.5t320 120.5q204 0 323 -101t119 -288q0 -95 -51.5 -167.5t-154.5 -123.5q138 -29 202.5 -126t64.5 -228q0 -207 -141.5 -325t-357.5 -118
q-224 0 -354 126t-130 348h175q4 -142 81.5 -231t227.5 -89q133 0 224 78t91 203q0 124 -83 201t-226 77q-55 0 -105 -6v149z" />
    <glyph glyph-name="four" unicode="4" 
d="M858 494h197v-154h-197v-340h-164v340h-637v168l662 944h139v-958zM694 494v713l-487 -713h487z" />
    <glyph glyph-name="five" unicode="5" 
d="M963 1274h-586l-79 -424q97 106 275 106q213 0 341 -132.5t128 -364.5q0 -205 -137.5 -344.5t-369.5 -139.5q-196 0 -327 112.5t-136 303.5h174q9 -115 92.5 -188.5t212.5 -73.5q135 0 221 91.5t86 252.5q0 145 -91 237.5t-237 92.5q-155 0 -270 -137l-149 8l135 753h717
v-153z" />
    <glyph glyph-name="six" unicode="6" 
d="M252 738q58 98 149.5 147t216.5 49q206 0 325.5 -134.5t119.5 -336.5q0 -207 -127 -347.5t-358 -140.5q-250 0 -375 174.5t-125 524.5q0 372 135.5 575t398.5 203q181 0 287.5 -95t122.5 -276h-174q-16 108 -77 162.5t-167 54.5q-167 0 -255 -140t-97 -420zM285 453
q0 -142 82 -233t219 -91q134 0 213.5 92.5t79.5 229.5q0 154 -81 241.5t-212 87.5q-138 0 -219.5 -91t-81.5 -236z" />
    <glyph glyph-name="seven" unicode="7" 
d="M1042 1278q-220 -220 -376.5 -577t-180.5 -701h-194q25 350 168 666t405 598h-762v163h940v-149z" />
    <glyph glyph-name="eight" unicode="8" 
d="M575 -25q-221 0 -357 117t-136 326q0 135 63.5 225.5t190.5 136.5q-92 37 -147.5 120t-55.5 181q0 167 123 269t303 102q214 0 327 -104.5t113 -266.5q0 -98 -54 -179t-146 -122q129 -41 193.5 -131.5t64.5 -230.5q0 -200 -135 -321.5t-347 -121.5zM575 842
q105 0 172.5 61.5t67.5 171.5q0 111 -68.5 167t-175.5 56q-118 0 -186 -63t-68 -160q0 -108 70 -170.5t188 -62.5zM575 129q128 0 212.5 79.5t84.5 203.5q0 115 -88 195.5t-211 80.5q-133 0 -220 -78t-87 -200q0 -131 87 -206t222 -75z" />
    <glyph glyph-name="nine" unicode="9" 
d="M868 700q-53 -92 -143 -149t-197 -57q-210 0 -334 128t-124 357q0 211 135 342t342 131q248 0 372.5 -173.5t124.5 -520.5q0 -392 -126 -587.5t-377 -195.5q-189 0 -306.5 97.5t-134.5 277.5h174q11 -106 86.5 -163.5t180.5 -57.5q155 0 237 142.5t90 428.5zM838 967
q0 142 -81 236.5t-218 94.5q-139 0 -212 -94t-73 -250q0 -121 82 -214t205 -93q128 0 212.5 91t84.5 229z" />
    <glyph glyph-name="colon" unicode=":" horiz-adv-x="569" 
d="M397 831h-227v228h227v-228zM170 227h227v-227h-227v227z" />
    <glyph glyph-name="semicolon" unicode=";" horiz-adv-x="569" 
d="M397 831h-227v228h227v-228zM170 227h227v-207q0 -256 -225 -321v102q126 55 119 199h-121v227z" />
    <glyph glyph-name="less" unicode="&#x3c;" horiz-adv-x="1229" 
d="M264 518l871 -394v-140l-1041 470v128l1041 470v-140zM46 448zM46 588z" />
    <glyph glyph-name="equal" unicode="=" horiz-adv-x="1229" 
d="M1132 241h-1036v140h1036v-140zM1132 655h-1036v140h1036v-140zM96 448zM96 588z" />
    <glyph glyph-name="greater" unicode="&#x3e;" horiz-adv-x="1229" 
d="M965 518l-871 394v140l1041 -470v-128l-1041 -470v140zM1183 448zM1183 588z" />
    <glyph glyph-name="question" unicode="?" 
d="M113 1006q0 223 127 357t331 134q195 0 314 -110t119 -300q0 -98 -38.5 -173t-138.5 -175q-102 -96 -140 -159t-38 -144v-80h-174v97q0 175 183 341q82 74 122 139t40 149q0 117 -64.5 189t-184.5 72q-128 0 -206 -86.5t-78 -250.5h-174zM446 227h228v-227h-228v227z" />
    <glyph glyph-name="at" unicode="@" horiz-adv-x="1638" 
d="M1495 326q-104 -175 -275 -268t-366 -93q-322 0 -545 224.5t-223 547.5q0 311 224 535.5t536 224.5q287 0 491.5 -179t204.5 -452q0 -243 -158.5 -418.5t-320.5 -175.5q-123 0 -131 134q-131 -138 -260 -138q-128 0 -210.5 93.5t-82.5 230.5q0 226 139 404t342 178
q166 0 230 -168l47 129h129l-172 -582q-23 -78 -23 -104q0 -64 49 -64q93 0 188 153.5t95 317.5q0 232 -164 380t-391 148q-261 0 -442 -194.5t-181 -462.5q0 -272 187.5 -460.5t445.5 -188.5q148 0 284 67.5t224 180.5h129zM709 408q122 0 219.5 147.5t97.5 288.5
q0 72 -51.5 131t-114.5 59q-132 0 -230 -141.5t-98 -286.5q0 -86 49.5 -142t127.5 -56z" />
    <glyph glyph-name="A" unicode="A" horiz-adv-x="1327" 
d="M907 604l-245 684l-250 -684h495zM1128 0l-162 440h-613l-167 -440h-200l571 1462h215l571 -1462h-215z" />
    <glyph glyph-name="B" unicode="B" horiz-adv-x="1403" 
d="M160 1462h530q258 0 341.5 -31t150.5 -116t67 -211q0 -121 -54.5 -204t-162.5 -128q135 -29 207 -123t72 -229q0 -176 -123 -298t-322 -122h-706v1462zM354 834h389q166 0 239 58t73 175q0 114 -62 172.5t-250 58.5h-389v-464zM354 164h488q129 0 201.5 69.5t72.5 192.5
q0 122 -79.5 183t-237.5 61h-445v-506z" />
    <glyph glyph-name="C" unicode="C" horiz-adv-x="1479" 
d="M764 -35q-315 0 -495.5 208t-180.5 554q0 339 186.5 554.5t505.5 215.5q241 0 405.5 -125.5t196.5 -349.5h-194q-33 156 -144.5 233.5t-265.5 77.5q-235 0 -365 -165.5t-130 -426.5q0 -284 131 -448t366 -164q174 0 290.5 110t131.5 312h195q-29 -277 -191 -431.5
t-442 -154.5z" />
    <glyph glyph-name="D" unicode="D" horiz-adv-x="1442" 
d="M160 0v1462h502q337 0 519.5 -172t182.5 -524q0 -383 -175.5 -574.5t-526.5 -191.5h-502zM354 164h324q232 0 361.5 146.5t129.5 428.5q0 290 -121.5 424.5t-365.5 134.5h-328v-1134z" />
    <glyph glyph-name="E" unicode="E" horiz-adv-x="1251" 
d="M160 0v1462h1009v-164h-815v-464h760v-164h-760v-506h822v-164h-1016z" />
    <glyph glyph-name="F" unicode="F" horiz-adv-x="1176" 
d="M160 0v1462h960v-164h-766v-464h672v-164h-672v-670h-194z" />
    <glyph glyph-name="G" unicode="G" horiz-adv-x="1554" 
d="M784 -35q-305 0 -500.5 214t-195.5 523q0 349 188 572t508 223q267 0 430.5 -128t198.5 -357h-194q-30 160 -146.5 240.5t-288.5 80.5q-237 0 -369 -174t-132 -446q0 -250 137 -417t364 -167q215 0 345.5 133t123.5 344h-467v164h641v-770h-122l-52 182
q-83 -109 -200.5 -163t-268.5 -54z" />
    <glyph glyph-name="H" unicode="H" horiz-adv-x="1479" 
d="M160 0v1462h194v-628h770v628h195v-1462h-195v670h-770v-670h-194z" />
    <glyph glyph-name="I" unicode="I" horiz-adv-x="530" 
d="M168 0v1462h194v-1462h-194z" />
    <glyph glyph-name="J" unicode="J" horiz-adv-x="1063" 
d="M903 365q0 -185 -111.5 -292.5t-320.5 -107.5q-205 0 -315.5 108.5t-110.5 317.5v90h195v-61q0 -155 56 -223t179 -68q133 0 183.5 71.5t50.5 192.5v1069h194v-1097z" />
    <glyph glyph-name="K" unicode="K" horiz-adv-x="1366" 
d="M160 1462h194v-729l742 729h252l-617 -590l641 -872h-246l-528 739l-244 -227v-512h-194v1462z" />
    <glyph glyph-name="L" unicode="L" 
d="M160 1462h194v-1298h774v-164h-968v1462z" />
    <glyph glyph-name="M" unicode="M" horiz-adv-x="1784" 
d="M164 1462h266l461 -1229l463 1229h266v-1462h-184v1224l-461 -1224h-166l-461 1224v-1224h-184v1462z" />
    <glyph glyph-name="N" unicode="N" horiz-adv-x="1479" 
d="M158 1462h207l774 -1186v1186h184v-1462h-213l-768 1174v-1174h-184v1462z" />
    <glyph glyph-name="O" unicode="O" horiz-adv-x="1556" 
d="M778 -35q-320 0 -510 218t-190 548t190.5 548t509.5 218t510 -217.5t191 -548.5q0 -330 -191 -548t-510 -218zM778 129q238 0 372 171t134 431q0 262 -134.5 432t-371.5 170q-238 0 -372 -172t-134 -430q0 -256 133.5 -429t372.5 -173z" />
    <glyph glyph-name="P" unicode="P" horiz-adv-x="1327" 
d="M160 1462h641q221 0 334.5 -113.5t113.5 -318.5t-113.5 -319.5t-334.5 -112.5h-447v-598h-194v1462zM354 762h381q160 0 240 67t80 201t-80 201t-240 67h-381v-536z" />
    <glyph glyph-name="Q" unicode="Q" horiz-adv-x="1556" 
d="M778 -35q-320 0 -510 218t-190 548t190.5 548t509.5 218t510 -217.5t191 -548.5q0 -180 -55.5 -325t-166.5 -256l193 -154l-98 -123l-224 180q-145 -88 -350 -88zM778 129q105 0 203 41l-162 129l103 119l194 -156q84 84 126 201.5t42 267.5q0 262 -134.5 432t-371.5 170
q-238 0 -372 -172t-134 -430q0 -256 133.5 -429t372.5 -173z" />
    <glyph glyph-name="R" unicode="R" horiz-adv-x="1403" 
d="M160 1462h688q209 0 326.5 -102.5t117.5 -280.5q0 -133 -60.5 -233.5t-193.5 -136.5q102 -23 160 -102t66 -312q8 -207 79 -295h-217q-33 22 -41 252q-6 162 -56 267.5t-200 105.5h-475v-625h-194v1462zM760 788q169 0 253.5 65t84.5 196q0 110 -61.5 179.5t-198.5 69.5
h-484v-510h406z" />
    <glyph glyph-name="S" unicode="S" horiz-adv-x="1327" 
d="M680 -35q-270 0 -437 135.5t-167 380.5h184q0 -162 117 -257t309 -95q168 0 269.5 65.5t101.5 200.5q0 78 -46.5 130.5t-122 79.5t-299.5 76q-278 61 -373 152t-95 236q0 200 151 314t379 114q249 0 390.5 -121t148.5 -342h-184q-16 149 -107 224t-256 75
q-158 0 -243 -65t-85 -185q0 -89 76.5 -140t220.5 -81q290 -61 406 -111.5t174.5 -139t58.5 -210.5q0 -202 -164.5 -319t-406.5 -117z" />
    <glyph glyph-name="T" unicode="T" horiz-adv-x="1176" 
d="M492 0v1298h-488v164h1170v-164h-488v-1298h-194z" />
    <glyph glyph-name="U" unicode="U" horiz-adv-x="1479" 
d="M752 -35q-300 0 -450 140.5t-150 422.5v934h194v-934q0 -196 104.5 -297.5t301.5 -101.5q190 0 285.5 99.5t95.5 299.5v934h194v-934q0 -280 -149.5 -421.5t-425.5 -141.5z" />
    <glyph glyph-name="V" unicode="V" horiz-adv-x="1251" 
d="M735 0h-221l-516 1462h211l419 -1272l425 1272h202z" />
    <glyph glyph-name="W" unicode="W" horiz-adv-x="1896" 
d="M1481 0h-203l-336 1232l-340 -1232h-203l-374 1462h198l287 -1220l332 1220h211l327 -1220l297 1220h195z" />
    <glyph glyph-name="X" unicode="X" horiz-adv-x="1251" 
d="M508 752l-481 710h233l365 -571l381 571h217l-484 -710l514 -752h-237l-393 604l-406 -604h-219z" />
    <glyph glyph-name="Y" unicode="Y" horiz-adv-x="1327" 
d="M764 598v-598h-195v598l-565 864h232l438 -696l428 696h221z" />
    <glyph glyph-name="Z" unicode="Z" horiz-adv-x="1251" 
d="M45 164l909 1134h-839v164h1069v-164l-908 -1134h932v-164h-1163v164z" />
    <glyph glyph-name="bracketleft" unicode="[" horiz-adv-x="530" 
d="M530 1358h-219v-1599h219v-140h-383v1878h383v-139z" />
    <glyph glyph-name="backslash" unicode="\" horiz-adv-x="682" 
d="M719 -35h-150l-606 1532h150z" />
    <glyph glyph-name="bracketright" unicode="]" horiz-adv-x="530" 
d="M0 -241h219v1599h-219v139h383v-1878h-383v140z" />
    <glyph glyph-name="asciicircum" unicode="^" horiz-adv-x="1229" 
d="M549 1427h131l446 -886h-143l-371 737l-364 -737h-146z" />
    <glyph glyph-name="underscore" unicode="_" horiz-adv-x="1024" 
d="M0 -154h1024v-102h-1024v102z" />
    <glyph glyph-name="grave" unicode="`" horiz-adv-x="455" 
d="M-47 1499h223l176 -293h-131z" />
    <glyph glyph-name="a" unicode="a" horiz-adv-x="1100" 
d="M786 547q-41 -34 -197 -54q-141 -19 -199.5 -36.5t-95 -59.5t-36.5 -112q0 -72 52.5 -114t152.5 -42q150 0 236.5 73.5t86.5 166.5v178zM797 139q-69 -82 -162 -123t-211 -41q-167 0 -258.5 77.5t-91.5 219.5q0 156 102.5 235t392.5 113q118 13 168.5 42t50.5 92
q0 88 -59 132t-176 44q-130 0 -196 -50.5t-68 -150.5h-174q8 177 120 265.5t328 88.5q199 0 298.5 -72.5t99.5 -217.5v-545q0 -73 9 -96t46 -23q22 0 53 10v-135q-47 -29 -125 -29q-74 0 -110.5 41t-36.5 123z" />
    <glyph glyph-name="b" unicode="b" horiz-adv-x="1214" 
d="M137 1462h174v-547q42 84 127.5 126t214.5 42q227 0 357.5 -157.5t130.5 -399.5q0 -246 -129.5 -398.5t-354.5 -152.5q-103 0 -198.5 44t-147.5 122v-141h-174v1462zM629 930q-152 0 -238 -110t-86 -290q0 -183 88 -292t246 -109q152 0 234.5 108t82.5 302q0 171 -87 281
t-240 110z" />
    <glyph glyph-name="c" unicode="c" horiz-adv-x="1100" 
d="M569 -25q-230 0 -362.5 145t-132.5 396q0 259 133 413t366 154q199 0 319 -96t138 -268h-180q-24 105 -89.5 158t-172.5 53q-162 0 -246 -109.5t-84 -304.5q0 -170 80.5 -278.5t228.5 -108.5q127 0 200 64.5t91 193.5h178q-32 -206 -148.5 -309t-318.5 -103z" />
    <glyph glyph-name="d" unicode="d" horiz-adv-x="1214" 
d="M1077 0h-174v143q-43 -84 -128.5 -126t-213.5 -42q-225 0 -356 157t-131 400q0 248 130 399.5t353 151.5q106 0 200.5 -43.5t145.5 -121.5v544h174v-1462zM586 129q153 0 238 110.5t85 288.5q0 183 -87.5 292.5t-246.5 109.5q-155 0 -236 -112t-81 -298q0 -169 87.5 -280
t240.5 -111z" />
    <glyph glyph-name="e" unicode="e" horiz-adv-x="1100" 
d="M866 631q-11 136 -97 217.5t-208 81.5q-126 0 -209.5 -82.5t-93.5 -216.5h608zM582 -25q-248 0 -378 160t-130 397q0 242 141.5 396.5t355.5 154.5q229 0 354.5 -168t125.5 -438h-793q0 -159 87.5 -253.5t242.5 -94.5q115 0 183.5 51.5t90.5 155.5h172
q-35 -178 -153.5 -269.5t-298.5 -91.5z" />
    <glyph glyph-name="f" unicode="f" horiz-adv-x="606" 
d="M377 905v-905h-174v905h-178v154h178v158q0 131 73 196.5t220 65.5q60 0 112 -17v-151q-38 14 -98 14q-64 0 -98.5 -24.5t-34.5 -94.5v-147h205v-154h-205z" />
    <glyph glyph-name="g" unicode="g" horiz-adv-x="1176" 
d="M1044 122q0 -253 -118.5 -378t-372.5 -125q-182 0 -306.5 75.5t-131.5 213.5h174q3 -70 86 -110t188 -40q159 0 238.5 88.5t79.5 264.5v69q-50 -98 -141 -145t-193 -47q-219 0 -346 150t-127 386q0 241 127 400t362 159q110 0 189.5 -44t128.5 -132v152h163v-937z
M872 551q0 169 -79 274t-222 105q-148 0 -230.5 -104.5t-82.5 -280.5q0 -182 76.5 -293t222.5 -111q152 0 233.5 115.5t81.5 294.5z" />
    <glyph glyph-name="h" unicode="h" 
d="M1008 696v-696h-174v717q0 98 -57.5 155.5t-158.5 57.5q-151 0 -232 -91t-81 -241v-598h-174v1462h174v-559q41 88 135 134t203 46q182 0 273.5 -97t91.5 -290z" />
    <glyph glyph-name="i" unicode="i" horiz-adv-x="455" 
d="M315 1249h-174v213h174v-213zM141 0v1059h174v-1059h-174z" />
    <glyph glyph-name="j" unicode="j" horiz-adv-x="455" 
d="M315 1249h-174v213h174v-213zM141 -81v1140h174v-1169q0 -135 -63.5 -203t-190.5 -68q-49 0 -90 9v149q42 -4 72 -4q57 0 77.5 32t20.5 114z" />
    <glyph glyph-name="k" unicode="k" horiz-adv-x="1063" 
d="M141 1462h174v-866l484 463h233l-420 -385l451 -674h-221l-363 553l-164 -152v-401h-174v1462z" />
    <glyph glyph-name="l" unicode="l" horiz-adv-x="455" 
d="M141 1462h174v-1462h-174v1462z" />
    <glyph glyph-name="m" unicode="m" horiz-adv-x="1747" 
d="M961 659v-659h-175v694q0 118 -49.5 177t-148.5 59q-130 0 -206.5 -91.5t-76.5 -179.5v-659h-174v1059h164v-156q63 90 148.5 135t197.5 45q115 0 187.5 -45t103.5 -135q57 90 140 135t192 45q176 0 264 -77t88 -230v-776h-174v694q0 126 -50.5 181t-154.5 55
q-129 0 -202.5 -74t-73.5 -197z" />
    <glyph glyph-name="n" unicode="n" 
d="M1008 696v-696h-174v717q0 98 -57.5 155.5t-158.5 57.5q-151 0 -232 -91t-81 -241v-598h-174v1059h164v-168q58 96 144 144t204 48q182 0 273.5 -97t91.5 -290z" />
    <glyph glyph-name="o" unicode="o" horiz-adv-x="1176" 
d="M588 -25q-236 0 -375 152t-139 401q0 253 139.5 404t374.5 151q234 0 374 -152t140 -403q0 -248 -139.5 -400.5t-374.5 -152.5zM588 129q142 0 236 107.5t94 291.5t-93.5 293t-236.5 109q-144 0 -237 -108.5t-93 -293.5q0 -186 94 -292.5t236 -106.5z" />
    <glyph glyph-name="p" unicode="p" horiz-adv-x="1214" 
d="M137 1059h174v-144q42 84 127.5 126t214.5 42q227 0 357.5 -157.5t130.5 -399.5q0 -246 -129.5 -398.5t-354.5 -152.5q-103 0 -198.5 44t-147.5 122v-522h-174v1440zM629 930q-152 0 -238 -110t-86 -290q0 -183 88 -292t246 -109q152 0 234.5 108t82.5 302q0 171 -87 281
t-240 110z" />
    <glyph glyph-name="q" unicode="q" horiz-adv-x="1214" 
d="M1077 -381h-174v524q-43 -84 -128.5 -126t-213.5 -42q-225 0 -356 157t-131 400q0 248 130 399.5t353 151.5q106 0 200.5 -43.5t145.5 -121.5v141h174v-1440zM586 129q153 0 238 110.5t85 288.5q0 183 -87.5 292.5t-246.5 109.5q-155 0 -236 -112t-81 -298
q0 -169 87.5 -280t240.5 -111z" />
    <glyph glyph-name="r" unicode="r" horiz-adv-x="682" 
d="M125 0v1059h164v-223h4q62 124 159 185.5t230 61.5v-184q-199 0 -291 -105.5t-92 -322.5v-471h-174z" />
    <glyph glyph-name="s" unicode="s" horiz-adv-x="1024" 
d="M512 -25q-200 0 -320 89t-129 270h175q3 -102 80.5 -153.5t203.5 -51.5q128 0 192 39.5t64 118.5q0 82 -80.5 121.5t-265.5 76.5q-166 32 -256 99t-90 198q0 139 113 220t282 81q208 0 316.5 -83t117.5 -248h-174q-6 88 -75 133t-170 45q-113 0 -169.5 -34t-56.5 -101
q0 -55 56 -94.5t168 -62.5q189 -40 272 -69.5t140 -93t57 -166.5q0 -163 -124 -248.5t-327 -85.5z" />
    <glyph glyph-name="t" unicode="t" horiz-adv-x="645" 
d="M199 905h-181v154h181v317h174v-317h211v-154h-211v-657q0 -60 22 -77t109 -17h80v-154h-133q-159 0 -205.5 52t-46.5 179v674z" />
    <glyph glyph-name="u" unicode="u" 
d="M844 168q-57 -97 -144 -145t-204 -48q-183 0 -274 96.5t-91 290.5v697h174v-717q0 -98 57.5 -155.5t157.5 -57.5q152 0 233 91t81 241v598h174v-1059h-164v168z" />
    <glyph glyph-name="v" unicode="v" horiz-adv-x="1024" 
d="M608 0h-186l-393 1059h194l299 -886l291 886h182z" />
    <glyph glyph-name="w" unicode="w" horiz-adv-x="1552" 
d="M1180 0h-185l-216 846l-216 -846h-188l-340 1059h192l242 -869l215 869h190l224 -869l239 869h181z" />
    <glyph glyph-name="x" unicode="x" horiz-adv-x="1061" 
d="M416 557l-369 502h223l254 -371l264 371h209l-364 -488l409 -571h-223l-295 438l-295 -438h-211z" />
    <glyph glyph-name="y" unicode="y" horiz-adv-x="1024" 
d="M564 -98q-61 -159 -128.5 -221t-178.5 -62q-72 0 -121 18v160q71 -24 102 -24q93 0 144 96l54 137l-420 1053h197l311 -870l299 870h185z" />
    <glyph glyph-name="z" unicode="z" horiz-adv-x="983" 
d="M45 133l639 772h-598v154h823v-119l-647 -786h676v-154h-893v133z" />
    <glyph glyph-name="braceleft" unicode="{" horiz-adv-x="682" 
d="M254 558q73 -19 125.5 -92.5t52.5 -188.5v-358q0 -177 98 -177h103v-123h-144q-85 0 -153 75t-68 194v357q0 107 -50 175t-120 68v140q69 0 119.5 66.5t50.5 170.5v364q0 119 68 193.5t153 74.5h144v-123h-103q-98 0 -98 -176v-366q0 -104 -51.5 -178.5t-126.5 -95.5z
" />
    <glyph glyph-name="bar" unicode="|" horiz-adv-x="455" 
d="M297 -381h-139v2048h139v-2048z" />
    <glyph glyph-name="braceright" unicode="}" horiz-adv-x="682" 
d="M428 558q-73 19 -125.5 92.5t-52.5 188.5v358q0 177 -98 177h-103v123h144q85 0 153 -75t68 -194v-357q0 -107 50 -175t120 -68v-140q-69 0 -119.5 -66.5t-50.5 -170.5v-364q0 -119 -68 -193.5t-153 -74.5h-144v123h103q98 0 98 176v366q0 104 51.5 178.5t126.5 95.5z
" />
    <glyph glyph-name="asciitilde" unicode="~" horiz-adv-x="1229" 
d="M1087 551q-112 -176 -256 -176q-86 0 -208 67q-138 80 -236 80q-103 0 -172 -155l-74 102q89 176 256 176q110 0 341 -118q55 -29 96 -29q76 0 143 101q18 28 37 54z" />
    <glyph glyph-name="Zcaron" horiz-adv-x="1251" 
d="M45 164l909 900h-839v164h1069v-164l-908 -900h932v-164h-1163v164zM641 1460l144 196h158l-211 -293h-191l-213 293h172z" />
    <glyph glyph-name="Zcaron" unicode="&#x17d;" horiz-adv-x="1251" 
d="M45 164l909 900h-839v164h1069v-164l-908 -900h932v-164h-1163v164zM641 1460l144 196h158l-211 -293h-191l-213 293h172z" />
    <glyph glyph-name="zcaron" horiz-adv-x="983" 
d="M45 133l639 772h-598v154h823v-119l-647 -786h676v-154h-893v133zM499 1303l144 196h158l-211 -293h-191l-213 293h172z" />
    <glyph glyph-name="zcaron" unicode="&#x17e;" horiz-adv-x="983" 
d="M45 133l639 772h-598v154h823v-119l-647 -786h676v-154h-893v133zM499 1303l144 196h158l-211 -293h-191l-213 293h172z" />
    <glyph glyph-name="uni00A0" unicode="&#xa0;" horiz-adv-x="569" 
 />
    <glyph glyph-name="exclamdown" unicode="&#xa1;" horiz-adv-x="530" 
d="M379 831h-227v228h227v-228zM168 45l51 637h92l51 -637v-426h-194v426z" />
    <glyph glyph-name="cent" unicode="&#xa2;" 
d="M557 -25q-226 11 -344.5 163.5t-118.5 377.5q0 238 123 394.5t340 172.5v195h80v-195q365 -12 416 -364h-179q-46 203 -237 211v-801q204 17 248 258h174q-22 -180 -137.5 -296t-284.5 -116v-213h-80v213zM557 930q-278 -35 -278 -414q0 -172 75.5 -274.5t202.5 -112.5
v801z" />
    <glyph glyph-name="sterling" unicode="&#xa3;" 
d="M96 762h119q-96 162 -96 319q0 185 135.5 300.5t331.5 115.5q227 0 357 -132t126 -396h-174q-10 374 -299 374q-123 0 -208 -76.5t-85 -191.5q0 -120 69 -241q19 -35 38 -72h325v-92h-280q41 -85 41 -154q0 -100 -49.5 -187t-188.5 -198l4 -4q134 59 215 59q72 0 195 -30
q117 -37 172 -37q82 0 182 76l88 -136q-108 -94 -299 -94q-65 0 -203 41q-129 43 -215 43q-101 0 -204 -72l-97 136q226 154 226 366q0 75 -52 191h-174v92z" />
    <glyph glyph-name="currency" unicode="&#xa4;" 
d="M152 1237l114 -115q132 105 309 105q169 0 293 -103l117 115l102 -104l-112 -113q106 -115 106 -303q0 -180 -106 -307l112 -115l-96 -96l-114 118q-123 -112 -304 -112q-187 0 -311 110l-112 -118l-99 98l113 119q-107 130 -107 299q0 192 111 303l-117 119zM231 715
q0 -149 101 -252t241 -103t237 104.5t97 254.5q0 146 -97 250t-235 104q-146 0 -245 -104.5t-99 -253.5z" />
    <glyph glyph-name="yen" unicode="&#xa5;" 
d="M475 356h-289v123h289v86l-37 68h-252v123h189l-375 706h223l357 -723l346 723h213l-365 -706h191v-123h-258l-37 -68v-86h295v-123h-295v-356h-195v356z" />
    <glyph glyph-name="brokenbar" unicode="&#xa6;" horiz-adv-x="455" 
d="M297 842h-139v512h139v-512zM158 330h139v-512h-139v512z" />
    <glyph glyph-name="section" unicode="&#xa7;" 
d="M778 1124q-2 94 -55 156.5t-152 62.5q-194 0 -194 -170q0 -57 48.5 -111t291.5 -183q138 -77 199.5 -126.5t101 -119t39.5 -151.5q0 -102 -60.5 -183t-152.5 -118q121 -90 121 -240q0 -141 -110 -231.5t-273 -90.5q-185 0 -292.5 100.5t-119.5 281.5h174
q2 -105 65.5 -166.5t168.5 -61.5q80 0 143 41.5t63 122.5q0 71 -63.5 130t-292.5 184q-209 108 -282.5 208.5t-73.5 219.5q0 92 62 173.5t157 108.5q-94 98 -94 210q0 142 111.5 234t266.5 92q168 0 270.5 -93t106.5 -280h-174zM389 873q-149 -58 -149 -186q0 -71 42.5 -122
t172.5 -128q173 -92 286 -170q148 67 148 190q0 74 -60.5 129.5t-298.5 197.5q-71 42 -141 89z" />
    <glyph glyph-name="dieresis" unicode="&#xa8;" horiz-adv-x="455" 
d="M328 1446h184v-213h-184v213zM-57 1446h184v-213h-184v213z" />
    <glyph glyph-name="copyright" unicode="&#xa9;" horiz-adv-x="1638" 
d="M821 1497q315 0 541.5 -222t226.5 -540q0 -322 -225.5 -546t-542.5 -224t-544.5 223t-227.5 547q0 320 228 541t544 221zM821 78q264 0 446.5 188t182.5 469q0 273 -182.5 461t-446.5 188q-268 0 -450.5 -189t-182.5 -460q0 -279 182.5 -468t450.5 -189zM1227 584
q-33 -150 -136.5 -236t-244.5 -86q-202 0 -328.5 132t-126.5 337q0 211 122.5 339t326.5 128q147 0 253.5 -79t131.5 -232h-129q-17 86 -83.5 142t-170.5 56q-148 0 -230 -99t-82 -251q0 -154 89 -257t227 -103q104 0 169.5 58.5t80.5 150.5h131z" />
    <glyph glyph-name="ordfeminine" unicode="&#xaa;" horiz-adv-x="774" 
d="M649 946q0 -65 29 -65q23 0 45 8v-94q-39 -17 -88 -17q-98 0 -105 94q-88 -94 -239 -94q-110 0 -175 48.5t-65 134.5q0 90 61.5 140.5t184.5 61.5q163 18 199 33t36 53q0 50 -39.5 75.5t-117.5 25.5q-83 0 -125.5 -29t-44.5 -86h-123q6 108 81.5 162.5t219.5 54.5
q133 0 199.5 -44.5t66.5 -133.5v-328zM526 1118q-32 -20 -89 -28q-154 -23 -200.5 -45.5t-46.5 -79.5q0 -54 38 -69t89 -15q102 0 155.5 41t53.5 100v96z" />
    <glyph glyph-name="guillemotleft" unicode="&#xab;" horiz-adv-x="948" 
d="M504 479v180l311 246v-176l-205 -160l205 -159v-177zM102 479v180l312 246v-176l-205 -160l205 -159v-177z" />
    <glyph glyph-name="logicalnot" unicode="&#xac;" horiz-adv-x="1229" 
d="M1130 223h-139v432h-893v140h1032v-572z" />
    <glyph glyph-name="uni00AD" unicode="&#xad;" horiz-adv-x="797" 
d="M102 651h592v-164h-592v164z" />
    <glyph glyph-name="registered" unicode="&#xae;" horiz-adv-x="1638" 
d="M821 1497q315 0 541.5 -222t226.5 -540q0 -322 -225.5 -546t-542.5 -224t-544.5 223t-227.5 547q0 320 228 541t544 221zM821 78q264 0 446.5 188t182.5 469q0 276 -183 462.5t-446 186.5q-267 0 -450 -187.5t-183 -461.5q0 -279 182.5 -468t450.5 -189zM522 1180h346
q314 0 314 -256q0 -215 -236 -244l256 -395h-149l-244 385h-147v-385h-140v895zM662 782h145q158 0 196.5 39t38.5 109q0 137 -196 137h-184v-285z" />
    <glyph glyph-name="overscore" unicode="&#xaf;" horiz-adv-x="1024" 
d="M1024 1555h-1024v102h1024v-102z" />
    <glyph glyph-name="degree" unicode="&#xb0;" horiz-adv-x="819" 
d="M410 1452q121 0 208 -88t87 -207q0 -118 -84.5 -206.5t-210.5 -88.5q-125 0 -210 85.5t-85 209.5t87.5 209.5t207.5 85.5zM410 965q87 0 139.5 59t52.5 133q0 76 -53.5 134.5t-138.5 58.5t-139 -58.5t-54 -134.5q0 -74 53 -133t140 -59z" />
    <glyph glyph-name="plusminus" unicode="&#xb1;" horiz-adv-x="1229" 
d="M545 1034h139v-340h446v-139h-446v-342h-139v342h-447v139h447v340zM98 139h1032v-139h-1032v139z" />
    <glyph glyph-name="two.superior" unicode="&#xb2;" horiz-adv-x="758" 
d="M672 562h-609q6 120 59.5 216.5t209.5 179.5q137 68 175 106t38 120q0 67 -39 108t-111 41q-83 0 -127 -51t-49 -152h-139q2 142 86 229t231 87q127 0 207 -69.5t80 -188.5q0 -91 -48.5 -162t-199.5 -148q-200 -108 -217 -203h453v-113z" />
    <glyph glyph-name="three.superior" unicode="&#xb3;" horiz-adv-x="758" 
d="M520 1028q180 -47 180 -208q0 -124 -91.5 -200t-229.5 -76q-148 0 -234 74.5t-86 215.5h136q6 -180 188 -180q82 0 131 41t49 119q0 77 -51 114t-121 37h-76v102h50q81 0 122 33.5t41 101.5q0 62 -39.5 97.5t-103.5 35.5q-157 0 -170 -182h-135q4 133 85 213t220 80
q125 0 203 -63.5t78 -172.5q0 -125 -146 -182z" />
    <glyph glyph-name="acute" unicode="&#xb4;" horiz-adv-x="455" 
d="M279 1499h223l-269 -293h-131z" />
    <glyph glyph-name="uni00B5" unicode="&#xb5;" 
d="M1008 0h-164v168h-4q-118 -193 -322 -193q-130 0 -203 72h-4v-428h-174v1440h174v-717q0 -98 56.5 -155.5t154.5 -57.5q150 0 231 90.5t81 241.5v598h174v-1059z" />
    <glyph glyph-name="paragraph" unicode="&#xb6;" horiz-adv-x="1229" 
d="M1055 -317h-140v1667h-249v-1667h-140v976q-185 0 -306.5 110.5t-121.5 270.5q0 203 125 312.5t342 109.5h490v-1779z" />
    <glyph glyph-name="uni00B7" unicode="&#xb7;" horiz-adv-x="569" 
d="M285 768q53 0 92 -39t39 -92q0 -49 -39 -90t-90 -41q-54 0 -93.5 39t-39.5 92t38.5 92t92.5 39z" />
    <glyph glyph-name="cedilla" unicode="&#xb8;" horiz-adv-x="455" 
d="M10 -342l37 80q68 -27 133 -27q119 0 119 56q0 57 -96 57q-41 0 -84 -16l-35 57l125 135h86l-86 -94l4 -4q29 15 78 15q68 0 115 -34t47 -100q0 -75 -73 -119.5t-181 -44.5q-93 0 -189 39z" />
    <glyph glyph-name="one.superior" unicode="&#xb9;" horiz-adv-x="758" 
d="M496 562h-140v619h-235v102q121 0 189 36t83 109h103v-866z" />
    <glyph glyph-name="ordmasculine" unicode="&#xba;" horiz-adv-x="786" 
d="M395 778q-161 0 -252.5 94t-91.5 240q0 148 91.5 244t250.5 96q161 0 251.5 -95t90.5 -245q0 -147 -86 -240.5t-254 -93.5zM395 881q100 0 150.5 64t50.5 165q0 120 -51 180t-152 60q-86 0 -144.5 -57.5t-58.5 -180.5q0 -104 52.5 -167.5t152.5 -63.5z" />
    <glyph glyph-name="guillemotright" unicode="&#xbb;" horiz-adv-x="948" 
d="M444 659v-180l-311 -246v177l205 159l-205 160v176zM846 659v-180l-311 -246v177l204 159l-204 160v176z" />
    <glyph glyph-name="onequarter" unicode="&#xbc;" horiz-adv-x="1708" 
d="M466 562h-140v619h-235v102q121 0 189 36t83 109h103v-866zM1199 1485h131l-891 -1542h-131zM1582 209h-114v-209h-136v209h-393v139l393 518h136v-544h114v-113zM1052 322h280v372z" />
    <glyph glyph-name="onehalf" unicode="&#xbd;" horiz-adv-x="1708" 
d="M470 562h-140v619h-235v102q121 0 189 36t83 109h103v-866zM1157 1485h131l-891 -1542h-131zM1602 0h-609q6 120 59.5 216.5t209.5 179.5q137 68 175 106t38 120q0 67 -39 108t-111 41q-83 0 -127 -51t-49 -152h-139q2 142 86 229t231 87q127 0 207 -69.5t80 -188.5
q0 -91 -48.5 -162t-199.5 -148q-200 -108 -217 -203h453v-113z" />
    <glyph glyph-name="threequarters" unicode="&#xbe;" horiz-adv-x="1708" 
d="M560 1028q180 -47 180 -208q0 -124 -91.5 -200t-229.5 -76q-148 0 -234 74.5t-86 215.5h136q6 -180 188 -180q82 0 131 41t49 119q0 77 -51 114t-121 37h-76v102h50q81 0 122 33.5t41 101.5q0 62 -39.5 97.5t-103.5 35.5q-157 0 -170 -182h-135q4 133 85 213t220 80
q125 0 203 -63.5t78 -172.5q0 -125 -146 -182zM1301 1485h131l-891 -1542h-131zM1580 209h-114v-209h-136v209h-393v139l393 518h136v-544h114v-113zM1050 322h280v372z" />
    <glyph glyph-name="questiondown" unicode="&#xbf;" 
d="M690 831h-227v228h227v-228zM1030 100q0 -207 -125 -344t-334 -137q-196 0 -314 111t-118 299q0 79 29 156.5t147 191.5q179 163 179 283v34h174v-31q0 -174 -184 -341q-161 -146 -161 -284q0 -121 65 -193t183 -72q135 0 210 90t75 237h174z" />
    <glyph glyph-name="Agrave" unicode="&#xc0;" horiz-adv-x="1327" 
d="M906 507l-245 549l-248 -549h493zM1128 0l-152 343h-633l-157 -343h-200l571 1230h215l571 -1230h-215zM365 1656h223l176 -293h-131z" />
    <glyph glyph-name="Aacute" unicode="&#xc1;" horiz-adv-x="1327" 
d="M906 507l-245 549l-248 -549h493zM1128 0l-152 343h-633l-157 -343h-200l571 1230h215l571 -1230h-215zM734 1656h223l-269 -293h-131z" />
    <glyph glyph-name="Acircumflex" unicode="&#xc2;" horiz-adv-x="1327" 
d="M906 507l-245 549l-248 -549h493zM1128 0l-152 343h-633l-157 -343h-200l571 1230h215l571 -1230h-215zM661 1560l-143 -197h-158l211 293h191l213 -293h-173z" />
    <glyph glyph-name="Atilde" unicode="&#xc3;" horiz-adv-x="1327" 
d="M906 507l-245 549l-248 -549h493zM1128 0l-152 343h-633l-157 -343h-200l571 1230h215l571 -1230h-215zM1020 1625q-21 -114 -73 -170.5t-134 -56.5q-59 0 -154 41q-103 39 -135 39q-69 0 -100 -86h-107q25 112 79 168.5t138 56.5q56 0 150 -41q91 -41 135 -41
q68 0 94 90h107z" />
    <glyph glyph-name="Adieresis" unicode="&#xc4;" horiz-adv-x="1327" 
d="M906 507l-245 549l-248 -549h493zM1128 0l-152 343h-633l-157 -343h-200l571 1230h215l571 -1230h-215zM766 1603h184v-213h-184v213zM381 1603h184v-213h-184v213z" />
    <glyph glyph-name="Aring" unicode="&#xc5;" horiz-adv-x="1327" 
d="M906 507l-245 549l-248 -549h493zM1128 0l-152 343h-633l-157 -343h-200l571 1230h12q-136 68 -136 207q0 94 68.5 162t161.5 68q92 0 162 -67.5t70 -162.5q0 -140 -136 -207h12l572 -1230h-215zM663 1297q60 0 100 39.5t40 98.5q0 60 -40 100t-100 40q-59 0 -98.5 -40
t-39.5 -100q0 -59 39.5 -98.5t98.5 -39.5z" />
    <glyph glyph-name="AE" unicode="&#xc6;" horiz-adv-x="1896" 
d="M725 1462h1096v-164h-719v-464h676v-164h-676v-506h731v-164h-915v426h-504l-209 -426h-219zM834 1298l-345 -708h429v708h-84z" />
    <glyph glyph-name="Ccedilla" unicode="&#xc7;" horiz-adv-x="1479" 
d="M557 -262q68 -27 133 -27q119 0 119 56q0 57 -96 57q-41 0 -84 -16l-35 57l95 103q-284 26 -442.5 231t-158.5 528q0 339 186.5 554.5t505.5 215.5q241 0 405.5 -125.5t196.5 -349.5h-194q-33 156 -144.5 233.5t-265.5 77.5q-235 0 -365 -165.5t-130 -426.5
q0 -284 131 -448t366 -164q174 0 290.5 110t131.5 312h195q-67 -576 -624 -586l-54 -59l4 -4q29 15 78 15q68 0 115 -34t47 -100q0 -75 -73 -119.5t-181 -44.5q-93 0 -189 39z" />
    <glyph glyph-name="Egrave" unicode="&#xc8;" horiz-adv-x="1251" 
d="M160 0v1230h1009v-164h-815v-349h760v-164h-760v-389h822v-164h-1016zM340 1656h223l176 -293h-131z" />
    <glyph glyph-name="Eacute" unicode="&#xc9;" horiz-adv-x="1251" 
d="M160 0v1230h1009v-164h-815v-349h760v-164h-760v-389h822v-164h-1016zM730 1656h223l-269 -293h-131z" />
    <glyph glyph-name="Ecircumflex" unicode="&#xca;" horiz-adv-x="1251" 
d="M160 0v1230h1009v-164h-815v-349h760v-164h-760v-389h822v-164h-1016zM657 1560l-143 -197h-158l211 293h191l213 -293h-173z" />
    <glyph glyph-name="Edieresis" unicode="&#xcb;" horiz-adv-x="1251" 
d="M160 0v1230h1009v-164h-815v-349h760v-164h-760v-389h822v-164h-1016zM754 1603h184v-213h-184v213zM369 1603h184v-213h-184v213z" />
    <glyph glyph-name="Igrave" unicode="&#xcc;" horiz-adv-x="530" 
d="M168 0v1230h194v-1230h-194zM-37 1656h223l176 -293h-131z" />
    <glyph glyph-name="Iacute" unicode="&#xcd;" horiz-adv-x="530" 
d="M168 0v1230h194v-1230h-194zM340 1656h223l-269 -293h-131z" />
    <glyph glyph-name="Icircumflex" unicode="&#xce;" horiz-adv-x="530" 
d="M168 0v1230h194v-1230h-194zM262 1560l-143 -197h-158l211 293h191l213 -293h-173z" />
    <glyph glyph-name="Idieresis" unicode="&#xcf;" horiz-adv-x="530" 
d="M168 0v1230h194v-1230h-194zM367 1603h184v-213h-184v213zM-18 1603h184v-213h-184v213z" />
    <glyph glyph-name="Eth" unicode="&#xd0;" horiz-adv-x="1442" 
d="M160 698h-144v131h144v633h502q337 0 519.5 -172t182.5 -524q0 -766 -702 -766h-502v698zM354 829h439v-131h-439v-534h324q232 0 361.5 146.5t129.5 428.5q0 290 -121.5 424.5t-365.5 134.5h-328v-469z" />
    <glyph glyph-name="Ntilde" unicode="&#xd1;" horiz-adv-x="1479" 
d="M158 1230h207l774 -989v989h184v-1230h-213l-768 977v-977h-184v1230zM1096 1625q-21 -114 -73 -170.5t-134 -56.5q-59 0 -154 41q-103 39 -135 39q-69 0 -100 -86h-107q25 112 79 168.5t138 56.5q56 0 150 -41q91 -41 135 -41q68 0 94 90h107z" />
    <glyph glyph-name="Ograve" unicode="&#xd2;" horiz-adv-x="1556" 
d="M778 -35q-321 0 -510.5 184.5t-189.5 461.5q0 278 190 462t510 184q319 0 510 -184t191 -462t-190.5 -462t-510.5 -184zM778 129q240 0 373 138t133 344q0 209 -133.5 345.5t-372.5 136.5t-372.5 -138t-133.5 -344q0 -204 132.5 -343t373.5 -139zM469 1656h223l176 -293
h-131z" />
    <glyph glyph-name="Oacute" unicode="&#xd3;" horiz-adv-x="1556" 
d="M778 -35q-321 0 -510.5 184.5t-189.5 461.5q0 278 190 462t510 184q319 0 510 -184t191 -462t-190.5 -462t-510.5 -184zM778 129q240 0 373 138t133 344q0 209 -133.5 345.5t-372.5 136.5t-372.5 -138t-133.5 -344q0 -204 132.5 -343t373.5 -139zM859 1656h223l-269 -293
h-131z" />
    <glyph glyph-name="Ocircumflex" unicode="&#xd4;" horiz-adv-x="1556" 
d="M778 -35q-321 0 -510.5 184.5t-189.5 461.5q0 278 190 462t510 184q319 0 510 -184t191 -462t-190.5 -462t-510.5 -184zM778 129q240 0 373 138t133 344q0 209 -133.5 345.5t-372.5 136.5t-372.5 -138t-133.5 -344q0 -204 132.5 -343t373.5 -139zM776 1560l-143 -197
h-158l211 293h191l213 -293h-173z" />
    <glyph glyph-name="Otilde" unicode="&#xd5;" horiz-adv-x="1556" 
d="M778 -35q-321 0 -510.5 184.5t-189.5 461.5q0 278 190 462t510 184q319 0 510 -184t191 -462t-190.5 -462t-510.5 -184zM778 129q240 0 373 138t133 344q0 209 -133.5 345.5t-372.5 136.5t-372.5 -138t-133.5 -344q0 -204 132.5 -343t373.5 -139zM1135 1625
q-21 -114 -73 -170.5t-134 -56.5q-59 0 -154 41q-103 39 -135 39q-69 0 -100 -86h-107q25 112 79 168.5t138 56.5q56 0 150 -41q91 -41 135 -41q68 0 94 90h107z" />
    <glyph glyph-name="Odieresis" unicode="&#xd6;" horiz-adv-x="1556" 
d="M778 -35q-321 0 -510.5 184.5t-189.5 461.5q0 278 190 462t510 184q319 0 510 -184t191 -462t-190.5 -462t-510.5 -184zM778 129q240 0 373 138t133 344q0 209 -133.5 345.5t-372.5 136.5t-372.5 -138t-133.5 -344q0 -204 132.5 -343t373.5 -139zM881 1603h184v-213h-184
v213zM496 1603h184v-213h-184v213z" />
    <glyph glyph-name="multiply" unicode="&#xd7;" horiz-adv-x="1229" 
d="M987 49l-371 373l-372 -373l-99 98l373 373l-371 369l99 98l370 -369l369 369l98 -98l-368 -369l370 -373z" />
    <glyph glyph-name="Oslash" unicode="&#xd8;" horiz-adv-x="1556" 
d="M1481 1434l-168 -185q166 -205 166 -518q0 -330 -191 -548t-510 -218q-282 0 -469 176l-166 -182l-67 61l172 189q-170 206 -170 522q0 330 190.5 548t509.5 218q295 0 475 -180l162 178zM1130 1182q-132 151 -352 151q-238 0 -372 -172t-134 -430q0 -224 103 -383z
M430 274q130 -145 348 -145q238 0 372 171t134 431q0 223 -98 377z" />
    <glyph glyph-name="Ugrave" unicode="&#xd9;" horiz-adv-x="1479" 
d="M752 -35q-300 0 -450 140.5t-150 422.5v702h194v-702q0 -196 104.5 -297.5t301.5 -101.5q190 0 285.5 99.5t95.5 299.5v702h194v-702q0 -280 -149.5 -421.5t-425.5 -141.5zM432 1656h223l176 -293h-131z" />
    <glyph glyph-name="Uacute" unicode="&#xda;" horiz-adv-x="1479" 
d="M752 -35q-300 0 -450 140.5t-150 422.5v702h194v-702q0 -196 104.5 -297.5t301.5 -101.5q190 0 285.5 99.5t95.5 299.5v702h194v-702q0 -280 -149.5 -421.5t-425.5 -141.5zM822 1656h223l-269 -293h-131z" />
    <glyph glyph-name="Ucircumflex" unicode="&#xdb;" horiz-adv-x="1479" 
d="M752 -35q-300 0 -450 140.5t-150 422.5v702h194v-702q0 -196 104.5 -297.5t301.5 -101.5q190 0 285.5 99.5t95.5 299.5v702h194v-702q0 -280 -149.5 -421.5t-425.5 -141.5zM739 1560l-143 -197h-158l211 293h191l213 -293h-173z" />
    <glyph glyph-name="Udieresis" unicode="&#xdc;" horiz-adv-x="1479" 
d="M752 -35q-300 0 -450 140.5t-150 422.5v702h194v-702q0 -196 104.5 -297.5t301.5 -101.5q190 0 285.5 99.5t95.5 299.5v702h194v-702q0 -280 -149.5 -421.5t-425.5 -141.5zM844 1603h184v-213h-184v213zM459 1603h184v-213h-184v213z" />
    <glyph glyph-name="Yacute" unicode="&#xdd;" horiz-adv-x="1327" 
d="M764 485v-485h-195v485l-565 743h232l438 -585l428 585h221zM750 1656h223l-269 -293h-131z" />
    <glyph glyph-name="Thorn" unicode="&#xde;" horiz-adv-x="1327" 
d="M160 0v1462h194v-233h447q221 0 334.5 -115t113.5 -319q0 -205 -113.5 -317.5t-334.5 -112.5h-447v-365h-194zM354 528h381q320 0 320 267q0 270 -320 270h-381v-537z" />
    <glyph glyph-name="germandbls" unicode="&#xdf;" 
d="M131 1087q0 185 111.5 297.5t294.5 112.5q174 0 299 -99.5t125 -258.5q0 -253 -213 -318v-4q126 -15 202 -117t76 -249q0 -210 -132.5 -343t-340.5 -133q-47 0 -88 9v151q22 -6 70 -6q141 0 224 82t83 217q0 148 -70 227.5t-307 79.5v139q144 -8 227.5 52t83.5 186
q0 97 -66 164t-161 67q-125 0 -184.5 -66.5t-59.5 -219.5v-1057h-174v1087z" />
    <glyph glyph-name="agrave" unicode="&#xe0;" horiz-adv-x="1100" 
d="M786 547q-41 -34 -197 -54q-141 -19 -199.5 -36.5t-95 -59.5t-36.5 -112q0 -72 52.5 -114t152.5 -42q150 0 236.5 73.5t86.5 166.5v178zM797 139q-69 -82 -162 -123t-211 -41q-167 0 -258.5 77.5t-91.5 219.5q0 156 102.5 235t392.5 113q118 13 168.5 42t50.5 92
q0 88 -59 132t-176 44q-130 0 -196 -50.5t-68 -150.5h-174q8 177 120 265.5t328 88.5q199 0 298.5 -72.5t99.5 -217.5v-545q0 -73 9 -96t46 -23q22 0 53 10v-135q-47 -29 -125 -29q-74 0 -110.5 41t-36.5 123zM250 1499h223l176 -293h-131z" />
    <glyph glyph-name="aacute" unicode="&#xe1;" horiz-adv-x="1100" 
d="M786 547q-41 -34 -197 -54q-141 -19 -199.5 -36.5t-95 -59.5t-36.5 -112q0 -72 52.5 -114t152.5 -42q150 0 236.5 73.5t86.5 166.5v178zM797 139q-69 -82 -162 -123t-211 -41q-167 0 -258.5 77.5t-91.5 219.5q0 156 102.5 235t392.5 113q118 13 168.5 42t50.5 92
q0 88 -59 132t-176 44q-130 0 -196 -50.5t-68 -150.5h-174q8 177 120 265.5t328 88.5q199 0 298.5 -72.5t99.5 -217.5v-545q0 -73 9 -96t46 -23q22 0 53 10v-135q-47 -29 -125 -29q-74 0 -110.5 41t-36.5 123zM631 1499h223l-269 -293h-131z" />
    <glyph glyph-name="acircumflex" unicode="&#xe2;" horiz-adv-x="1100" 
d="M786 547q-41 -34 -197 -54q-141 -19 -199.5 -36.5t-95 -59.5t-36.5 -112q0 -72 52.5 -114t152.5 -42q150 0 236.5 73.5t86.5 166.5v178zM797 139q-69 -82 -162 -123t-211 -41q-167 0 -258.5 77.5t-91.5 219.5q0 156 102.5 235t392.5 113q118 13 168.5 42t50.5 92
q0 88 -59 132t-176 44q-130 0 -196 -50.5t-68 -150.5h-174q8 177 120 265.5t328 88.5q199 0 298.5 -72.5t99.5 -217.5v-545q0 -73 9 -96t46 -23q22 0 53 10v-135q-47 -29 -125 -29q-74 0 -110.5 41t-36.5 123zM553 1403l-143 -197h-158l211 293h191l213 -293h-173z" />
    <glyph glyph-name="atilde" unicode="&#xe3;" horiz-adv-x="1100" 
d="M786 547q-41 -34 -197 -54q-141 -19 -199.5 -36.5t-95 -59.5t-36.5 -112q0 -72 52.5 -114t152.5 -42q150 0 236.5 73.5t86.5 166.5v178zM797 139q-69 -82 -162 -123t-211 -41q-167 0 -258.5 77.5t-91.5 219.5q0 156 102.5 235t392.5 113q118 13 168.5 42t50.5 92
q0 88 -59 132t-176 44q-130 0 -196 -50.5t-68 -150.5h-174q8 177 120 265.5t328 88.5q199 0 298.5 -72.5t99.5 -217.5v-545q0 -73 9 -96t46 -23q22 0 53 10v-135q-47 -29 -125 -29q-74 0 -110.5 41t-36.5 123zM912 1468q-21 -114 -73 -170.5t-134 -56.5q-59 0 -154 41
q-103 39 -135 39q-69 0 -100 -86h-107q25 112 79 168.5t138 56.5q56 0 150 -41q91 -41 135 -41q68 0 94 90h107z" />
    <glyph glyph-name="adieresis" unicode="&#xe4;" horiz-adv-x="1100" 
d="M786 547q-41 -34 -197 -54q-141 -19 -199.5 -36.5t-95 -59.5t-36.5 -112q0 -72 52.5 -114t152.5 -42q150 0 236.5 73.5t86.5 166.5v178zM797 139q-69 -82 -162 -123t-211 -41q-167 0 -258.5 77.5t-91.5 219.5q0 156 102.5 235t392.5 113q118 13 168.5 42t50.5 92
q0 88 -59 132t-176 44q-130 0 -196 -50.5t-68 -150.5h-174q8 177 120 265.5t328 88.5q199 0 298.5 -72.5t99.5 -217.5v-545q0 -73 9 -96t46 -23q22 0 53 10v-135q-47 -29 -125 -29q-74 0 -110.5 41t-36.5 123zM658 1446h184v-213h-184v213zM273 1446h184v-213h-184v213z" />
    <glyph glyph-name="aring" unicode="&#xe5;" horiz-adv-x="1100" 
d="M786 547q-41 -34 -197 -54q-141 -19 -199.5 -36.5t-95 -59.5t-36.5 -112q0 -72 52.5 -114t152.5 -42q150 0 236.5 73.5t86.5 166.5v178zM797 139q-69 -82 -162 -123t-211 -41q-167 0 -258.5 77.5t-91.5 219.5q0 156 102.5 235t392.5 113q118 13 168.5 42t50.5 92
q0 88 -59 132t-176 44q-130 0 -196 -50.5t-68 -150.5h-174q8 177 120 265.5t328 88.5q199 0 298.5 -72.5t99.5 -217.5v-545q0 -73 9 -96t46 -23q22 0 53 10v-135q-47 -29 -125 -29q-74 0 -110.5 41t-36.5 123zM557 1154q-93 0 -161 68t-68 162q0 95 68.5 161.5t160.5 66.5
q91 0 160 -66.5t69 -161.5t-68.5 -162.5t-160.5 -67.5zM557 1242q60 0 100.5 40t40.5 100q0 59 -40.5 100.5t-100.5 41.5q-59 0 -100 -41.5t-41 -100.5q0 -60 41 -100t100 -40z" />
    <glyph glyph-name="ae" unicode="&#xe6;" horiz-adv-x="1782" 
d="M956 477q0 -153 83.5 -250.5t234.5 -97.5q98 0 171 50t97 155h178q-39 -174 -158.5 -266.5t-299.5 -92.5q-292 0 -383 207q-115 -207 -447 -207q-172 0 -265 77t-93 220q0 101 41 166.5t120.5 105.5t361.5 83q104 15 150 43t46 96q0 164 -240 164q-260 0 -264 -201h-174
q17 354 448 354q278 0 355 -153q53 82 147 117.5t190 35.5q478 0 478 -606h-777zM1548 631q-6 137 -85 218t-208 81q-135 0 -217 -83.5t-82 -215.5h592zM793 547q-40 -30 -235 -57q-200 -29 -250 -80t-50 -125q0 -72 52.5 -114t152.5 -42q153 0 241.5 75t88.5 165v178z" />
    <glyph glyph-name="ccedilla" unicode="&#xe7;" horiz-adv-x="1100" 
d="M369 -262q68 -27 133 -27q119 0 119 56q0 57 -96 57q-41 0 -84 -16l-35 57l104 113q-205 18 -320.5 161.5t-115.5 376.5q0 259 133 413t366 154q199 0 319 -96t138 -268h-180q-47 211 -262 211q-162 0 -246 -109.5t-84 -304.5q0 -170 80.5 -278.5t228.5 -108.5
q255 0 291 258h178q-60 -397 -442 -411l-63 -70l4 -4q29 15 78 15q68 0 115 -34t47 -100q0 -75 -73 -119.5t-181 -44.5q-93 0 -189 39z" />
    <glyph glyph-name="egrave" unicode="&#xe8;" horiz-adv-x="1100" 
d="M866 631q-11 136 -97 217.5t-208 81.5q-126 0 -209.5 -82.5t-93.5 -216.5h608zM582 -25q-248 0 -378 160t-130 397q0 242 141.5 396.5t355.5 154.5q229 0 354.5 -168t125.5 -438h-793q0 -159 87.5 -253.5t242.5 -94.5q115 0 183.5 51.5t90.5 155.5h172
q-35 -178 -153.5 -269.5t-298.5 -91.5zM268 1499h223l176 -293h-131z" />
    <glyph glyph-name="eacute" unicode="&#xe9;" horiz-adv-x="1100" 
d="M866 631q-11 136 -97 217.5t-208 81.5q-126 0 -209.5 -82.5t-93.5 -216.5h608zM582 -25q-248 0 -378 160t-130 397q0 242 141.5 396.5t355.5 154.5q229 0 354.5 -168t125.5 -438h-793q0 -159 87.5 -253.5t242.5 -94.5q115 0 183.5 51.5t90.5 155.5h172
q-35 -178 -153.5 -269.5t-298.5 -91.5zM650 1499h223l-269 -293h-131z" />
    <glyph glyph-name="ecircumflex" unicode="&#xea;" horiz-adv-x="1100" 
d="M866 631q-11 136 -97 217.5t-208 81.5q-126 0 -209.5 -82.5t-93.5 -216.5h608zM582 -25q-248 0 -378 160t-130 397q0 242 141.5 396.5t355.5 154.5q229 0 354.5 -168t125.5 -438h-793q0 -159 87.5 -253.5t242.5 -94.5q115 0 183.5 51.5t90.5 155.5h172
q-35 -178 -153.5 -269.5t-298.5 -91.5zM571 1403l-143 -197h-158l211 293h191l213 -293h-173z" />
    <glyph glyph-name="edieresis" unicode="&#xeb;" horiz-adv-x="1100" 
d="M866 631q-11 136 -97 217.5t-208 81.5q-126 0 -209.5 -82.5t-93.5 -216.5h608zM582 -25q-248 0 -378 160t-130 397q0 242 141.5 396.5t355.5 154.5q229 0 354.5 -168t125.5 -438h-793q0 -159 87.5 -253.5t242.5 -94.5q115 0 183.5 51.5t90.5 155.5h172
q-35 -178 -153.5 -269.5t-298.5 -91.5zM676 1446h184v-213h-184v213zM291 1446h184v-213h-184v213z" />
    <glyph glyph-name="igrave" unicode="&#xec;" horiz-adv-x="455" 
d="M141 0v1059h174v-1059h-174zM-77 1499h223l176 -293h-131z" />
    <glyph glyph-name="iacute" unicode="&#xed;" horiz-adv-x="455" 
d="M141 0v1059h174v-1059h-174zM304 1499h223l-269 -293h-131z" />
    <glyph glyph-name="icircumflex" unicode="&#xee;" horiz-adv-x="455" 
d="M141 0v1059h174v-1059h-174zM225 1403l-143 -197h-158l211 293h191l213 -293h-173z" />
    <glyph glyph-name="idieresis" unicode="&#xef;" horiz-adv-x="455" 
d="M141 0v1059h174v-1059h-174zM328 1446h184v-213h-184v213zM-57 1446h184v-213h-184v213z" />
    <glyph glyph-name="eth" unicode="&#xf0;" horiz-adv-x="1176" 
d="M842 922h4q-99 198 -250 309l-236 -111l-77 82l223 105q-58 50 -144 98l144 92q111 -77 158 -115l245 115l72 -76l-236 -108q357 -291 357 -785q0 -248 -139.5 -400.5t-374.5 -152.5q-236 0 -375 152t-139 401q0 217 133.5 362.5t349.5 145.5q186 0 285 -114zM258 528
q0 -186 94 -292.5t236 -106.5t236 107.5t94 291.5q0 159 -88.5 257t-251.5 98q-158 0 -239 -98.5t-81 -256.5z" />
    <glyph glyph-name="ntilde" unicode="&#xf1;" 
d="M1008 696v-696h-174v717q0 98 -57.5 155.5t-158.5 57.5q-151 0 -232 -91t-81 -241v-598h-174v1059h164v-168q58 96 144 144t204 48q182 0 273.5 -97t91.5 -290zM930 1468q-21 -114 -73 -170.5t-134 -56.5q-59 0 -154 41q-103 39 -135 39q-69 0 -100 -86h-107
q25 112 79 168.5t138 56.5q56 0 150 -41q91 -41 135 -41q68 0 94 90h107z" />
    <glyph glyph-name="ograve" unicode="&#xf2;" horiz-adv-x="1176" 
d="M588 -25q-236 0 -375 152t-139 401q0 253 139.5 404t374.5 151q234 0 374 -152t140 -403q0 -248 -139.5 -400.5t-374.5 -152.5zM588 129q142 0 236 107.5t94 291.5t-93.5 293t-236.5 109q-144 0 -237 -108.5t-93 -293.5q0 -186 94 -292.5t236 -106.5zM279 1499h223
l176 -293h-131z" />
    <glyph glyph-name="oacute" unicode="&#xf3;" horiz-adv-x="1176" 
d="M588 -25q-236 0 -375 152t-139 401q0 253 139.5 404t374.5 151q234 0 374 -152t140 -403q0 -248 -139.5 -400.5t-374.5 -152.5zM588 129q142 0 236 107.5t94 291.5t-93.5 293t-236.5 109q-144 0 -237 -108.5t-93 -293.5q0 -186 94 -292.5t236 -106.5zM668 1499h223
l-269 -293h-131z" />
    <glyph glyph-name="ocircumflex" unicode="&#xf4;" horiz-adv-x="1176" 
d="M588 -25q-236 0 -375 152t-139 401q0 253 139.5 404t374.5 151q234 0 374 -152t140 -403q0 -248 -139.5 -400.5t-374.5 -152.5zM588 129q142 0 236 107.5t94 291.5t-93.5 293t-236.5 109q-144 0 -237 -108.5t-93 -293.5q0 -186 94 -292.5t236 -106.5zM586 1403l-143 -197
h-158l211 293h191l213 -293h-173z" />
    <glyph glyph-name="otilde" unicode="&#xf5;" horiz-adv-x="1176" 
d="M588 -25q-236 0 -375 152t-139 401q0 253 139.5 404t374.5 151q234 0 374 -152t140 -403q0 -248 -139.5 -400.5t-374.5 -152.5zM588 129q142 0 236 107.5t94 291.5t-93.5 293t-236.5 109q-144 0 -237 -108.5t-93 -293.5q0 -186 94 -292.5t236 -106.5zM944 1468
q-21 -114 -73 -170.5t-134 -56.5q-59 0 -154 41q-103 39 -135 39q-69 0 -100 -86h-107q25 112 79 168.5t138 56.5q56 0 150 -41q91 -41 135 -41q68 0 94 90h107z" />
    <glyph glyph-name="odieresis" unicode="&#xf6;" horiz-adv-x="1176" 
d="M588 -25q-236 0 -375 152t-139 401q0 253 139.5 404t374.5 151q234 0 374 -152t140 -403q0 -248 -139.5 -400.5t-374.5 -152.5zM588 129q142 0 236 107.5t94 291.5t-93.5 293t-236.5 109q-144 0 -237 -108.5t-93 -293.5q0 -186 94 -292.5t236 -106.5zM690 1446h184v-213
h-184v213zM305 1446h184v-213h-184v213z" />
    <glyph glyph-name="divide" unicode="&#xf7;" horiz-adv-x="1229" 
d="M1130 448h-1032v140h1032v-140zM616 -35q-53 0 -93 39t-40 92q0 54 39 92.5t92 38.5q54 0 92.5 -38.5t38.5 -92.5q0 -49 -38.5 -90t-90.5 -41zM616 805q-53 0 -93 39t-40 92q0 54 39 92.5t92 38.5q54 0 92.5 -38.5t38.5 -92.5q0 -49 -38.5 -90t-90.5 -41z" />
    <glyph glyph-name="oslash" unicode="&#xf8;" horiz-adv-x="1176" 
d="M983 907q119 -144 119 -379q0 -248 -139.5 -400.5t-374.5 -152.5q-202 0 -338 117l-123 -137l-57 49l127 141q-123 151 -123 383q0 253 139.5 404t374.5 151q210 0 344 -120l119 133l55 -54zM815 834q-90 96 -227 96q-144 0 -237 -108.5t-93 -293.5q0 -134 61 -247z
M365 221q92 -92 223 -92q142 0 236 107.5t94 291.5q0 142 -58 244z" />
    <glyph glyph-name="ugrave" unicode="&#xf9;" 
d="M844 168q-57 -97 -144 -145t-204 -48q-183 0 -274 96.5t-91 290.5v697h174v-717q0 -98 57.5 -155.5t157.5 -57.5q152 0 233 91t81 241v598h174v-1059h-164v168zM262 1499h223l176 -293h-131z" />
    <glyph glyph-name="uacute" unicode="&#xfa;" 
d="M844 168q-57 -97 -144 -145t-204 -48q-183 0 -274 96.5t-91 290.5v697h174v-717q0 -98 57.5 -155.5t157.5 -57.5q152 0 233 91t81 241v598h174v-1059h-164v168zM644 1499h223l-269 -293h-131z" />
    <glyph glyph-name="ucircumflex" unicode="&#xfb;" 
d="M844 168q-57 -97 -144 -145t-204 -48q-183 0 -274 96.5t-91 290.5v697h174v-717q0 -98 57.5 -155.5t157.5 -57.5q152 0 233 91t81 241v598h174v-1059h-164v168zM565 1403l-143 -197h-158l211 293h191l213 -293h-173z" />
    <glyph glyph-name="udieresis" unicode="&#xfc;" 
d="M844 168q-57 -97 -144 -145t-204 -48q-183 0 -274 96.5t-91 290.5v697h174v-717q0 -98 57.5 -155.5t157.5 -57.5q152 0 233 91t81 241v598h174v-1059h-164v168zM670 1446h184v-213h-184v213zM285 1446h184v-213h-184v213z" />
    <glyph glyph-name="yacute" unicode="&#xfd;" horiz-adv-x="1024" 
d="M564 -98q-61 -159 -128.5 -221t-178.5 -62q-72 0 -121 18v160q71 -24 102 -24q93 0 144 96l54 137l-420 1053h197l311 -870l299 870h185zM596 1499h223l-269 -293h-131z" />
    <glyph glyph-name="thorn" unicode="&#xfe;" horiz-adv-x="1214" 
d="M311 915h4q81 168 338 168q227 0 357.5 -157.5t130.5 -399.5q0 -246 -129.5 -398.5t-354.5 -152.5q-103 0 -198.5 44t-143.5 122h-4v-522h-174v1843h174v-547zM629 930q-152 0 -238 -110t-86 -290q0 -183 88 -292t246 -109q152 0 234.5 108t82.5 302q0 171 -87 281
t-240 110z" />
    <glyph glyph-name="ydieresis" unicode="&#xff;" horiz-adv-x="1024" 
d="M564 -98q-61 -159 -128.5 -221t-178.5 -62q-72 0 -121 18v160q71 -24 102 -24q93 0 144 96l54 137l-420 1053h197l311 -870l299 870h185zM623 1446h184v-213h-184v213zM238 1446h184v-213h-184v213z" />
    <glyph glyph-name="Amacron" unicode="&#x100;" horiz-adv-x="1327" 
d="M906 507l-245 549l-248 -549h493zM1128 0l-152 343h-633l-157 -343h-200l571 1230h215l571 -1230h-215zM317 1554h699v-113h-699v113z" />
    <glyph glyph-name="amacron" unicode="&#x101;" horiz-adv-x="1100" 
d="M786 547q-41 -34 -197 -54q-141 -19 -199.5 -36.5t-95 -59.5t-36.5 -112q0 -72 52.5 -114t152.5 -42q150 0 236.5 73.5t86.5 166.5v178zM797 139q-69 -82 -162 -123t-211 -41q-167 0 -258.5 77.5t-91.5 219.5q0 156 102.5 235t392.5 113q118 13 168.5 42t50.5 92
q0 88 -59 132t-176 44q-130 0 -196 -50.5t-68 -150.5h-174q8 177 120 265.5t328 88.5q199 0 298.5 -72.5t99.5 -217.5v-545q0 -73 9 -96t46 -23q22 0 53 10v-135q-47 -29 -125 -29q-74 0 -110.5 41t-36.5 123zM209 1397h699v-113h-699v113z" />
    <glyph glyph-name="Abreve" unicode="&#x102;" horiz-adv-x="1327" 
d="M906 507l-245 549l-248 -549h493zM1128 0l-152 343h-633l-157 -343h-200l571 1230h215l571 -1230h-215zM448 1650q24 -85 81.5 -127.5t148.5 -42.5q88 0 130 46t72 124h105q-27 -142 -108 -212.5t-216 -70.5q-137 0 -215.5 70.5t-99.5 212.5h102z" />
    <glyph glyph-name="abreve" unicode="&#x103;" horiz-adv-x="1100" 
d="M786 547q-41 -34 -197 -54q-141 -19 -199.5 -36.5t-95 -59.5t-36.5 -112q0 -72 52.5 -114t152.5 -42q150 0 236.5 73.5t86.5 166.5v178zM797 139q-69 -82 -162 -123t-211 -41q-167 0 -258.5 77.5t-91.5 219.5q0 156 102.5 235t392.5 113q118 13 168.5 42t50.5 92
q0 88 -59 132t-176 44q-130 0 -196 -50.5t-68 -150.5h-174q8 177 120 265.5t328 88.5q199 0 298.5 -72.5t99.5 -217.5v-545q0 -73 9 -96t46 -23q22 0 53 10v-135q-47 -29 -125 -29q-74 0 -110.5 41t-36.5 123zM340 1493q24 -85 81.5 -127.5t148.5 -42.5q88 0 130 46t72 124
h105q-27 -142 -108 -212.5t-216 -70.5q-137 0 -215.5 70.5t-99.5 212.5h102z" />
    <glyph glyph-name="Aogonek" unicode="&#x104;" horiz-adv-x="1327" 
d="M1211 0q-172 -120 -172 -206q0 -73 84 -73q72 0 121 62l65 -37q-70 -127 -221 -127q-78 0 -133 33t-55 105q0 125 228 243l-162 440h-613l-167 -440h-200l571 1462h215l571 -1462h-132zM412 604h495l-243 682h-5z" />
    <glyph glyph-name="aogonek" unicode="&#x105;" horiz-adv-x="1100" 
d="M1069 4q-58 -35 -146 -28q-138 -105 -138 -182q0 -73 84 -73q72 0 121 62l65 -37q-70 -127 -221 -127q-78 0 -133 33t-55 105q0 123 217 237q-66 38 -66 145q-137 -164 -373 -164q-167 0 -258.5 77.5t-91.5 219.5q0 156 102.5 235t392.5 113q118 13 168.5 42t50.5 92
q0 176 -235 176q-260 0 -264 -201h-174q17 354 448 354q398 0 398 -290v-545q0 -73 9 -96t46 -23q22 0 53 10v-135zM786 547q-41 -34 -197 -54q-141 -19 -199.5 -36.5t-95 -59.5t-36.5 -112q0 -72 52.5 -114t152.5 -42q150 0 236.5 73.5t86.5 166.5v178z" />
    <glyph glyph-name="Cacute" unicode="&#x106;" horiz-adv-x="1479" 
d="M764 -35q-317 0 -496.5 176t-179.5 467q0 284 185.5 467t506.5 183q239 0 404.5 -105.5t197.5 -296.5h-194q-33 119 -144.5 178.5t-265.5 59.5q-235 0 -365 -132.5t-130 -341.5q0 -228 131 -359.5t366 -131.5q175 0 291 87t131 244h195q-29 -234 -191 -364.5t-442 -130.5
zM857 1656h223l-269 -293h-131z" />
    <glyph glyph-name="cacute" unicode="&#x107;" horiz-adv-x="1100" 
d="M569 -25q-230 0 -362.5 145t-132.5 396q0 259 133 413t366 154q199 0 319 -96t138 -268h-180q-24 105 -89.5 158t-172.5 53q-162 0 -246 -109.5t-84 -304.5q0 -170 80.5 -278.5t228.5 -108.5q127 0 200 64.5t91 193.5h178q-32 -206 -148.5 -309t-318.5 -103zM656 1499
h223l-269 -293h-131z" />
    <glyph glyph-name="Ccircumflex" unicode="&#x108;" horiz-adv-x="1479" 
d="M764 -35q-317 0 -496.5 176t-179.5 467q0 284 185.5 467t506.5 183q239 0 404.5 -105.5t197.5 -296.5h-194q-33 119 -144.5 178.5t-265.5 59.5q-235 0 -365 -132.5t-130 -341.5q0 -228 131 -359.5t366 -131.5q175 0 291 87t131 244h195q-29 -234 -191 -364.5t-442 -130.5
zM774 1560l-143 -197h-158l211 293h191l213 -293h-173z" />
    <glyph glyph-name="ccircumflex" unicode="&#x109;" horiz-adv-x="1100" 
d="M569 -25q-230 0 -362.5 145t-132.5 396q0 259 133 413t366 154q199 0 319 -96t138 -268h-180q-24 105 -89.5 158t-172.5 53q-162 0 -246 -109.5t-84 -304.5q0 -170 80.5 -278.5t228.5 -108.5q127 0 200 64.5t91 193.5h178q-32 -206 -148.5 -309t-318.5 -103zM577 1403
l-143 -197h-158l211 293h191l213 -293h-173z" />
    <glyph glyph-name="Cdotaccent" unicode="&#x10a;" horiz-adv-x="1479" 
d="M764 -35q-317 0 -496.5 176t-179.5 467q0 284 185.5 467t506.5 183q239 0 404.5 -105.5t197.5 -296.5h-194q-33 119 -144.5 178.5t-265.5 59.5q-235 0 -365 -132.5t-130 -341.5q0 -228 131 -359.5t366 -131.5q175 0 291 87t131 244h195q-29 -234 -191 -364.5t-442 -130.5
zM870 1430h-184v213h184v-213z" />
    <glyph glyph-name="cdotaccent" unicode="&#x10b;" horiz-adv-x="1100" 
d="M569 -25q-230 0 -362.5 145t-132.5 396q0 259 133 413t366 154q199 0 319 -96t138 -268h-180q-24 105 -89.5 158t-172.5 53q-162 0 -246 -109.5t-84 -304.5q0 -170 80.5 -278.5t228.5 -108.5q127 0 200 64.5t91 193.5h178q-32 -206 -148.5 -309t-318.5 -103zM673 1217
h-184v213h184v-213z" />
    <glyph glyph-name="Ccaron" unicode="&#x10c;" horiz-adv-x="1479" 
d="M764 -35q-317 0 -496.5 176t-179.5 467q0 284 185.5 467t506.5 183q239 0 404.5 -105.5t197.5 -296.5h-194q-33 119 -144.5 178.5t-265.5 59.5q-235 0 -365 -132.5t-130 -341.5q0 -228 131 -359.5t366 -131.5q175 0 291 87t131 244h195q-29 -234 -191 -364.5t-442 -130.5
zM784 1460l144 196h158l-211 -293h-191l-213 293h172z" />
    <glyph glyph-name="ccaron" unicode="&#x10d;" horiz-adv-x="1100" 
d="M569 -25q-230 0 -362.5 145t-132.5 396q0 259 133 413t366 154q199 0 319 -96t138 -268h-180q-24 105 -89.5 158t-172.5 53q-162 0 -246 -109.5t-84 -304.5q0 -170 80.5 -278.5t228.5 -108.5q127 0 200 64.5t91 193.5h178q-32 -206 -148.5 -309t-318.5 -103zM579 1303
l144 196h158l-211 -293h-191l-213 293h172z" />
    <glyph glyph-name="Dcaron" unicode="&#x10e;" horiz-adv-x="1442" 
d="M160 0v1230h502q337 0 519.5 -145.5t182.5 -441.5q0 -322 -175.5 -482.5t-526.5 -160.5h-502zM354 164h324q232 0 361.5 116t129.5 340q0 223 -122 334.5t-365 111.5h-328v-902zM651 1460l144 196h158l-211 -293h-191l-213 293h172z" />
    <glyph glyph-name="dcaron" unicode="&#x10f;" horiz-adv-x="1214" 
d="M1077 0h-174v143q-43 -84 -128.5 -126t-213.5 -42q-225 0 -356 157t-131 400q0 248 130 399.5t353 151.5q106 0 200.5 -43.5t145.5 -121.5v544h174v-1462zM586 129q153 0 238 110.5t85 288.5q0 183 -87.5 292.5t-246.5 109.5q-155 0 -236 -112t-81 -298q0 -169 87.5 -280
t240.5 -111zM1233 1462h223l-153 -293h-123z" />
    <glyph glyph-name="Dcroat" unicode="&#x110;" horiz-adv-x="1442" 
d="M160 698h-144v131h144v633h502q337 0 519.5 -172t182.5 -524q0 -766 -702 -766h-502v698zM354 829h439v-131h-439v-534h324q232 0 361.5 146.5t129.5 428.5q0 290 -121.5 424.5t-365.5 134.5h-328v-469z" />
    <glyph glyph-name="dcroat" unicode="&#x111;" horiz-adv-x="1225" 
d="M555 1303h348v159h174v-159h176v-109h-176v-1194h-174v143h-4q-82 -168 -338 -168q-225 0 -356 157t-131 400q0 248 130 399.5t353 151.5q106 0 200.5 -43.5t141.5 -121.5h4v276h-348v109zM586 129q153 0 238 110.5t85 288.5q0 183 -87.5 292.5t-246.5 109.5
q-155 0 -236 -112t-81 -298q0 -169 87.5 -280t240.5 -111z" />
    <glyph glyph-name="Emacron" unicode="&#x112;" horiz-adv-x="1251" 
d="M160 0v1230h1009v-164h-815v-349h760v-164h-760v-389h822v-164h-1016zM305 1554h699v-113h-699v113z" />
    <glyph glyph-name="emacron" unicode="&#x113;" horiz-adv-x="1100" 
d="M866 631q-11 136 -97 217.5t-208 81.5q-126 0 -209.5 -82.5t-93.5 -216.5h608zM582 -25q-248 0 -378 160t-130 397q0 242 141.5 396.5t355.5 154.5q229 0 354.5 -168t125.5 -438h-793q0 -159 87.5 -253.5t242.5 -94.5q115 0 183.5 51.5t90.5 155.5h172
q-35 -178 -153.5 -269.5t-298.5 -91.5zM227 1397h699v-113h-699v113z" />
    <glyph glyph-name="Ebreve" unicode="&#x114;" horiz-adv-x="1251" 
d="M160 0v1230h1009v-164h-815v-349h760v-164h-760v-389h822v-164h-1016zM436 1650q24 -85 81.5 -127.5t148.5 -42.5q88 0 130 46t72 124h105q-27 -142 -108 -212.5t-216 -70.5q-137 0 -215.5 70.5t-99.5 212.5h102z" />
    <glyph glyph-name="ebreve" unicode="&#x115;" horiz-adv-x="1100" 
d="M866 631q-11 136 -97 217.5t-208 81.5q-126 0 -209.5 -82.5t-93.5 -216.5h608zM582 -25q-248 0 -378 160t-130 397q0 242 141.5 396.5t355.5 154.5q229 0 354.5 -168t125.5 -438h-793q0 -159 87.5 -253.5t242.5 -94.5q115 0 183.5 51.5t90.5 155.5h172
q-35 -178 -153.5 -269.5t-298.5 -91.5zM358 1493q24 -85 81.5 -127.5t148.5 -42.5q88 0 130 46t72 124h105q-27 -142 -108 -212.5t-216 -70.5q-137 0 -215.5 70.5t-99.5 212.5h102z" />
    <glyph glyph-name="Edotaccent" unicode="&#x116;" horiz-adv-x="1251" 
d="M160 0v1230h1009v-164h-815v-349h760v-164h-760v-389h822v-164h-1016zM745 1430h-184v213h184v-213z" />
    <glyph glyph-name="edotaccent" unicode="&#x117;" horiz-adv-x="1100" 
d="M866 631q-11 136 -97 217.5t-208 81.5q-126 0 -209.5 -82.5t-93.5 -216.5h608zM582 -25q-248 0 -378 160t-130 397q0 242 141.5 396.5t355.5 154.5q229 0 354.5 -168t125.5 -438h-793q0 -159 87.5 -253.5t242.5 -94.5q115 0 183.5 51.5t90.5 155.5h172
q-35 -178 -153.5 -269.5t-298.5 -91.5zM667 1217h-184v213h184v-213z" />
    <glyph glyph-name="Eogonek" unicode="&#x118;" horiz-adv-x="1251" 
d="M1079 0q-172 -120 -172 -206q0 -73 84 -73q72 0 121 62l65 -37q-70 -127 -221 -127q-78 0 -133 33t-55 105q0 126 229 243h-837v1462h1009v-164h-815v-464h760v-164h-760v-506h822v-164h-97z" />
    <glyph glyph-name="eogonek" unicode="&#x119;" horiz-adv-x="1100" 
d="M1034 336q-66 -328 -400 -359q-139 -103 -139 -183q0 -73 84 -73q72 0 121 62l65 -37q-70 -127 -221 -127q-78 0 -133 33t-55 105q0 113 184 219q-234 16 -350 175.5t-116 380.5q0 242 141.5 396.5t355.5 154.5q229 0 354.5 -168t125.5 -438h-793q0 -159 87.5 -253.5
t242.5 -94.5q231 0 274 207h172zM866 631q-11 136 -97 217.5t-208 81.5q-126 0 -209.5 -82.5t-93.5 -216.5h608z" />
    <glyph glyph-name="Ecaron" unicode="&#x11a;" horiz-adv-x="1251" 
d="M160 0v1230h1009v-164h-815v-349h760v-164h-760v-389h822v-164h-1016zM659 1460l144 196h158l-211 -293h-191l-213 293h172z" />
    <glyph glyph-name="ecaron" unicode="&#x11b;" horiz-adv-x="1100" 
d="M866 631q-11 136 -97 217.5t-208 81.5q-126 0 -209.5 -82.5t-93.5 -216.5h608zM582 -25q-248 0 -378 160t-130 397q0 242 141.5 396.5t355.5 154.5q229 0 354.5 -168t125.5 -438h-793q0 -159 87.5 -253.5t242.5 -94.5q115 0 183.5 51.5t90.5 155.5h172
q-35 -178 -153.5 -269.5t-298.5 -91.5zM577 1303l144 196h158l-211 -293h-191l-213 293h172z" />
    <glyph glyph-name="Gcircumflex" unicode="&#x11c;" horiz-adv-x="1554" 
d="M784 -35q-305 0 -500.5 181t-195.5 441q0 293 187.5 481.5t508.5 188.5q268 0 431 -107.5t198 -299.5h-194q-30 122 -147 182.5t-288 60.5q-237 0 -369 -139.5t-132 -356.5q0 -199 137 -333.5t364 -134.5q217 0 346.5 99.5t122.5 255.5h-467v164h641v-648h-122l-55 136
q-77 -86 -193.5 -128.5t-272.5 -42.5zM786 1560l-143 -197h-158l211 293h191l213 -293h-173z" />
    <glyph glyph-name="gcircumflex" unicode="&#x11d;" horiz-adv-x="1176" 
d="M1044 122q0 -253 -118.5 -378t-372.5 -125q-182 0 -306.5 75.5t-131.5 213.5h174q3 -70 86 -110t188 -40q159 0 238.5 88.5t79.5 264.5v69q-50 -98 -141 -145t-193 -47q-219 0 -346 150t-127 386q0 241 127 400t362 159q110 0 189.5 -44t128.5 -132v152h163v-937z
M872 551q0 169 -79 274t-222 105q-148 0 -230.5 -104.5t-82.5 -280.5q0 -182 76.5 -293t222.5 -111q152 0 233.5 115.5t81.5 294.5zM581 1403l-143 -197h-158l211 293h191l213 -293h-173z" />
    <glyph glyph-name="Gbreve" unicode="&#x11e;" horiz-adv-x="1554" 
d="M784 -35q-305 0 -500.5 181t-195.5 441q0 293 187.5 481.5t508.5 188.5q268 0 431 -107.5t198 -299.5h-194q-30 122 -147 182.5t-288 60.5q-237 0 -369 -139.5t-132 -356.5q0 -199 137 -333.5t364 -134.5q217 0 346.5 99.5t122.5 255.5h-467v164h641v-648h-122l-55 136
q-77 -86 -193.5 -128.5t-272.5 -42.5zM573 1650q24 -85 81.5 -127.5t148.5 -42.5q88 0 130 46t72 124h105q-27 -142 -108 -212.5t-216 -70.5q-137 0 -215.5 70.5t-99.5 212.5h102z" />
    <glyph glyph-name="gbreve" unicode="&#x11f;" horiz-adv-x="1176" 
d="M1044 122q0 -253 -118.5 -378t-372.5 -125q-182 0 -306.5 75.5t-131.5 213.5h174q3 -70 86 -110t188 -40q159 0 238.5 88.5t79.5 264.5v69q-50 -98 -141 -145t-193 -47q-219 0 -346 150t-127 386q0 241 127 400t362 159q110 0 189.5 -44t128.5 -132v152h163v-937z
M872 551q0 169 -79 274t-222 105q-148 0 -230.5 -104.5t-82.5 -280.5q0 -182 76.5 -293t222.5 -111q152 0 233.5 115.5t81.5 294.5zM368 1493q24 -85 81.5 -127.5t148.5 -42.5q88 0 130 46t72 124h105q-27 -142 -108 -212.5t-216 -70.5q-137 0 -215.5 70.5t-99.5 212.5h102z
" />
    <glyph glyph-name="Gdotaccent" unicode="&#x120;" horiz-adv-x="1554" 
d="M784 -35q-305 0 -500.5 181t-195.5 441q0 293 187.5 481.5t508.5 188.5q268 0 431 -107.5t198 -299.5h-194q-30 122 -147 182.5t-288 60.5q-237 0 -369 -139.5t-132 -356.5q0 -199 137 -333.5t364 -134.5q217 0 346.5 99.5t122.5 255.5h-467v164h641v-648h-122l-55 136
q-77 -86 -193.5 -128.5t-272.5 -42.5zM880 1430h-184v213h184v-213z" />
    <glyph glyph-name="gdotaccent" unicode="&#x121;" horiz-adv-x="1176" 
d="M1044 122q0 -253 -118.5 -378t-372.5 -125q-182 0 -306.5 75.5t-131.5 213.5h174q3 -70 86 -110t188 -40q159 0 238.5 88.5t79.5 264.5v69q-50 -98 -141 -145t-193 -47q-219 0 -346 150t-127 386q0 241 127 400t362 159q110 0 189.5 -44t128.5 -132v152h163v-937z
M872 551q0 169 -79 274t-222 105q-148 0 -230.5 -104.5t-82.5 -280.5q0 -182 76.5 -293t222.5 -111q152 0 233.5 115.5t81.5 294.5zM677 1217h-184v213h184v-213z" />
    <glyph glyph-name="Gcommaaccent" unicode="&#x122;" horiz-adv-x="1554" 
d="M784 -35q-305 0 -500.5 214t-195.5 523q0 349 188 572t508 223q267 0 430.5 -128t198.5 -357h-194q-30 160 -146.5 240.5t-288.5 80.5q-237 0 -369 -174t-132 -446q0 -250 137 -417t364 -167q215 0 345.5 133t123.5 344h-467v164h641v-770h-122l-52 182
q-83 -109 -200.5 -163t-268.5 -54zM682 -381v72q51 0 66.5 14t15.5 46h-106v167h227v-144q0 -77 -51 -116t-152 -39z" />
    <glyph glyph-name="gcommaaccent" unicode="&#x123;" horiz-adv-x="1176" 
d="M1044 122q0 -253 -118.5 -378t-372.5 -125q-182 0 -306.5 75.5t-131.5 213.5h174q3 -70 86 -110t188 -40q159 0 238.5 88.5t79.5 264.5v69q-50 -98 -141 -145t-193 -47q-219 0 -346 150t-127 386q0 241 127 400t362 159q110 0 189.5 -44t128.5 -132v152h163v-937z
M872 551q0 169 -79 274t-222 105q-148 0 -230.5 -104.5t-82.5 -280.5q0 -182 76.5 -293t222.5 -111q152 0 233.5 115.5t81.5 294.5zM674 1610v-72q-53 -14 -67.5 -30.5t-14.5 -45.5h106v-180h-227v158q0 85 50.5 127.5t152.5 42.5z" />
    <glyph glyph-name="Hcircumflex" unicode="&#x124;" horiz-adv-x="1479" 
d="M160 0v1230h194v-513h770v513h195v-1230h-195v553h-770v-553h-194zM729 1560l-143 -197h-158l211 293h191l213 -293h-173z" />
    <glyph glyph-name="hcircumflex" unicode="&#x125;" 
d="M1008 600v-600h-174v602q0 82 -57.5 130.5t-158.5 48.5q-151 0 -232 -76.5t-81 -202.5v-502h-174v1230h174v-450q47 66 139.5 110t198.5 44q182 0 273.5 -83.5t91.5 -250.5zM218 1560l-143 -197h-158l211 293h191l213 -293h-173z" />
    <glyph glyph-name="Hbar" unicode="&#x126;" horiz-adv-x="1479" 
d="M160 1462h194v-295h770v295h195v-1462h-195v627h-770v-627h-194v1462zM1124 786v263h-770v-263h770z" />
    <glyph glyph-name="hbar" unicode="&#x127;" horiz-adv-x="1149" 
d="M-35 1194v109h176v159h174v-159h349v-109h-349v-291h4q37 86 130.5 133t203.5 47q365 0 365 -387v-696h-174v717q0 98 -57.5 155.5t-157.5 57.5q-152 0 -233 -91t-81 -241v-598h-174v1194h-176z" />
    <glyph glyph-name="Itilde" unicode="&#x128;" horiz-adv-x="530" 
d="M168 0v1230h194v-1230h-194zM623 1625q-21 -114 -73 -170.5t-134 -56.5q-59 0 -154 41q-103 39 -135 39q-69 0 -100 -86h-107q25 112 79 168.5t138 56.5q56 0 150 -41q91 -41 135 -41q68 0 94 90h107z" />
    <glyph glyph-name="itilde" unicode="&#x129;" horiz-adv-x="455" 
d="M141 0v1059h174v-1059h-174zM584 1468q-21 -114 -73 -170.5t-134 -56.5q-59 0 -154 41q-103 39 -135 39q-69 0 -100 -86h-107q25 112 79 168.5t138 56.5q56 0 150 -41q91 -41 135 -41q68 0 94 90h107z" />
    <glyph glyph-name="Imacron" unicode="&#x12a;" horiz-adv-x="530" 
d="M168 0v1230h194v-1230h-194zM-82 1554h699v-113h-699v113z" />
    <glyph glyph-name="imacron" unicode="&#x12b;" horiz-adv-x="455" 
d="M141 0v1059h174v-1059h-174zM-119 1397h699v-113h-699v113z" />
    <glyph glyph-name="Ibreve" unicode="&#x12c;" horiz-adv-x="530" 
d="M168 0v1230h194v-1230h-194zM49 1650q24 -85 81.5 -127.5t148.5 -42.5q88 0 130 46t72 124h105q-27 -142 -108 -212.5t-216 -70.5q-137 0 -215.5 70.5t-99.5 212.5h102z" />
    <glyph glyph-name="ibreve" unicode="&#x12d;" horiz-adv-x="455" 
d="M141 0v1059h174v-1059h-174zM12 1493q24 -85 81.5 -127.5t148.5 -42.5q88 0 130 46t72 124h105q-27 -142 -108 -212.5t-216 -70.5q-137 0 -215.5 70.5t-99.5 212.5h102z" />
    <glyph glyph-name="Iogonek" unicode="&#x12e;" horiz-adv-x="530" 
d="M362 0q-171 -122 -171 -206q0 -73 84 -73q72 0 121 62l65 -37q-70 -127 -221 -127q-78 0 -133 33t-55 105q0 126 229 243h-113v1462h194v-1462z" />
    <glyph glyph-name="iogonek" unicode="&#x12f;" horiz-adv-x="455" 
d="M315 1249h-174v213h174v-213zM315 0q-172 -120 -172 -206q0 -73 84 -73q72 0 121 62l65 -37q-70 -127 -221 -127q-78 0 -133 33t-55 105q0 126 229 243h-92v1059h174v-1059z" />
    <glyph glyph-name="Idotaccent" unicode="&#x130;" horiz-adv-x="530" 
d="M168 0v1230h194v-1230h-194zM358 1430h-184v213h184v-213z" />
    <glyph glyph-name="dotlessi" unicode="&#x131;" horiz-adv-x="455" 
d="M141 0v1059h174v-1059h-174z" />
    <glyph glyph-name="IJ" unicode="&#x132;" horiz-adv-x="1577" 
d="M168 0v1462h194v-1462h-194zM1417 365q0 -185 -111.5 -292.5t-320.5 -107.5q-205 0 -315.5 108.5t-110.5 317.5v90h195v-61q0 -155 56 -223t179 -68q133 0 183.5 71.5t50.5 192.5v1069h194v-1097z" />
    <glyph glyph-name="ij" unicode="&#x133;" horiz-adv-x="897" 
d="M315 1249h-174v213h174v-213zM141 0v1059h174v-1059h-174zM757 1249h-174v213h174v-213zM583 -81v1140h174v-1169q0 -135 -63.5 -203t-190.5 -68q-49 0 -90 9v149q42 -4 72 -4q57 0 77.5 32t20.5 114z" />
    <glyph glyph-name="Jcircumflex" unicode="&#x134;" horiz-adv-x="1063" 
d="M903 365q0 -185 -111.5 -292.5t-320.5 -107.5q-205 0 -315.5 108.5t-110.5 337.5h195q0 -145 55.5 -213.5t179.5 -68.5q133 0 183.5 71.5t50.5 192.5v837h194v-865zM794 1560l-143 -197h-158l211 293h191l213 -293h-173z" />
    <glyph glyph-name="jcircumflex" unicode="&#x135;" horiz-adv-x="455" 
d="M131 1499h191l213 -293h-173l-141 197l-143 -197h-158zM315 -110q0 -271 -254 -271q-49 0 -90 9v149q22 -4 35 -4h37q57 0 77.5 32t20.5 114v1140h174v-1169z" />
    <glyph glyph-name="Kcommaaccent" unicode="&#x136;" horiz-adv-x="1366" 
d="M160 1462h194v-729l742 729h252l-617 -590l641 -872h-246l-528 739l-244 -227v-512h-194v1462zM618 -381v72q51 0 66.5 14t15.5 46h-106v167h227v-144q0 -77 -51 -116t-152 -39z" />
    <glyph glyph-name="kcommaaccent" unicode="&#x137;" horiz-adv-x="1063" 
d="M141 1462h174v-866l484 463h233l-420 -385l451 -674h-221l-363 553l-164 -152v-401h-174v1462zM475 -381v72q51 0 66.5 14t15.5 46h-106v167h227v-144q0 -77 -51 -116t-152 -39z" />
    <glyph glyph-name="kgreenlandic" unicode="&#x138;" horiz-adv-x="1053" 
d="M131 1059h174v-463l483 463h234l-420 -385l451 -674h-222l-362 553l-164 -152v-401h-174v1059z" />
    <glyph glyph-name="Lacute" unicode="&#x139;" 
d="M160 1230h194v-1066h774v-164h-968v1230zM367 1656h223l-269 -293h-131z" />
    <glyph glyph-name="lacute" unicode="&#x13a;" horiz-adv-x="455" 
d="M141 1228h174v-1228h-174v1228zM310 1656h223l-269 -293h-131z" />
    <glyph glyph-name="Lcommaaccent" unicode="&#x13b;" 
d="M160 1462h194v-1298h774v-164h-968v1462zM542 -381v72q51 0 66.5 14t15.5 46h-106v167h227v-144q0 -77 -51 -116t-152 -39z" />
    <glyph glyph-name="lcommaaccent" unicode="&#x13c;" horiz-adv-x="455" 
d="M141 1462h174v-1462h-174v1462zM140 -381v72q51 0 66.5 14t15.5 46h-106v167h227v-144q0 -77 -51 -116t-152 -39z" />
    <glyph glyph-name="Lcaron" unicode="&#x13d;" 
d="M160 1462h194v-1298h774v-164h-968v1462zM618 1462h223l-153 -293h-123z" />
    <glyph glyph-name="lcaron" unicode="&#x13e;" horiz-adv-x="455" 
d="M141 1462h174v-1462h-174v1462zM471 1462h223l-153 -293h-123z" />
    <glyph glyph-name="Ldot" unicode="&#x13f;" 
d="M160 1462h194v-1298h774v-164h-968v1462zM829 671h-184v213h184v-213z" />
    <glyph glyph-name="ldot" unicode="&#x140;" horiz-adv-x="700" 
d="M141 1462h174v-1462h-174v1462zM645 671h-184v213h184v-213z" />
    <glyph glyph-name="Lslash" unicode="&#x141;" 
d="M160 492l-162 -115v155l162 115v815h194v-676l467 328v-156l-467 -327v-467h774v-164h-968v492z" />
    <glyph glyph-name="lslash" unicode="&#x142;" horiz-adv-x="455" 
d="M141 657l-143 -112v145l143 115v657h174v-520l144 115v-146l-144 -114v-797h-174v657z" />
    <glyph glyph-name="Nacute" unicode="&#x143;" horiz-adv-x="1479" 
d="M158 1230h207l774 -989v989h184v-1230h-213l-768 977v-977h-184v1230zM820 1656h223l-269 -293h-131z" />
    <glyph glyph-name="nacute" unicode="&#x144;" 
d="M1008 696v-696h-174v717q0 98 -57.5 155.5t-158.5 57.5q-151 0 -232 -91t-81 -241v-598h-174v1059h164v-168q58 96 144 144t204 48q182 0 273.5 -97t91.5 -290zM650 1499h223l-269 -293h-131z" />
    <glyph glyph-name="Ncommaaccent" unicode="&#x145;" horiz-adv-x="1479" 
d="M158 1462h207l774 -1186v1186h184v-1462h-213l-768 1174v-1174h-184v1462zM645 -381v72q51 0 66.5 14t15.5 46h-106v167h227v-144q0 -77 -51 -116t-152 -39z" />
    <glyph glyph-name="ncommaaccent" unicode="&#x146;" 
d="M1008 696v-696h-174v717q0 98 -57.5 155.5t-158.5 57.5q-151 0 -232 -91t-81 -241v-598h-174v1059h164v-168q58 96 144 144t204 48q182 0 273.5 -97t91.5 -290zM477 -381v72q51 0 66.5 14t15.5 46h-106v167h227v-144q0 -77 -51 -116t-152 -39z" />
    <glyph glyph-name="Ncaron" unicode="&#x147;" horiz-adv-x="1479" 
d="M158 1230h207l774 -989v989h184v-1230h-213l-768 977v-977h-184v1230zM741 1460l144 196h158l-211 -293h-191l-213 293h172z" />
    <glyph glyph-name="ncaron" unicode="&#x148;" 
d="M1008 696v-696h-174v717q0 98 -57.5 155.5t-158.5 57.5q-151 0 -232 -91t-81 -241v-598h-174v1059h164v-168q58 96 144 144t204 48q182 0 273.5 -97t91.5 -290zM577 1303l144 196h158l-211 -293h-191l-213 293h172z" />
    <glyph glyph-name="napostrophe" unicode="&#x149;" horiz-adv-x="1358" 
d="M1227 696v-696h-174v717q0 98 -57.5 155.5t-158.5 57.5q-151 0 -232 -91t-81 -241v-598h-174v1059h164v-168q58 96 144 144t204 48q182 0 273.5 -97t91.5 -290zM38 1462h227v-227q0 -141 -61.5 -221t-163.5 -80v102q119 0 119 199h-121v227z" />
    <glyph glyph-name="Eng" unicode="&#x14a;" horiz-adv-x="1479" 
d="M1139 -35l-793 1209h-4v-1174h-184v1462h207l770 -1186h4v1186h184v-1519q0 -160 -76.5 -242t-253.5 -82q-90 0 -155 19v160q82 -15 135 -15q101 0 133.5 44t32.5 138z" />
    <glyph glyph-name="eng" unicode="&#x14b;" 
d="M131 1059h164v-168h4q109 192 344 192q365 0 365 -387v-773q0 -304 -295 -304q-80 0 -133 15v149q70 -10 114 -10q78 0 109 37t31 141v766q0 98 -57.5 155.5t-158.5 57.5q-151 0 -232 -91t-81 -241v-598h-174v1059z" />
    <glyph glyph-name="Omacron" unicode="&#x14c;" horiz-adv-x="1556" 
d="M778 -35q-321 0 -510.5 184.5t-189.5 461.5q0 278 190 462t510 184q319 0 510 -184t191 -462t-190.5 -462t-510.5 -184zM778 129q240 0 373 138t133 344q0 209 -133.5 345.5t-372.5 136.5t-372.5 -138t-133.5 -344q0 -204 132.5 -343t373.5 -139zM432 1554h699v-113h-699
v113z" />
    <glyph glyph-name="omacron" unicode="&#x14d;" horiz-adv-x="1176" 
d="M588 -25q-236 0 -375 152t-139 401q0 253 139.5 404t374.5 151q234 0 374 -152t140 -403q0 -248 -139.5 -400.5t-374.5 -152.5zM588 129q142 0 236 107.5t94 291.5t-93.5 293t-236.5 109q-144 0 -237 -108.5t-93 -293.5q0 -186 94 -292.5t236 -106.5zM241 1397h699v-113
h-699v113z" />
    <glyph glyph-name="Obreve" unicode="&#x14e;" horiz-adv-x="1556" 
d="M778 -35q-321 0 -510.5 184.5t-189.5 461.5q0 278 190 462t510 184q319 0 510 -184t191 -462t-190.5 -462t-510.5 -184zM778 129q240 0 373 138t133 344q0 209 -133.5 345.5t-372.5 136.5t-372.5 -138t-133.5 -344q0 -204 132.5 -343t373.5 -139zM563 1650
q24 -85 81.5 -127.5t148.5 -42.5q88 0 130 46t72 124h105q-27 -142 -108 -212.5t-216 -70.5q-137 0 -215.5 70.5t-99.5 212.5h102z" />
    <glyph glyph-name="obreve" unicode="&#x14f;" horiz-adv-x="1176" 
d="M588 -25q-236 0 -375 152t-139 401q0 253 139.5 404t374.5 151q234 0 374 -152t140 -403q0 -248 -139.5 -400.5t-374.5 -152.5zM588 129q142 0 236 107.5t94 291.5t-93.5 293t-236.5 109q-144 0 -237 -108.5t-93 -293.5q0 -186 94 -292.5t236 -106.5zM372 1493
q24 -85 81.5 -127.5t148.5 -42.5q88 0 130 46t72 124h105q-27 -142 -108 -212.5t-216 -70.5q-137 0 -215.5 70.5t-99.5 212.5h102z" />
    <glyph glyph-name="Ohungarumlaut" unicode="&#x150;" horiz-adv-x="1556" 
d="M778 -35q-321 0 -510.5 184.5t-189.5 461.5q0 278 190 462t510 184q319 0 510 -184t191 -462t-190.5 -462t-510.5 -184zM778 129q240 0 373 138t133 344q0 209 -133.5 345.5t-372.5 136.5t-372.5 -138t-133.5 -344q0 -204 132.5 -343t373.5 -139zM709 1656h215l-246 -293
h-135zM1028 1656h215l-246 -293h-135z" />
    <glyph glyph-name="ohungarumlaut" unicode="&#x151;" horiz-adv-x="1176" 
d="M588 -25q-236 0 -375 152t-139 401q0 253 139.5 404t374.5 151q234 0 374 -152t140 -403q0 -248 -139.5 -400.5t-374.5 -152.5zM588 129q142 0 236 107.5t94 291.5t-93.5 293t-236.5 109q-144 0 -237 -108.5t-93 -293.5q0 -186 94 -292.5t236 -106.5zM519 1499h215
l-246 -293h-135zM838 1499h215l-246 -293h-135z" />
    <glyph glyph-name="OE" unicode="&#x152;" horiz-adv-x="2200" 
d="M1128 141h-4q-49 -81 -154 -128.5t-222 -47.5q-310 0 -490 213t-180 549q0 344 187 557t499 213q121 0 220 -42.5t140 -113.5h4v121h977v-164h-782v-464h717v-164h-717v-506h795v-164h-990v141zM1128 418v616q0 86 -28 139t-118.5 106.5t-215.5 53.5q-233 0 -363.5 -174
t-130.5 -440q0 -259 131 -424.5t359 -165.5q155 0 260.5 82t105.5 207z" />
    <glyph glyph-name="oe" unicode="&#x153;" horiz-adv-x="1825" 
d="M1001 477q0 -152 81 -250t225 -98q219 0 286 207h166q-104 -361 -452 -361q-295 0 -385 209q-92 -209 -367 -209q-230 0 -355.5 152t-125.5 403q0 259 129 406t352 147q284 0 367 -186q55 94 158.5 140t215.5 46q230 0 351.5 -144.5t121.5 -461.5h-768zM1585 631
q0 135 -75.5 217t-213.5 82q-137 0 -216 -84t-79 -215h584zM555 930q-144 0 -220.5 -117t-76.5 -305q0 -163 77.5 -271t219.5 -108q147 0 221 108.5t74 294.5q0 398 -295 398z" />
    <glyph glyph-name="Racute" unicode="&#x154;" horiz-adv-x="1403" 
d="M160 1230h688q209 0 326.5 -87.5t117.5 -236.5q0 -112 -60.5 -196.5t-193.5 -113.5q125 -25 172 -102.5t54 -245.5q7 -174 79 -248h-217q-38 51 -50 256q-15 164 -80.5 211.5t-166.5 47.5h-475v-515h-194v1230zM760 678q169 0 253.5 49t84.5 148q0 83 -61.5 137
t-198.5 54h-484v-388h406zM746 1656h223l-269 -293h-131z" />
    <glyph glyph-name="racute" unicode="&#x155;" horiz-adv-x="682" 
d="M125 0v1059h164v-223h4q62 124 159 185.5t230 61.5v-184q-199 0 -291 -105.5t-92 -322.5v-471h-174zM467 1499h223l-269 -293h-131z" />
    <glyph glyph-name="Rcommaaccent" unicode="&#x156;" horiz-adv-x="1403" 
d="M160 1462h688q209 0 326.5 -102.5t117.5 -280.5q0 -133 -60.5 -233.5t-193.5 -136.5q102 -23 160 -102t66 -312q8 -207 79 -295h-217q-33 22 -41 252q-6 162 -56 267.5t-200 105.5h-475v-625h-194v1462zM760 788q169 0 253.5 65t84.5 196q0 110 -61.5 179.5t-198.5 69.5
h-484v-510h406zM628 -381v72q51 0 66.5 14t15.5 46h-106v167h227v-144q0 -77 -51 -116t-152 -39z" />
    <glyph glyph-name="rcommaaccent" unicode="&#x157;" horiz-adv-x="682" 
d="M125 0v1059h164v-223h4q62 124 159 185.5t230 61.5v-184q-199 0 -291 -105.5t-92 -322.5v-471h-174zM123 -381v72q51 0 66.5 14t15.5 46h-106v167h227v-144q0 -77 -51 -116t-152 -39z" />
    <glyph glyph-name="Rcaron" unicode="&#x158;" horiz-adv-x="1403" 
d="M160 1230h688q209 0 326.5 -87.5t117.5 -236.5q0 -112 -60.5 -196.5t-193.5 -113.5q125 -25 172 -102.5t54 -245.5q7 -174 79 -248h-217q-38 51 -50 256q-15 164 -80.5 211.5t-166.5 47.5h-475v-515h-194v1230zM760 678q169 0 253.5 49t84.5 148q0 83 -61.5 137
t-198.5 54h-484v-388h406zM667 1460l144 196h158l-211 -293h-191l-213 293h172z" />
    <glyph glyph-name="rcaron" unicode="&#x159;" horiz-adv-x="682" 
d="M125 0v1059h164v-223h4q62 124 159 185.5t230 61.5v-184q-199 0 -291 -105.5t-92 -322.5v-471h-174zM405 1303l144 196h158l-211 -293h-191l-213 293h172z" />
    <glyph glyph-name="Sacute" unicode="&#x15a;" horiz-adv-x="1327" 
d="M680 -35q-266 0 -432.5 114.5t-166.5 323.5h182q0 -126 116.5 -200t306.5 -74q166 0 268.5 51t102.5 158q0 70 -57.5 109.5t-140.5 62t-241 48.5q-258 44 -377.5 119t-119.5 216q0 168 150 266t380 98q252 0 392 -102.5t147 -285.5h-184q-16 112 -107 168t-256 56
q-154 0 -241 -47t-87 -139q0 -60 74 -101t223 -64q194 -30 322.5 -68t222.5 -108.5t94 -221.5q0 -176 -165.5 -277.5t-405.5 -101.5zM742 1656h223l-269 -293h-131z" />
    <glyph glyph-name="sacute" unicode="&#x15b;" horiz-adv-x="1024" 
d="M512 -25q-200 0 -320 89t-129 270h175q3 -102 80.5 -153.5t203.5 -51.5q128 0 192 39.5t64 118.5q0 82 -80.5 121.5t-265.5 76.5q-166 32 -256 99t-90 198q0 139 113 220t282 81q208 0 316.5 -83t117.5 -248h-174q-6 88 -75 133t-170 45q-113 0 -169.5 -34t-56.5 -101
q0 -55 56 -94.5t168 -62.5q189 -40 272 -69.5t140 -93t57 -166.5q0 -163 -124 -248.5t-327 -85.5zM592 1499h223l-269 -293h-131z" />
    <glyph glyph-name="Scircumflex" unicode="&#x15c;" horiz-adv-x="1327" 
d="M680 -35q-266 0 -432.5 114.5t-166.5 323.5h182q0 -126 116.5 -200t306.5 -74q166 0 268.5 51t102.5 158q0 70 -57.5 109.5t-140.5 62t-241 48.5q-258 44 -377.5 119t-119.5 216q0 168 150 266t380 98q252 0 392 -102.5t147 -285.5h-184q-16 112 -107 168t-256 56
q-154 0 -241 -47t-87 -139q0 -60 74 -101t223 -64q194 -30 322.5 -68t222.5 -108.5t94 -221.5q0 -176 -165.5 -277.5t-405.5 -101.5zM659 1560l-143 -197h-158l211 293h191l213 -293h-173z" />
    <glyph glyph-name="scircumflex" unicode="&#x15d;" horiz-adv-x="1024" 
d="M512 -25q-200 0 -320 89t-129 270h175q3 -102 80.5 -153.5t203.5 -51.5q128 0 192 39.5t64 118.5q0 82 -80.5 121.5t-265.5 76.5q-166 32 -256 99t-90 198q0 139 113 220t282 81q208 0 316.5 -83t117.5 -248h-174q-6 88 -75 133t-170 45q-113 0 -169.5 -34t-56.5 -101
q0 -55 56 -94.5t168 -62.5q189 -40 272 -69.5t140 -93t57 -166.5q0 -163 -124 -248.5t-327 -85.5zM508 1403l-143 -197h-158l211 293h191l213 -293h-173z" />
    <glyph glyph-name="Scedilla" unicode="&#x15e;" horiz-adv-x="1327" 
d="M449 -262q68 -27 133 -27q119 0 119 56q0 57 -96 57q-41 0 -84 -16l-35 57l97 105q-240 27 -373.5 160.5t-133.5 350.5h184q0 -162 117 -257t309 -95q168 0 269.5 65.5t101.5 200.5q0 78 -46.5 130.5t-122 79.5t-299.5 76q-278 61 -373 152t-95 236q0 200 151 314
t379 114q249 0 390.5 -121t148.5 -342h-184q-32 299 -363 299q-158 0 -243 -65t-85 -185q0 -89 76.5 -140t220.5 -81q290 -61 406 -111.5t174.5 -139t58.5 -210.5q0 -202 -164.5 -319t-406.5 -117h-15l-54 -59l4 -4q29 15 78 15q68 0 115 -34t47 -100q0 -75 -73 -119.5
t-181 -44.5q-93 0 -189 39z" />
    <glyph glyph-name="scedilla" unicode="&#x15f;" horiz-adv-x="1024" 
d="M301 -262q68 -27 133 -27q119 0 119 56q0 57 -96 57q-41 0 -84 -16l-35 57l104 113q-363 37 -379 356h175q3 -102 80.5 -153.5t203.5 -51.5q256 0 256 158q0 82 -80.5 121.5t-265.5 76.5q-166 32 -256 99t-90 198q0 139 113 220t282 81q417 0 434 -331h-174
q-6 88 -75 133t-170 45q-226 0 -226 -135q0 -110 224 -157q189 -40 272 -69.5t140 -93t57 -166.5q0 -154 -113.5 -240.5t-323.5 -93.5l-63 -69l4 -4q29 15 78 15q68 0 115 -34t47 -100q0 -75 -73 -119.5t-181 -44.5q-93 0 -189 39z" />
    <glyph glyph-name="Scaron" unicode="&#x160;" horiz-adv-x="1327" 
d="M680 -35q-266 0 -432.5 114.5t-166.5 323.5h182q0 -126 116.5 -200t306.5 -74q166 0 268.5 51t102.5 158q0 70 -57.5 109.5t-140.5 62t-241 48.5q-258 44 -377.5 119t-119.5 216q0 168 150 266t380 98q252 0 392 -102.5t147 -285.5h-184q-16 112 -107 168t-256 56
q-154 0 -241 -47t-87 -139q0 -60 74 -101t223 -64q194 -30 322.5 -68t222.5 -108.5t94 -221.5q0 -176 -165.5 -277.5t-405.5 -101.5zM669 1460l144 196h158l-211 -293h-191l-213 293h172z" />
    <glyph glyph-name="scaron" unicode="&#x161;" horiz-adv-x="1024" 
d="M512 -25q-200 0 -320 89t-129 270h175q3 -102 80.5 -153.5t203.5 -51.5q128 0 192 39.5t64 118.5q0 82 -80.5 121.5t-265.5 76.5q-166 32 -256 99t-90 198q0 139 113 220t282 81q208 0 316.5 -83t117.5 -248h-174q-6 88 -75 133t-170 45q-113 0 -169.5 -34t-56.5 -101
q0 -55 56 -94.5t168 -62.5q189 -40 272 -69.5t140 -93t57 -166.5q0 -163 -124 -248.5t-327 -85.5zM514 1303l144 196h158l-211 -293h-191l-213 293h172z" />
    <glyph glyph-name="Tcedilla" unicode="&#x162;" horiz-adv-x="1176" 
d="M492 0v1298h-488v164h1170v-164h-488v-1298h-194zM497 -381v72q51 0 66.5 14t15.5 46h-106v167h227v-144q0 -77 -51 -116t-152 -39z" />
    <glyph glyph-name="tcedilla" unicode="&#x163;" horiz-adv-x="645" 
d="M199 905h-181v154h181v317h174v-317h211v-154h-211v-657q0 -60 22 -77t109 -17h80v-154h-133q-159 0 -205.5 52t-46.5 179v674zM290 -381v72q51 0 66.5 14t15.5 46h-106v167h227v-144q0 -77 -51 -116t-152 -39z" />
    <glyph glyph-name="Tcaron" unicode="&#x164;" horiz-adv-x="1176" 
d="M492 0v1066h-488v164h1170v-164h-488v-1066h-194zM591 1460l144 196h158l-211 -293h-191l-213 293h172z" />
    <glyph glyph-name="tcaron" unicode="&#x165;" horiz-adv-x="645" 
d="M199 905h-181v154h181v317h174v-317h211v-154h-211v-657q0 -60 22 -77t109 -17h80v-154h-133q-159 0 -205.5 52t-46.5 179v674zM559 1462h223l-153 -293h-123z" />
    <glyph glyph-name="Tbar" unicode="&#x166;" horiz-adv-x="1176" 
d="M201 997h291v301h-488v164h1170v-164h-488v-301h295v-125h-295v-872h-194v872h-291v125z" />
    <glyph glyph-name="tbar" unicode="&#x167;" horiz-adv-x="645" 
d="M29 709h170v196h-181v154h181v317h174v-317h211v-154h-211v-196h194v-113h-194v-348q0 -60 22 -77t109 -17h80v-154h-133q-159 0 -205.5 52t-46.5 179v365h-170v113z" />
    <glyph glyph-name="Utilde" unicode="&#x168;" horiz-adv-x="1479" 
d="M752 -35q-300 0 -450 140.5t-150 422.5v702h194v-702q0 -196 104.5 -297.5t301.5 -101.5q190 0 285.5 99.5t95.5 299.5v702h194v-702q0 -280 -149.5 -421.5t-425.5 -141.5zM1098 1625q-21 -114 -73 -170.5t-134 -56.5q-59 0 -154 41q-103 39 -135 39q-69 0 -100 -86h-107
q25 112 79 168.5t138 56.5q56 0 150 -41q91 -41 135 -41q68 0 94 90h107z" />
    <glyph glyph-name="utilde" unicode="&#x169;" 
d="M844 168q-57 -97 -144 -145t-204 -48q-183 0 -274 96.5t-91 290.5v697h174v-717q0 -98 57.5 -155.5t157.5 -57.5q152 0 233 91t81 241v598h174v-1059h-164v168zM924 1468q-21 -114 -73 -170.5t-134 -56.5q-59 0 -154 41q-103 39 -135 39q-69 0 -100 -86h-107
q25 112 79 168.5t138 56.5q56 0 150 -41q91 -41 135 -41q68 0 94 90h107z" />
    <glyph glyph-name="Umacron" unicode="&#x16a;" horiz-adv-x="1479" 
d="M752 -35q-300 0 -450 140.5t-150 422.5v702h194v-702q0 -196 104.5 -297.5t301.5 -101.5q190 0 285.5 99.5t95.5 299.5v702h194v-702q0 -280 -149.5 -421.5t-425.5 -141.5zM395 1554h699v-113h-699v113z" />
    <glyph glyph-name="umacron" unicode="&#x16b;" 
d="M844 168q-57 -97 -144 -145t-204 -48q-183 0 -274 96.5t-91 290.5v697h174v-717q0 -98 57.5 -155.5t157.5 -57.5q152 0 233 91t81 241v598h174v-1059h-164v168zM221 1397h699v-113h-699v113z" />
    <glyph glyph-name="Ubreve" unicode="&#x16c;" horiz-adv-x="1479" 
d="M752 -35q-300 0 -450 140.5t-150 422.5v702h194v-702q0 -196 104.5 -297.5t301.5 -101.5q190 0 285.5 99.5t95.5 299.5v702h194v-702q0 -280 -149.5 -421.5t-425.5 -141.5zM526 1650q24 -85 81.5 -127.5t148.5 -42.5q88 0 130 46t72 124h105q-27 -142 -108 -212.5
t-216 -70.5q-137 0 -215.5 70.5t-99.5 212.5h102z" />
    <glyph glyph-name="ubreve" unicode="&#x16d;" 
d="M844 168q-57 -97 -144 -145t-204 -48q-183 0 -274 96.5t-91 290.5v697h174v-717q0 -98 57.5 -155.5t157.5 -57.5q152 0 233 91t81 241v598h174v-1059h-164v168zM352 1493q24 -85 81.5 -127.5t148.5 -42.5q88 0 130 46t72 124h105q-27 -142 -108 -212.5t-216 -70.5
q-137 0 -215.5 70.5t-99.5 212.5h102z" />
    <glyph glyph-name="Uring" unicode="&#x16e;" horiz-adv-x="1479" 
d="M752 -35q-300 0 -450 140.5t-150 422.5v702h194v-702q0 -196 104.5 -297.5t301.5 -101.5q190 0 285.5 99.5t95.5 299.5v702h194v-702q0 -280 -149.5 -421.5t-425.5 -141.5zM741 1208q-93 0 -161 68t-68 162q0 95 68.5 161.5t160.5 66.5q91 0 160 -66.5t69 -161.5
t-68.5 -162.5t-160.5 -67.5zM741 1296q60 0 100.5 40t40.5 100q0 59 -40.5 100.5t-100.5 41.5q-59 0 -100 -41.5t-41 -100.5q0 -60 41 -100t100 -40z" />
    <glyph glyph-name="uring" unicode="&#x16f;" 
d="M844 168q-57 -97 -144 -145t-204 -48q-183 0 -274 96.5t-91 290.5v697h174v-717q0 -98 57.5 -155.5t157.5 -57.5q152 0 233 91t81 241v598h174v-1059h-164v168zM569 1165q-93 0 -161 68t-68 162q0 95 68.5 161.5t160.5 66.5q91 0 160 -66.5t69 -161.5t-68.5 -162.5
t-160.5 -67.5zM569 1253q60 0 100.5 40t40.5 100q0 59 -40.5 100.5t-100.5 41.5q-59 0 -100 -41.5t-41 -100.5q0 -60 41 -100t100 -40z" />
    <glyph glyph-name="Uhungarumlaut" unicode="&#x170;" horiz-adv-x="1479" 
d="M752 -35q-300 0 -450 140.5t-150 422.5v702h194v-702q0 -196 104.5 -297.5t301.5 -101.5q190 0 285.5 99.5t95.5 299.5v702h194v-702q0 -280 -149.5 -421.5t-425.5 -141.5zM672 1656h215l-246 -293h-135zM991 1656h215l-246 -293h-135z" />
    <glyph glyph-name="uhungarumlaut" unicode="&#x171;" 
d="M844 168q-57 -97 -144 -145t-204 -48q-183 0 -274 96.5t-91 290.5v697h174v-717q0 -98 57.5 -155.5t157.5 -57.5q152 0 233 91t81 241v598h174v-1059h-164v168zM498 1499h215l-246 -293h-135zM817 1499h215l-246 -293h-135z" />
    <glyph glyph-name="Uogonek" unicode="&#x172;" horiz-adv-x="1479" 
d="M1327 528q0 -520 -503 -560q-126 -102 -126 -174q0 -73 84 -73q72 0 121 62l65 -37q-70 -127 -221 -127q-78 0 -133 33t-55 105q0 109 166 208q-573 14 -573 563v934h194v-934q0 -196 104.5 -297.5t301.5 -101.5q381 0 381 399v934h194v-934z" />
    <glyph glyph-name="uogonek" unicode="&#x173;" 
d="M926 0q-172 -120 -172 -206q0 -73 84 -73q72 0 121 62l65 -37q-70 -127 -221 -127q-78 0 -133 33t-55 105q0 126 229 243v168h-4q-109 -193 -344 -193q-365 0 -365 387v697h174v-717q0 -98 57.5 -155.5t157.5 -57.5q152 0 233 91t81 241v598h174v-1059h-82z" />
    <glyph glyph-name="Wcircumflex" unicode="&#x174;" horiz-adv-x="1896" 
d="M1481 0h-203l-336 1020l-340 -1020h-203l-374 1230h198l287 -1013l332 1013h211l327 -1013l297 1013h195zM944 1560l-143 -197h-158l211 293h191l213 -293h-173z" />
    <glyph glyph-name="wcircumflex" unicode="&#x175;" horiz-adv-x="1552" 
d="M1180 0h-185l-216 846l-216 -846h-188l-340 1059h192l242 -869l215 869h190l224 -869l239 869h181zM778 1403l-143 -197h-158l211 293h191l213 -293h-173z" />
    <glyph glyph-name="Ycircumflex" unicode="&#x176;" horiz-adv-x="1327" 
d="M764 485v-485h-195v485l-565 743h232l438 -585l428 585h221zM667 1560l-143 -197h-158l211 293h191l213 -293h-173z" />
    <glyph glyph-name="ycircumflex" unicode="&#x177;" horiz-adv-x="1024" 
d="M564 -98q-61 -159 -128.5 -221t-178.5 -62q-72 0 -121 18v160q71 -24 102 -24q93 0 144 96l54 137l-420 1053h197l311 -870l299 870h185zM518 1403l-143 -197h-158l211 293h191l213 -293h-173z" />
    <glyph glyph-name="Ydieresis" unicode="&#x178;" horiz-adv-x="1327" 
d="M764 485v-485h-195v485l-565 743h232l438 -585l428 585h221zM772 1603h184v-213h-184v213zM387 1603h184v-213h-184v213z" />
    <glyph glyph-name="Zacute" unicode="&#x179;" horiz-adv-x="1251" 
d="M45 164l909 900h-839v164h1069v-164l-908 -900h932v-164h-1163v164zM717 1656h223l-269 -293h-131z" />
    <glyph glyph-name="zacute" unicode="&#x17a;" horiz-adv-x="983" 
d="M45 133l639 772h-598v154h823v-119l-647 -786h676v-154h-893v133zM572 1499h223l-269 -293h-131z" />
    <glyph glyph-name="Zdotaccent" unicode="&#x17b;" horiz-adv-x="1251" 
d="M45 164l909 900h-839v164h1069v-164l-908 -900h932v-164h-1163v164zM731 1430h-184v213h184v-213z" />
    <glyph glyph-name="zdotaccent" unicode="&#x17c;" horiz-adv-x="983" 
d="M45 133l639 772h-598v154h823v-119l-647 -786h676v-154h-893v133zM589 1217h-184v213h184v-213z" />
    <glyph glyph-name="longs" unicode="&#x17f;" horiz-adv-x="460" 
d="M141 1217q0 263 240 263q49 0 93 -17v-152q-28 14 -69 14q-90 0 -90 -119v-1206h-174v1217z" />
    <glyph glyph-name="florin" unicode="&#x192;" 
d="M979 1309h-121q-103 0 -127 -107l-63 -282h209l-29 -140h-205l-113 -637q-48 -272 -129.5 -376.5t-259.5 -104.5h-135l29 154q163 0 212 35t72 174l144 755h-189l27 140h186l54 278q23 120 104.5 192t210.5 72h152z" />
    <glyph glyph-name="Ohorn" unicode="&#x1a0;" horiz-adv-x="1603" 
d="M1280 1289q135 8 135 161v96h168v-80q0 -243 -223 -284q119 -192 119 -451q0 -330 -191 -548t-510 -218q-320 0 -510 218t-190 548t190.5 548t509.5 218q305 0 502 -208zM778 129q238 0 372 171t134 431q0 262 -134.5 432t-371.5 170q-238 0 -372 -172t-134 -430
q0 -256 133.5 -429t372.5 -173z" />
    <glyph glyph-name="ohorn" unicode="&#x1a1;" horiz-adv-x="1303" 
d="M995 892q136 15 136 158v72h152v-64q0 -237 -235 -258q54 -119 54 -272q0 -248 -139.5 -400.5t-374.5 -152.5q-236 0 -375 152t-139 401q0 253 139.5 404t374.5 151q259 0 407 -191zM588 129q142 0 236 107.5t94 291.5t-93.5 293t-236.5 109q-144 0 -237 -108.5
t-93 -293.5q0 -186 94 -292.5t236 -106.5z" />
    <glyph glyph-name="Uhorn" unicode="&#x1af;" horiz-adv-x="1653" 
d="M1327 1462v-175q138 18 138 163v96h168v-80q0 -285 -306 -292v-646q0 -280 -149.5 -421.5t-425.5 -141.5q-600 0 -600 563v934h194v-934q0 -196 104.5 -297.5t301.5 -101.5q381 0 381 399v934h194z" />
    <glyph glyph-name="uhorn" unicode="&#x1b0;" horiz-adv-x="1298" 
d="M1008 1059v-165q118 28 118 156v72h152v-64q0 -245 -270 -261v-797h-164v168h-4q-109 -193 -344 -193q-365 0 -365 387v697h174v-717q0 -98 57.5 -155.5t157.5 -57.5q152 0 233 91t81 241v598h174z" />
    <glyph glyph-name="Acaron" unicode="&#x1cd;" horiz-adv-x="1327" 
d="M906 507l-245 549l-248 -549h493zM1128 0l-152 343h-633l-157 -343h-200l571 1230h215l571 -1230h-215zM669 1460l144 196h158l-211 -293h-191l-213 293h172z" />
    <glyph glyph-name="Icaron" unicode="&#x1cf;" horiz-adv-x="530" 
d="M168 0v1230h194v-1230h-194zM270 1460l144 196h158l-211 -293h-191l-213 293h172z" />
    <glyph glyph-name="Ocaron" unicode="&#x1d1;" horiz-adv-x="1556" 
d="M778 -35q-321 0 -510.5 184.5t-189.5 461.5q0 278 190 462t510 184q319 0 510 -184t191 -462t-190.5 -462t-510.5 -184zM778 129q240 0 373 138t133 344q0 209 -133.5 345.5t-372.5 136.5t-372.5 -138t-133.5 -344q0 -204 132.5 -343t373.5 -139zM783 1460l144 196h158
l-211 -293h-191l-213 293h172z" />
    <glyph glyph-name="Ucaron" unicode="&#x1d3;" horiz-adv-x="1479" 
d="M752 -35q-300 0 -450 140.5t-150 422.5v702h194v-702q0 -196 104.5 -297.5t301.5 -101.5q190 0 285.5 99.5t95.5 299.5v702h194v-702q0 -280 -149.5 -421.5t-425.5 -141.5zM745 1460l144 196h158l-211 -293h-191l-213 293h172z" />
    <glyph glyph-name="Udieresismacron" unicode="&#x1d5;" horiz-adv-x="1479" 
d="M752 -35q-300 0 -450 140.5t-150 422.5v598h194v-598q0 -196 104.5 -297.5t301.5 -101.5q190 0 285.5 99.5t95.5 299.5v598h194v-598q0 -280 -149.5 -421.5t-425.5 -141.5zM745 1228zM840 1436h184v-183h-184v183zM455 1436h184v-183h-184v183zM390 1667h699v-113h-699
v113z" />
    <glyph glyph-name="udieresismacron" unicode="&#x1d6;" 
d="M844 168q-57 -97 -144 -145t-204 -48q-183 0 -274 96.5t-91 290.5v697h174v-717q0 -98 57.5 -155.5t157.5 -57.5q152 0 233 91t81 241v598h174v-1059h-164v168zM670 1446h184v-213h-184v213zM285 1446h184v-213h-184v213zM220 1647h699v-113h-699v113z" />
    <glyph glyph-name="Udieresisacute" unicode="&#x1d7;" horiz-adv-x="1479" 
d="M752 -35q-300 0 -450 140.5t-150 422.5v598h194v-598q0 -196 104.5 -297.5t301.5 -101.5q190 0 285.5 99.5t95.5 299.5v598h194v-598q0 -280 -149.5 -421.5t-425.5 -141.5zM745 1228zM840 1385h184v-183h-184v183zM455 1385h184v-183h-184v183zM756 1667h223l-239 -228
h-131z" />
    <glyph glyph-name="udieresisacute" unicode="&#x1d8;" 
d="M844 168q-57 -97 -144 -145t-204 -48q-183 0 -274 96.5t-91 290.5v697h174v-717q0 -98 57.5 -155.5t157.5 -57.5q152 0 233 91t81 241v598h174v-1059h-164v168zM670 1396h184v-183h-184v183zM285 1396h184v-183h-184v183zM626 1667h223l-239 -228h-131z" />
    <glyph glyph-name="Udieresiscaron" unicode="&#x1d9;" horiz-adv-x="1479" 
d="M752 -35q-300 0 -450 140.5t-150 422.5v598h194v-598q0 -196 104.5 -297.5t301.5 -101.5q190 0 285.5 99.5t95.5 299.5v598h194v-598q0 -280 -149.5 -421.5t-425.5 -141.5zM745 1228zM840 1385h184v-183h-184v183zM455 1385h184v-183h-184v183zM826 1449h-171l-223 218
h173l136 -122l148 122h158z" />
    <glyph glyph-name="udieresiscaron" unicode="&#x1da;" 
d="M844 168q-57 -97 -144 -145t-204 -48q-183 0 -274 96.5t-91 290.5v697h174v-717q0 -98 57.5 -155.5t157.5 -57.5q152 0 233 91t81 241v598h174v-1059h-164v168zM670 1396h184v-183h-184v183zM285 1396h184v-183h-184v183zM656 1449h-171l-223 218h173l136 -122l148 122
h158z" />
    <glyph glyph-name="Udieresisgrave" unicode="&#x1db;" horiz-adv-x="1479" 
d="M752 -35q-300 0 -450 140.5t-150 422.5v598h194v-598q0 -196 104.5 -297.5t301.5 -101.5q190 0 285.5 99.5t95.5 299.5v598h194v-598q0 -280 -149.5 -421.5t-425.5 -141.5zM745 1228zM840 1385h184v-183h-184v183zM455 1385h184v-183h-184v183zM505 1667h223l146 -228
h-131z" />
    <glyph glyph-name="udieresisgrave" unicode="&#x1dc;" 
d="M844 168q-57 -97 -144 -145t-204 -48q-183 0 -274 96.5t-91 290.5v697h174v-717q0 -98 57.5 -155.5t157.5 -57.5q152 0 233 91t81 241v598h174v-1059h-164v168zM670 1396h184v-183h-184v183zM285 1396h184v-183h-184v183zM330 1667h223l146 -228h-131z" />
    <glyph glyph-name="Aringacute" unicode="&#x1fa;" horiz-adv-x="1327" 
d="M907 465l-248 495l-245 -495h493zM1128 0l-152 301h-632l-158 -301h-200l552 1091q-70 56 -70 147q0 83 58 139t139 56q80 0 137 -55t57 -140t-69 -147l553 -1091h-215zM665 1124q47 0 78.5 33.5t31.5 80.5q0 49 -31.5 81t-78.5 32q-50 0 -81.5 -32t-31.5 -81
q0 -47 31.5 -80.5t81.5 -33.5zM932 1667l-249 -203h-131l157 203h223z" />
    <glyph glyph-name="aringacute" unicode="&#x1fb;" horiz-adv-x="1100" 
d="M786 547q-41 -34 -197 -54q-141 -19 -199.5 -36.5t-95 -59.5t-36.5 -112q0 -72 52.5 -114t152.5 -42q150 0 236.5 73.5t86.5 166.5v178zM797 139q-69 -82 -162 -123t-211 -41q-167 0 -258.5 77.5t-91.5 219.5q0 161 109 238t386 110q118 13 168.5 42t50.5 92
q0 88 -59 132t-176 44q-130 0 -196 -50.5t-68 -150.5h-174q8 177 120 265.5t328 88.5q199 0 298.5 -72.5t99.5 -217.5v-545q0 -73 9 -96t46 -23q22 0 53 10v-135q-47 -29 -125 -29q-74 0 -110.5 41t-36.5 123zM551 1144q-63 0 -110.5 45t-47.5 115q0 68 47.5 113.5
t113.5 45.5q63 0 110.5 -45t47.5 -114t-48 -114.5t-113 -45.5zM551 1218q38 0 60.5 24.5t22.5 61.5t-22.5 61t-57.5 24q-38 0 -60.5 -24t-22.5 -61t22.5 -61.5t57.5 -24.5zM822 1667l-249 -163h-131l157 163h223z" />
    <glyph glyph-name="AEacute" unicode="&#x1fc;" horiz-adv-x="1896" 
d="M725 1228h1096v-164h-719v-347h676v-164h-676v-389h731v-164h-915v332h-514l-199 -332h-219zM834 1064l-343 -568h427v568h-84zM1258 1656h223l-269 -293h-131z" />
    <glyph glyph-name="aeacute" unicode="&#x1fd;" horiz-adv-x="1782" 
d="M956 477q0 -153 83.5 -250.5t234.5 -97.5q98 0 171 50t97 155h178q-39 -174 -158.5 -266.5t-299.5 -92.5q-292 0 -383 207q-115 -207 -447 -207q-172 0 -265 77t-93 220q0 101 41 166.5t120.5 105.5t361.5 83q104 15 150 43t46 96q0 164 -240 164q-260 0 -264 -201h-174
q17 354 448 354q278 0 355 -153q53 82 147 117.5t190 35.5q478 0 478 -606h-777zM1548 631q-6 137 -85 218t-208 81q-135 0 -217 -83.5t-82 -215.5h592zM793 547q-40 -30 -235 -57q-200 -29 -250 -80t-50 -125q0 -72 52.5 -114t152.5 -42q153 0 241.5 75t88.5 165v178z
M1029 1499h223l-269 -293h-131z" />
    <glyph glyph-name="Oslashacute" unicode="&#x1fe;" horiz-adv-x="1556" 
d="M1246 1110l174 162l61 -67l-168 -156q166 -180 166 -438q0 -278 -190.5 -462t-510.5 -184q-283 0 -470 148l-170 -159l-62 66l166 154q-164 179 -164 437q0 278 190 462t510 184q279 0 468 -147zM376 299l739 689q-133 105 -337 105q-239 0 -372.5 -138t-133.5 -344
q0 -181 104 -312zM1179 924l-740 -689q134 -106 339 -106q240 0 373 138t133 344q0 185 -105 313zM842 1656h223l-269 -293h-131z" />
    <glyph glyph-name="oslashacute" unicode="&#x1ff;" horiz-adv-x="1176" 
d="M983 907q119 -144 119 -379q0 -248 -139.5 -400.5t-374.5 -152.5q-202 0 -338 117l-123 -137l-57 49l127 141q-123 151 -123 383q0 253 139.5 404t374.5 151q210 0 344 -120l119 133l55 -54zM815 834q-90 96 -227 96q-144 0 -237 -108.5t-93 -293.5q0 -134 61 -247z
M365 221q92 -92 223 -92q142 0 236 107.5t94 291.5q0 142 -58 244zM668 1499h223l-269 -293h-131z" />
    <glyph glyph-name="Scommaaccent" unicode="&#x218;" horiz-adv-x="1327" 
d="M680 -35q-270 0 -437 135.5t-167 380.5h184q0 -162 117 -257t309 -95q168 0 269.5 65.5t101.5 200.5q0 78 -46.5 130.5t-122 79.5t-299.5 76q-278 61 -373 152t-95 236q0 200 151 314t379 114q249 0 390.5 -121t148.5 -342h-184q-16 149 -107 224t-256 75
q-158 0 -243 -65t-85 -185q0 -89 76.5 -140t220.5 -81q290 -61 406 -111.5t174.5 -139t58.5 -210.5q0 -202 -164.5 -319t-406.5 -117zM577 -381v72q51 0 66.5 14t15.5 46h-106v167h227v-144q0 -77 -51 -116t-152 -39z" />
    <glyph glyph-name="scommaaccent" unicode="&#x219;" horiz-adv-x="1024" 
d="M512 -25q-200 0 -320 89t-129 270h175q3 -102 80.5 -153.5t203.5 -51.5q128 0 192 39.5t64 118.5q0 82 -80.5 121.5t-265.5 76.5q-166 32 -256 99t-90 198q0 139 113 220t282 81q208 0 316.5 -83t117.5 -248h-174q-6 88 -75 133t-170 45q-113 0 -169.5 -34t-56.5 -101
q0 -55 56 -94.5t168 -62.5q189 -40 272 -69.5t140 -93t57 -166.5q0 -163 -124 -248.5t-327 -85.5zM428 -381v72q51 0 66.5 14t15.5 46h-106v167h227v-144q0 -77 -51 -116t-152 -39z" />
    <glyph glyph-name="Tcommaaccent" unicode="&#x21a;" horiz-adv-x="1176" 
d="M492 0v1298h-488v164h1170v-164h-488v-1298h-194zM497 -381v72q51 0 66.5 14t15.5 46h-106v167h227v-144q0 -77 -51 -116t-152 -39z" />
    <glyph glyph-name="tcommaaccent" unicode="&#x21b;" horiz-adv-x="645" 
d="M199 905h-181v154h181v317h174v-317h211v-154h-211v-657q0 -60 22 -77t109 -17h80v-154h-133q-159 0 -205.5 52t-46.5 179v674zM290 -381v72q51 0 66.5 14t15.5 46h-106v167h227v-144q0 -77 -51 -116t-152 -39z" />
    <glyph glyph-name="hook" unicode="&#x2c0;" horiz-adv-x="455" 
d="M230 1215h-72v112q83 0 83 51q0 52 -71 52q-37 0 -99 -20v97q55 25 125 25q97 0 145.5 -36t48.5 -108q0 -69 -40 -105t-120 -38v-30z" />
    <glyph glyph-name="circumflex" unicode="&#x2c6;" horiz-adv-x="455" 
d="M221 1403l-143 -197h-158l211 293h191l213 -293h-173z" />
    <glyph glyph-name="caron" unicode="&#x2c7;" horiz-adv-x="455" 
d="M233 1303l144 196h158l-211 -293h-191l-213 293h172z" />
    <glyph glyph-name="macron" unicode="&#x2c9;" horiz-adv-x="455" 
d="M-121 1397h699v-113h-699v113z" />
    <glyph glyph-name="breve" unicode="&#x2d8;" horiz-adv-x="455" 
d="M10 1493q24 -85 81.5 -127.5t148.5 -42.5q88 0 130 46t72 124h105q-27 -142 -108 -212.5t-216 -70.5q-137 0 -215.5 70.5t-99.5 212.5h102z" />
    <glyph glyph-name="dotaccent" unicode="&#x2d9;" horiz-adv-x="455" 
d="M319 1217h-184v213h184v-213z" />
    <glyph glyph-name="ring" unicode="&#x2da;" horiz-adv-x="455" 
d="M227 1165q-93 0 -161 68t-68 162q0 95 68.5 161.5t160.5 66.5q91 0 160 -66.5t69 -161.5t-68.5 -162.5t-160.5 -67.5zM227 1253q60 0 100.5 40t40.5 100q0 59 -40.5 100.5t-100.5 41.5q-59 0 -100 -41.5t-41 -100.5q0 -60 41 -100t100 -40z" />
    <glyph glyph-name="ogonek" unicode="&#x2db;" horiz-adv-x="455" 
d="M565 -254q-35 -63 -90.5 -95t-130.5 -32q-78 0 -133 33t-55 105q0 63 57 124t172 119h82q-86 -60 -129 -111.5t-43 -94.5q0 -73 84 -73q72 0 121 62z" />
    <glyph glyph-name="tilde" unicode="&#x2dc;" horiz-adv-x="455" 
d="M584 1468q-21 -114 -73 -170.5t-134 -56.5q-59 0 -154 41q-103 39 -135 39q-69 0 -100 -86h-107q25 112 79 168.5t138 56.5q56 0 150 -41q91 -41 135 -41q68 0 94 90h107z" />
    <glyph glyph-name="hungarumlaut" unicode="&#x2dd;" horiz-adv-x="455" 
d="M68 1499h215l-246 -293h-135zM387 1499h215l-246 -293h-135z" />
    <glyph glyph-name="gravecomb" unicode="&#x300;" horiz-adv-x="0" 
d="M-627 1439h223l146 -228h-131z" />
    <glyph glyph-name="acutecomb" unicode="&#x301;" horiz-adv-x="0" 
d="M-341 1439h223l-239 -228h-131z" />
    <glyph glyph-name="circumflexcomb" unicode="&#x302;" horiz-adv-x="0" 
d="M-459 1429h171l223 -218h-173l-136 122l-148 -122h-158z" />
    <glyph glyph-name="tildecomb" unicode="&#x303;" horiz-adv-x="0" 
d="M-612 1265h-107q42 197 217 197q45 0 84.5 -14t131.5 -44q34 -12 63 -12q78 0 100 70h107q-42 -197 -217 -197q-44 0 -147 36q-98 34 -132 34q-78 0 -100 -70z" />
    <glyph glyph-name="macroncomb" unicode="&#x304;" horiz-adv-x="0" 
d="M-721 1397h699v-113h-699v113z" />
    <glyph glyph-name="brevecomb" unicode="&#x306;" horiz-adv-x="0" 
d="M-687 1443h114q27 -120 201 -120q173 0 200 120h114q-30 -233 -314 -233q-287 0 -315 233z" />
    <glyph glyph-name="dotaccentcomb" unicode="&#x307;" horiz-adv-x="0" 
d="M-280 1217h-184v213h184v-213z" />
    <glyph glyph-name="dieresiscomb" unicode="&#x308;" horiz-adv-x="0" 
d="M-272 1396h184v-183h-184v183zM-657 1396h184v-183h-184v183z" />
    <glyph glyph-name="hookabovecomb" unicode="&#x309;" horiz-adv-x="0" 
d="M-529 1380v97q68 25 125 25q194 0 194 -134q0 -57 -41.5 -94t-118.5 -39v-25h-72v107h12q71 0 71 41q0 42 -71 42q-37 0 -99 -20z" />
    <glyph glyph-name="ringcomb" unicode="&#x30a;" horiz-adv-x="0" 
d="M-373 1624q91 0 161.5 -67t70.5 -162t-70 -162.5t-162 -67.5q-93 0 -162 68t-69 162q0 95 69.5 162t161.5 67zM-373 1253q60 0 99 40t39 100q0 59 -39 99t-99 40q-59 0 -98 -40t-39 -99q0 -60 39 -100t98 -40z" />
    <glyph glyph-name="caroncomb" unicode="&#x30c;" horiz-adv-x="0" 
d="M-286 1211h-171l-223 218h173l136 -122l148 122h158z" />
    <glyph glyph-name="dotbelowcomb" unicode="&#x323;" horiz-adv-x="0" 
d="M-281 -355h-184v213h184v-213z" />
    <glyph glyph-name="uni037E" unicode="&#x37e;" horiz-adv-x="569" 
d="M397 831h-227v228h227v-228zM170 227h227v-207q0 -256 -225 -321v102q126 55 119 199h-121v227z" />
    <glyph glyph-name="tonos" unicode="&#x384;" horiz-adv-x="494" 
d="M248 1499h225l-154 -293h-139z" />
    <glyph glyph-name="dieresistonos" unicode="&#x385;" horiz-adv-x="680" 
d="M301 1499h180l-129 -293h-127zM690 1233h-172v213h172v-213zM162 1233h-172v213h172v-213z" />
    <glyph glyph-name="Alphatonos" unicode="&#x386;" horiz-adv-x="1341" 
d="M157 1463h225l-154 -293h-139zM921 604l-245 684l-250 -684h495zM1142 0l-162 440h-613l-167 -440h-200l571 1462h215l571 -1462h-215z" />
    <glyph glyph-name="anoteleia" unicode="&#x387;" horiz-adv-x="569" 
d="M397 831h-227v228h227v-228z" />
    <glyph glyph-name="Epsilontonos" unicode="&#x388;" horiz-adv-x="1544" 
d="M91 1463h225l-154 -293h-139zM453 0v1462h1009v-164h-815v-464h760v-164h-760v-506h822v-164h-1016z" />
    <glyph glyph-name="Etatonos" unicode="&#x389;" horiz-adv-x="1772" 
d="M91 1463h225l-154 -293h-139zM453 0v1462h194v-628h770v628h195v-1462h-195v670h-770v-670h-194z" />
    <glyph glyph-name="Iotatonos" unicode="&#x38a;" horiz-adv-x="807" 
d="M91 1463h225l-154 -293h-139zM453 0v1462h194v-1462h-194z" />
    <glyph glyph-name="Omicrontonos" unicode="&#x38c;" horiz-adv-x="1772" 
d="M993 -35q-320 0 -510 218t-190 548t190.5 548t509.5 218t510 -217.5t191 -548.5q0 -330 -191 -548t-510 -218zM993 129q238 0 372 171t134 431q0 262 -134.5 432t-371.5 170q-238 0 -372 -172t-134 -430q0 -256 133.5 -429t372.5 -173zM91 1463h225l-154 -293h-139z" />
    <glyph glyph-name="Upsilontonos" unicode="&#x38e;" horiz-adv-x="1724" 
d="M91 1463h225l-154 -293h-139zM1161 598v-598h-195v598l-565 864h232l438 -696l428 696h221z" />
    <glyph glyph-name="Omegatonos" unicode="&#x38f;" horiz-adv-x="1778" 
d="M91 1463h225l-154 -293h-139zM1712 0h-578v147q180 123 270.5 292t90.5 384q0 218 -134.5 364t-355.5 146q-224 0 -361.5 -145t-137.5 -385q0 -206 92 -370t276 -286v-147h-579v164h350q-167 119 -250.5 278.5t-83.5 358.5q0 300 197 498t497 198q303 0 493.5 -194
t190.5 -482q0 -206 -84 -370t-252 -287h359v-164z" />
    <glyph glyph-name="iotadieresistonos" unicode="&#x390;" horiz-adv-x="485" 
d="M315 1059v-830q0 -102 72 -102q20 0 72 10v-135q-62 -27 -135 -27q-183 0 -183 209v875h174zM214 1499h180l-129 -293h-127zM603 1233h-172v213h172v-213zM75 1233h-172v213h172v-213z" />
    <glyph glyph-name="Alpha" unicode="&#x391;" horiz-adv-x="1327" 
d="M907 604l-245 684l-250 -684h495zM1128 0l-162 440h-613l-167 -440h-200l571 1462h215l571 -1462h-215z" />
    <glyph glyph-name="Beta" unicode="&#x392;" horiz-adv-x="1403" 
d="M160 1462h530q258 0 341.5 -31t150.5 -116t67 -211q0 -121 -54.5 -204t-162.5 -128q135 -29 207 -123t72 -229q0 -176 -123 -298t-322 -122h-706v1462zM354 834h389q166 0 239 58t73 175q0 114 -62 172.5t-250 58.5h-389v-464zM354 164h488q129 0 201.5 69.5t72.5 192.5
q0 122 -79.5 183t-237.5 61h-445v-506z" />
    <glyph glyph-name="Gamma" unicode="&#x393;" horiz-adv-x="1130" 
d="M160 1462h958v-164h-764v-1298h-194v1462z" />
    <glyph glyph-name="Delta" unicode="&#x394;" horiz-adv-x="1327" 
d="M-8 0l565 1462h215l565 -1462h-1345zM254 164h807l-395 1124h-4z" />
    <glyph glyph-name="Epsilon" unicode="&#x395;" horiz-adv-x="1251" 
d="M160 0v1462h1009v-164h-815v-464h760v-164h-760v-506h822v-164h-1016z" />
    <glyph glyph-name="Zeta" unicode="&#x396;" horiz-adv-x="1251" 
d="M45 164l909 1134h-839v164h1069v-164l-908 -1134h932v-164h-1163v164z" />
    <glyph glyph-name="Eta" unicode="&#x397;" horiz-adv-x="1479" 
d="M160 0v1462h194v-628h770v628h195v-1462h-195v670h-770v-670h-194z" />
    <glyph glyph-name="Theta" unicode="&#x398;" horiz-adv-x="1556" 
d="M778 1497q319 0 510 -217.5t191 -548.5q0 -330 -191 -548t-510 -218q-320 0 -510 218t-190 548t190.5 548t509.5 218zM778 129q238 0 372 171t134 431q0 262 -134.5 432t-371.5 170q-238 0 -372 -172t-134 -430q0 -256 133.5 -429t372.5 -173zM467 836h614v-164h-614v164
z" />
    <glyph glyph-name="Iota" unicode="&#x399;" horiz-adv-x="530" 
d="M168 0v1462h194v-1462h-194z" />
    <glyph glyph-name="Kappa" unicode="&#x39a;" horiz-adv-x="1366" 
d="M160 1462h194v-729l742 729h252l-617 -590l641 -872h-246l-528 739l-244 -227v-512h-194v1462z" />
    <glyph glyph-name="Lambda" unicode="&#x39b;" horiz-adv-x="1255" 
d="M522 1462h217l533 -1462h-211l-432 1268h-4l-437 -1268h-202z" />
    <glyph glyph-name="Mu" unicode="&#x39c;" horiz-adv-x="1784" 
d="M164 1462h266l461 -1229l463 1229h266v-1462h-184v1224l-461 -1224h-166l-461 1224v-1224h-184v1462z" />
    <glyph glyph-name="Nu" unicode="&#x39d;" horiz-adv-x="1479" 
d="M158 1462h207l774 -1186v1186h184v-1462h-213l-768 1174v-1174h-184v1462z" />
    <glyph glyph-name="Xi" unicode="&#x39e;" horiz-adv-x="1167" 
d="M96 1462h975v-164h-975v164zM166 834h835v-164h-835v164zM76 164h1016v-164h-1016v164z" />
    <glyph glyph-name="Omicron" unicode="&#x39f;" horiz-adv-x="1556" 
d="M778 -35q-320 0 -510 218t-190 548t190.5 548t509.5 218t510 -217.5t191 -548.5q0 -330 -191 -548t-510 -218zM778 129q238 0 372 171t134 431q0 262 -134.5 432t-371.5 170q-238 0 -372 -172t-134 -430q0 -256 133.5 -429t372.5 -173z" />
    <glyph glyph-name="Pi" unicode="&#x3a0;" horiz-adv-x="1464" 
d="M160 1462h1145v-1462h-195v1298h-756v-1298h-194v1462z" />
    <glyph glyph-name="Rho" unicode="&#x3a1;" horiz-adv-x="1327" 
d="M160 1462h641q221 0 334.5 -113.5t113.5 -318.5t-113.5 -319.5t-334.5 -112.5h-447v-598h-194v1462zM354 762h381q160 0 240 67t80 201t-80 201t-240 67h-381v-536z" />
    <glyph glyph-name="Sigma" unicode="&#x3a3;" horiz-adv-x="1249" 
d="M86 0v158l565 602l-540 545v157h1034v-164h-780l524 -528v-8l-553 -598h844v-164h-1094z" />
    <glyph glyph-name="Tau" unicode="&#x3a4;" horiz-adv-x="1176" 
d="M492 0v1298h-488v164h1170v-164h-488v-1298h-194z" />
    <glyph glyph-name="Upsilon" unicode="&#x3a5;" horiz-adv-x="1327" 
d="M764 598v-598h-195v598l-565 864h232l438 -696l428 696h221z" />
    <glyph glyph-name="Phi" unicode="&#x3a6;" horiz-adv-x="1591" 
d="M893 1524v-142q301 -9 460.5 -168t159.5 -452q0 -282 -160.5 -440t-459.5 -168v-154h-195v154q-310 10 -465 160t-155 440q0 287 163 452t457 176v142h195zM891 317q214 9 321 120t107 325q0 218 -107 332t-321 125v-902zM700 1219q-214 -11 -321 -127.5t-107 -337.5
q0 -211 107 -320.5t321 -116.5v902z" />
    <glyph glyph-name="Chi" unicode="&#x3a7;" horiz-adv-x="1251" 
d="M508 752l-481 710h233l365 -571l381 571h217l-484 -710l514 -752h-237l-393 604l-406 -604h-219z" />
    <glyph glyph-name="Psi" unicode="&#x3a8;" horiz-adv-x="1694" 
d="M750 1462h194v-970q205 2 307.5 95t102.5 318v557h194v-563q0 -561 -604 -577v-322h-194v322q-319 3 -462 142.5t-143 434.5v563h195v-557q0 -215 92 -312.5t318 -100.5v970z" />
    <glyph glyph-name="Omega" unicode="&#x3a9;" horiz-adv-x="1554" 
d="M1489 0h-578v147q180 123 270.5 292t90.5 384q0 218 -134.5 364t-355.5 146q-224 0 -361.5 -145t-137.5 -385q0 -206 92 -370t276 -286v-147h-579v164h350q-167 119 -250.5 278.5t-83.5 358.5q0 300 197 498t497 198q303 0 493.5 -194t190.5 -482q0 -206 -84 -370
t-252 -287h359v-164z" />
    <glyph glyph-name="Iotadieresis" unicode="&#x3aa;" horiz-adv-x="530" 
d="M168 0v1230h194v-1230h-194zM367 1603h184v-213h-184v213zM-18 1603h184v-213h-184v213z" />
    <glyph glyph-name="Upsilondieresis" unicode="&#x3ab;" horiz-adv-x="1327" 
d="M764 485v-485h-195v485l-565 743h232l438 -585l428 585h221zM772 1603h184v-213h-184v213zM387 1603h184v-213h-184v213z" />
    <glyph glyph-name="alphatonos" unicode="&#x3ac;" horiz-adv-x="1202" 
d="M1042 231q0 -104 66 -104q38 0 68 8v-135q-50 -25 -121 -25q-164 0 -183 181q-91 -181 -337 -181q-210 0 -335.5 159t-125.5 398q0 248 131.5 399.5t353.5 151.5q201 0 309 -165v141h174v-828zM559 129q150 0 232.5 108t82.5 291q0 182 -84 292t-219 110
q-153 0 -233 -110t-80 -300q0 -162 79.5 -276.5t221.5 -114.5zM582 1499h225l-154 -293h-139z" />
    <glyph glyph-name="epsilontonos" unicode="&#x3ad;" horiz-adv-x="993" 
d="M743 774q-12 80 -70.5 120t-162.5 40q-115 0 -172 -39.5t-57 -118.5q0 -149 168 -149h165v-150h-161q-203 0 -203 -168q0 -92 66 -138t198 -46q119 0 186.5 52.5t83.5 158.5h179q-24 -181 -145 -271t-339 -90q-180 0 -298 84t-118 240q0 198 189 254q-154 49 -154 219
q0 142 118.5 226.5t293.5 84.5q181 0 282.5 -77.5t122.5 -231.5h-172zM492 1499h225l-154 -293h-139z" />
    <glyph glyph-name="etatonos" unicode="&#x3ae;" horiz-adv-x="1141" 
d="M131 1059h164v-168q113 192 348 192q182 0 273.5 -97t91.5 -290v-1077h-174v1098q0 98 -57.5 155.5t-158.5 57.5q-151 0 -232 -91t-81 -241v-598h-174v1059zM586 1499h225l-154 -293h-139z" />
    <glyph glyph-name="iotatonos" unicode="&#x3af;" horiz-adv-x="485" 
d="M315 1059v-830q0 -102 72 -102q20 0 72 10v-135q-62 -27 -135 -27q-183 0 -183 209v875h174zM231 1499h225l-154 -293h-139z" />
    <glyph glyph-name="upsilondieresistonos" unicode="&#x3b0;" horiz-adv-x="1079" 
d="M297 1059v-668q0 -142 55.5 -202t184.5 -60q292 0 292 432q0 270 -127 498h189q115 -206 115 -494q0 -282 -122.5 -436t-346.5 -154q-209 0 -311.5 88.5t-102.5 284.5v711h174zM502 1499h180l-129 -293h-127zM891 1233h-172v213h172v-213zM363 1233h-172v213h172v-213z
" />
    <glyph glyph-name="alpha" unicode="&#x3b1;" horiz-adv-x="1202" 
d="M1042 231q0 -104 66 -104q38 0 68 8v-135q-50 -25 -121 -25q-164 0 -183 181q-91 -181 -337 -181q-210 0 -335.5 159t-125.5 398q0 248 131.5 399.5t353.5 151.5q201 0 309 -165v141h174v-828zM559 129q150 0 232.5 108t82.5 291q0 182 -84 292t-219 110
q-153 0 -233 -110t-80 -300q0 -162 79.5 -276.5t221.5 -114.5z" />
    <glyph glyph-name="beta" unicode="&#x3b2;" horiz-adv-x="1155" 
d="M137 1059q0 229 105.5 333.5t316.5 104.5q201 0 310.5 -96t109.5 -256q0 -107 -53 -180.5t-129 -100.5q284 -63 284 -413q0 -222 -131.5 -349t-314.5 -127q-222 0 -324 164v-520h-174v1440zM311 528q0 -200 80 -299.5t213 -99.5q130 0 211.5 78t81.5 221q0 170 -65.5 247
t-200.5 77h-123v139h55q113 0 172.5 71.5t59.5 182.5q0 92 -59.5 146.5t-176.5 54.5q-127 0 -187.5 -71t-60.5 -243v-504z" />
    <glyph glyph-name="gamma" unicode="&#x3b3;" horiz-adv-x="952" 
d="M928 1059q-48 -300 -145 -571t-244 -513v-356h-181v275q0 218 -98.5 565t-230.5 600h192q75 -125 158.5 -388t107.5 -461q92 179 156.5 391t101.5 458h183z" />
    <glyph glyph-name="delta" unicode="&#x3b4;" horiz-adv-x="1135" 
d="M453 995q-209 121 -209 262q0 103 91.5 171.5t270.5 68.5q188 0 314 -61v-154q-176 70 -314 70q-184 0 -184 -101q0 -37 51 -77t145 -99l72 -45q225 -141 298 -263t73 -261q0 -249 -129.5 -390t-351.5 -141q-238 0 -372 147.5t-134 387.5q0 186 96 313t283 172zM582 913
q-324 -49 -324 -403q0 -191 89 -286t233 -95q137 0 217 98.5t80 278.5q0 245 -295 407z" />
    <glyph glyph-name="epsilon" unicode="&#x3b5;" horiz-adv-x="993" 
d="M743 774q-12 80 -70.5 120t-162.5 40q-115 0 -172 -39.5t-57 -118.5q0 -149 168 -149h165v-150h-161q-203 0 -203 -168q0 -92 66 -138t198 -46q119 0 186.5 52.5t83.5 158.5h179q-24 -181 -145 -271t-339 -90q-180 0 -298 84t-118 240q0 198 189 254q-154 49 -154 219
q0 142 118.5 226.5t293.5 84.5q181 0 282.5 -77.5t122.5 -231.5h-172z" />
    <glyph glyph-name="zeta" unicode="&#x3b6;" horiz-adv-x="887" 
d="M174 1309v153h713v-139q-313 -125 -469 -315t-156 -444q0 -196 75.5 -304t256.5 -108h31q127 0 190.5 -64t63.5 -192q0 -124 -25 -211h-168q25 111 25 180q0 135 -90 135h-72q-223 0 -347 142.5t-124 394.5q0 260 131 461.5t381 310.5h-416z" />
    <glyph glyph-name="eta" unicode="&#x3b7;" horiz-adv-x="1141" 
d="M131 1059h164v-168q113 192 348 192q182 0 273.5 -97t91.5 -290v-1077h-174v1098q0 98 -57.5 155.5t-158.5 57.5q-151 0 -232 -91t-81 -241v-598h-174v1059z" />
    <glyph glyph-name="theta" unicode="&#x3b8;" horiz-adv-x="1094" 
d="M1020 735q0 -760 -473 -760t-473 760q0 762 473 762q239 0 356 -182.5t117 -579.5zM831 819q-12 290 -78.5 407t-205.5 117q-153 0 -216 -122t-71 -402h571zM834 682h-574q1 -262 56 -407.5t231 -145.5q162 0 218.5 120.5t68.5 432.5z" />
    <glyph glyph-name="iota" unicode="&#x3b9;" horiz-adv-x="485" 
d="M315 1059v-830q0 -102 72 -102q20 0 72 10v-135q-62 -27 -135 -27q-183 0 -183 209v875h174z" />
    <glyph glyph-name="kappa" unicode="&#x3ba;" horiz-adv-x="1053" 
d="M131 1059h174v-490l483 490h234l-428 -408l459 -651h-222l-364 526l-162 -153v-373h-174v1059z" />
    <glyph glyph-name="lambda" unicode="&#x3bb;" horiz-adv-x="1061" 
d="M528 803l-305 -803h-198l424 995l-97 252q-37 96 -135 96q-47 0 -98 -12v144q61 22 133 22q103 0 165.5 -48.5t131.5 -234.5l377 -1052q13 -35 57 -35q32 0 66 10v-135q-53 -27 -109 -27q-124 0 -166 113z" />
    <glyph glyph-name="mu" unicode="&#x3bc;" 
d="M1008 0h-164v168h-4q-118 -193 -322 -193q-130 0 -203 72h-4v-428h-174v1440h174v-717q0 -98 56.5 -155.5t154.5 -57.5q150 0 231 90.5t81 241.5v598h174v-1059z" />
    <glyph glyph-name="nu" unicode="&#x3bd;" horiz-adv-x="991" 
d="M967 1059q-76 -491 -371 -1059h-186l-381 1059h194l289 -881q209 441 274 881h181z" />
    <glyph glyph-name="xi" unicode="&#x3be;" horiz-adv-x="870" 
d="M522 0q-202 0 -323 116.5t-121 289.5q0 143 67.5 235.5t202.5 134.5q-96 35 -158.5 119t-62.5 190q0 190 118 301t312 111q141 0 281 -53v-154q-140 58 -281 58q-111 0 -181.5 -67t-70.5 -196q0 -104 73 -168.5t220 -64.5h190v-154h-198q-165 0 -247.5 -69.5
t-82.5 -208.5q0 -135 76 -202.5t228 -67.5q191 0 248.5 -60t57.5 -194q0 -129 -24 -211h-168q24 106 24 180q0 81 -25 108t-95 27h-60z" />
    <glyph glyph-name="omicron" unicode="&#x3bf;" horiz-adv-x="1176" 
d="M588 -25q-236 0 -375 152t-139 401q0 253 139.5 404t374.5 151q234 0 374 -152t140 -403q0 -248 -139.5 -400.5t-374.5 -152.5zM588 129q142 0 236 107.5t94 291.5t-93.5 293t-236.5 109q-144 0 -237 -108.5t-93 -293.5q0 -186 94 -292.5t236 -106.5z" />
    <glyph glyph-name="pi" unicode="&#x3c0;" horiz-adv-x="1348" 
d="M424 905v-905h-174v905h-209v154h1259v-154h-217v-669q0 -109 91 -109q34 0 71 10v-135q-63 -27 -139 -27q-197 0 -197 211v719h-485z" />
    <glyph glyph-name="rho" unicode="&#x3c1;" horiz-adv-x="1167" 
d="M123 526q0 254 127.5 405.5t353.5 151.5t358 -155t132 -402q0 -236 -124 -393.5t-345 -157.5q-89 0 -183 44.5t-141 121.5h-4v-522h-174v907zM596 930q-145 0 -224 -106.5t-79 -293.5q0 -184 85 -293.5t232 -109.5q136 0 217.5 121t81.5 291q0 186 -83.5 288.5
t-229.5 102.5z" />
    <glyph glyph-name="sigma1" unicode="&#x3c2;" horiz-adv-x="1051" 
d="M817 774q-57 156 -242 156q-155 0 -236 -108t-81 -285q0 -197 91 -291t241 -94h67q254 0 254 -256q0 -129 -24 -211h-168q24 106 24 180q0 84 -24.5 109.5t-67.5 25.5h-94q-224 0 -353.5 146.5t-129.5 390.5q0 254 133.5 400t367.5 146q169 0 281 -80.5t143 -228.5h-182z
" />
    <glyph glyph-name="sigma" unicode="&#x3c3;" horiz-adv-x="1157" 
d="M1153 1059v-154h-246q80 -59 122 -163.5t42 -213.5q0 -227 -135.5 -390t-360.5 -163q-228 0 -364.5 153t-136.5 400q0 238 150.5 384.5t398.5 146.5h530zM741 907h-102q-173 0 -277 -96.5t-104 -282.5q0 -185 89 -292t228 -107q148 0 230 107.5t82 291.5q0 258 -146 379z
" />
    <glyph glyph-name="tau" unicode="&#x3c4;" horiz-adv-x="926" 
d="M6 905v154h914v-154h-388v-669q0 -70 29 -89.5t74 -19.5q43 0 80 10v-135q-64 -27 -148 -27q-209 0 -209 211v719h-352z" />
    <glyph glyph-name="upsilon" unicode="&#x3c5;" horiz-adv-x="1079" 
d="M297 1059v-668q0 -142 55.5 -202t184.5 -60q292 0 292 432q0 270 -127 498h189q115 -206 115 -494q0 -282 -122.5 -436t-346.5 -154q-209 0 -311.5 88.5t-102.5 284.5v711h174z" />
    <glyph glyph-name="phi" unicode="&#x3c6;" horiz-adv-x="1466" 
d="M819 1085q267 0 424.5 -150t157.5 -396q0 -253 -145 -397.5t-433 -159.5v-363h-178v363q-280 10 -429.5 150.5t-149.5 402.5q0 252 158 401t421 149v279h174v-279zM819 137q190 -4 294 105.5t104 296.5q0 173 -104 286.5t-294 110.5v-799zM645 932q-189 3 -292 -110
t-103 -287q0 -188 103 -297t292 -105v799z" />
    <glyph glyph-name="chi" unicode="&#x3c7;" horiz-adv-x="920" 
d="M940 -381h-203l-284 600l-271 -600h-202l387 770l-347 670h197l248 -498l248 498h196l-352 -658z" />
    <glyph glyph-name="psi" unicode="&#x3c8;" horiz-adv-x="1356" 
d="M772 129q332 22 332 432q0 270 -127 498h182q115 -208 115 -494q0 -282 -136.5 -429.5t-365.5 -160.5v-356h-174v356q-467 34 -467 521v563h174v-549q0 -357 293 -381v1233h174v-1233z" />
    <glyph glyph-name="omega" unicode="&#x3c9;" horiz-adv-x="1473" 
d="M649 825h168v-458q0 -238 178 -238q106 0 162.5 95t56.5 276q0 312 -188 559h201q172 -221 172 -574q0 -217 -110 -363.5t-283 -146.5q-214 0 -277 222l-4 -13q-26 -83 -90.5 -146t-181.5 -63q-175 0 -277 140t-102 368q0 346 174 576h198q-188 -246 -188 -561
q0 -165 53 -267t162 -102q176 0 176 238v458z" />
    <glyph glyph-name="iotadieresis" unicode="&#x3ca;" horiz-adv-x="485" 
d="M315 1059v-830q0 -102 72 -102q20 0 72 10v-135q-62 -27 -135 -27q-183 0 -183 209v875h174zM330 1446h184v-213h-184v213zM-55 1446h184v-213h-184v213z" />
    <glyph glyph-name="upsilondieresis" unicode="&#x3cb;" horiz-adv-x="1079" 
d="M297 1059v-668q0 -142 55.5 -202t184.5 -60q292 0 292 432q0 270 -127 498h189q115 -206 115 -494q0 -282 -122.5 -436t-346.5 -154q-209 0 -311.5 88.5t-102.5 284.5v711h174zM633 1446h184v-213h-184v213zM248 1446h184v-213h-184v213z" />
    <glyph glyph-name="omicrontonos" unicode="&#x3cc;" horiz-adv-x="1176" 
d="M588 -25q-236 0 -375 152t-139 401q0 253 139.5 404t374.5 151q234 0 374 -152t140 -403q0 -248 -139.5 -400.5t-374.5 -152.5zM588 129q142 0 236 107.5t94 291.5t-93.5 293t-236.5 109q-144 0 -237 -108.5t-93 -293.5q0 -186 94 -292.5t236 -106.5zM574 1499h225
l-154 -293h-139z" />
    <glyph glyph-name="upsilontonos" unicode="&#x3cd;" horiz-adv-x="1079" 
d="M297 1059v-668q0 -142 55.5 -202t184.5 -60q292 0 292 432q0 270 -127 498h189q115 -206 115 -494q0 -282 -122.5 -436t-346.5 -154q-209 0 -311.5 88.5t-102.5 284.5v711h174zM508 1499h225l-154 -293h-139z" />
    <glyph glyph-name="omegatonos" unicode="&#x3ce;" horiz-adv-x="1473" 
d="M649 825h168v-458q0 -238 178 -238q106 0 162.5 95t56.5 276q0 312 -188 559h201q172 -221 172 -574q0 -217 -110 -363.5t-283 -146.5q-214 0 -277 222l-4 -13q-26 -83 -90.5 -146t-181.5 -63q-175 0 -277 140t-102 368q0 346 174 576h198q-188 -246 -188 -561
q0 -165 53 -267t162 -102q176 0 176 238v458zM735 1499h225l-154 -293h-139z" />
    <glyph glyph-name="afii10023" unicode="&#x401;" horiz-adv-x="1251" 
d="M160 0v1230h1009v-164h-815v-349h760v-164h-760v-389h822v-164h-1016zM754 1603h184v-213h-184v213zM369 1603h184v-213h-184v213z" />
    <glyph glyph-name="afii10051" unicode="&#x402;" horiz-adv-x="1528" 
d="M881 -276v165q184 14 282.5 142.5t98.5 322.5q0 189 -83 289t-235 100q-141 0 -232 -91t-91 -271v-381h-195v1298h-422v164h1170v-164h-553v-563h4q110 170 348 170q220 0 351.5 -147t131.5 -404q0 -261 -159 -443t-416 -187z" />
    <glyph glyph-name="afii10052" unicode="&#x403;" horiz-adv-x="1130" 
d="M160 0v1230h958v-164h-764v-1066h-194zM656 1656h223l-269 -293h-131z" />
    <glyph glyph-name="afii10053" unicode="&#x404;" horiz-adv-x="1479" 
d="M1395 506q-35 -260 -202 -400.5t-429 -140.5q-311 0 -493.5 202t-182.5 560q0 345 185 557.5t505 212.5q240 0 407.5 -119t198.5 -338h-194q-75 293 -416 293q-208 0 -337.5 -130t-149.5 -355h704v-164h-708q5 -259 135.5 -407t353.5 -148q176 0 287.5 96.5t140.5 280.5
h195z" />
    <glyph glyph-name="afii10054" unicode="&#x405;" horiz-adv-x="1327" 
d="M680 -35q-270 0 -437 135.5t-167 380.5h184q0 -162 117 -257t309 -95q168 0 269.5 65.5t101.5 200.5q0 78 -46.5 130.5t-122 79.5t-299.5 76q-278 61 -373 152t-95 236q0 200 151 314t379 114q249 0 390.5 -121t148.5 -342h-184q-16 149 -107 224t-256 75
q-158 0 -243 -65t-85 -185q0 -89 76.5 -140t220.5 -81q290 -61 406 -111.5t174.5 -139t58.5 -210.5q0 -202 -164.5 -319t-406.5 -117z" />
    <glyph glyph-name="afii10055" unicode="&#x406;" horiz-adv-x="530" 
d="M168 0v1462h194v-1462h-194z" />
    <glyph glyph-name="afii10056" unicode="&#x407;" horiz-adv-x="530" 
d="M168 0v1230h194v-1230h-194zM367 1603h184v-213h-184v213zM-18 1603h184v-213h-184v213z" />
    <glyph glyph-name="afii10057" unicode="&#x408;" horiz-adv-x="1063" 
d="M903 365q0 -185 -111.5 -292.5t-320.5 -107.5q-205 0 -315.5 108.5t-110.5 317.5v90h195v-61q0 -155 56 -223t179 -68q133 0 183.5 71.5t50.5 192.5v1069h194v-1097z" />
    <glyph glyph-name="afii10058" unicode="&#x409;" horiz-adv-x="2048" 
d="M1155 862h356q224 0 341.5 -110.5t117.5 -321.5q0 -203 -118.5 -316.5t-342.5 -113.5h-548v1294h-455l-33 -886q-8 -219 -106 -331t-246 -112q-66 0 -129 27v166q57 -21 104 -21q101 0 141.5 70.5t47.5 241.5l30 1013h840v-600zM1155 164h303q320 0 320 266
q0 268 -320 268h-303v-534z" />
    <glyph glyph-name="afii10059" unicode="&#x40a;" horiz-adv-x="2048" 
d="M973 0v698h-619v-698h-194v1462h194v-600h619v600h194v-600h344q224 0 341.5 -110.5t117.5 -321.5q0 -203 -118.5 -316.5t-342.5 -113.5h-536zM1167 164h291q320 0 320 266q0 268 -320 268h-291v-534z" />
    <glyph glyph-name="afii10060" unicode="&#x40b;" horiz-adv-x="1528" 
d="M426 0v1298h-422v164h1170v-164h-553v-454q194 61 360 61q230 0 343.5 -110.5t113.5 -302.5v-492h-195v461q0 147 -61.5 211.5t-220.5 64.5q-158 0 -340 -61v-676h-195z" />
    <glyph glyph-name="afii10061" unicode="&#x40c;" horiz-adv-x="1366" 
d="M160 1230h194v-614l742 614h252l-616 -514l640 -716h-246l-527 603l-245 -185v-418h-194v1230zM742 1656h223l-269 -293h-131z" />
    <glyph glyph-name="afii10062" unicode="&#x40e;" horiz-adv-x="1251" 
d="M0 1228h211l425 -739l419 739h207l-621 -1057q-121 -206 -342 -206q-92 0 -172 31v164q84 -31 143 -31q64 0 118.5 26.5t108.5 120.5l30 56zM420 1650q24 -85 81.5 -127.5t148.5 -42.5q88 0 130 46t72 124h105q-27 -142 -108 -212.5t-216 -70.5q-137 0 -215.5 70.5
t-99.5 212.5h102z" />
    <glyph glyph-name="afii10145" unicode="&#x40f;" horiz-adv-x="1479" 
d="M838 -362h-195v362h-483v1462h194v-1294h770v1294h195v-1462h-481v-362z" />
    <glyph glyph-name="afii10017" unicode="&#x410;" horiz-adv-x="1327" 
d="M907 604l-245 684l-250 -684h495zM1128 0l-162 440h-613l-167 -440h-200l571 1462h215l571 -1462h-215z" />
    <glyph glyph-name="afii10018" unicode="&#x411;" horiz-adv-x="1376" 
d="M160 0v1462h1001v-164h-807v-436h477q224 0 341.5 -110.5t117.5 -321.5q0 -203 -118.5 -316.5t-342.5 -113.5h-669zM354 164h422q320 0 320 266q0 268 -320 268h-422v-534z" />
    <glyph glyph-name="afii10019" unicode="&#x412;" horiz-adv-x="1403" 
d="M160 1462h530q258 0 341.5 -31t150.5 -116t67 -211q0 -121 -54.5 -204t-162.5 -128q135 -29 207 -123t72 -229q0 -176 -123 -298t-322 -122h-706v1462zM354 834h389q166 0 239 58t73 175q0 114 -62 172.5t-250 58.5h-389v-464zM354 164h488q129 0 201.5 69.5t72.5 192.5
q0 122 -79.5 183t-237.5 61h-445v-506z" />
    <glyph glyph-name="afii10020" unicode="&#x413;" horiz-adv-x="1130" 
d="M160 0v1462h958v-164h-764v-1298h-194z" />
    <glyph glyph-name="afii10021" unicode="&#x414;" horiz-adv-x="1479" 
d="M1260 -362v362h-1047v-362h-195v526h144q190 390 190 934v364h940v-1298h162v-526h-194zM1098 1298h-553v-206q0 -544 -170 -928h723v1134z" />
    <glyph glyph-name="afii10022" unicode="&#x415;" horiz-adv-x="1251" 
d="M160 0v1462h1009v-164h-815v-464h760v-164h-760v-506h822v-164h-1016z" />
    <glyph glyph-name="afii10024" unicode="&#x416;" horiz-adv-x="2054" 
d="M1829 0l-533 735l-172 -184v-551h-194v551l-172 180l-535 -731h-239l645 854l-580 608h244l637 -680v680h194v-680l641 680h240l-582 -600l648 -862h-242z" />
    <glyph glyph-name="afii10025" unicode="&#x417;" horiz-adv-x="1339" 
d="M84 481h186q2 -165 108.5 -261.5t307.5 -96.5q169 0 271 82.5t102 214.5q0 129 -84 196.5t-285 67.5h-131v156h74q207 -6 291 58t84 185q0 127 -78.5 190.5t-235.5 63.5q-170 0 -261.5 -75t-104.5 -224h-187q8 221 158 340t401 119q236 0 368 -110.5t132 -294.5
q0 -102 -66 -187.5t-176 -128.5q146 -28 219.5 -130.5t73.5 -229.5q0 -194 -157.5 -322.5t-415.5 -128.5q-283 0 -438.5 136t-155.5 380z" />
    <glyph glyph-name="afii10026" unicode="&#x418;" horiz-adv-x="1479" 
d="M160 1462h194v-1222h4l715 1222h246v-1462h-195v1227h-4l-717 -1227h-243v1462z" />
    <glyph glyph-name="afii10027" unicode="&#x419;" horiz-adv-x="1479" 
d="M1319 0h-184v967l-762 -967h-213v1230h184v-979l768 979h207v-1230zM532 1650q24 -85 81.5 -127.5t148.5 -42.5q88 0 130 46t72 124h105q-27 -142 -108 -212.5t-216 -70.5q-137 0 -215.5 70.5t-99.5 212.5h102z" />
    <glyph glyph-name="afii10028" unicode="&#x41a;" horiz-adv-x="1366" 
d="M160 1462h194v-729l742 729h252l-617 -590l641 -872h-246l-528 739l-244 -227v-512h-194v1462z" />
    <glyph glyph-name="afii10029" unicode="&#x41b;" horiz-adv-x="1397" 
d="M1231 0h-195v1294h-530l-33 -886q-8 -219 -106 -331t-246 -112q-66 0 -129 27v166q57 -21 104 -21q101 0 141.5 70.5t47.5 241.5l30 1013h916v-1462z" />
    <glyph glyph-name="afii10030" unicode="&#x41c;" horiz-adv-x="1784" 
d="M164 1462h266l461 -1229l463 1229h266v-1462h-184v1224l-461 -1224h-166l-461 1224v-1224h-184v1462z" />
    <glyph glyph-name="afii10031" unicode="&#x41d;" horiz-adv-x="1479" 
d="M160 0v1462h194v-628h770v628h195v-1462h-195v670h-770v-670h-194z" />
    <glyph glyph-name="afii10032" unicode="&#x41e;" horiz-adv-x="1556" 
d="M778 -35q-320 0 -510 218t-190 548t190.5 548t509.5 218t510 -217.5t191 -548.5q0 -330 -191 -548t-510 -218zM778 129q238 0 372 171t134 431q0 262 -134.5 432t-371.5 170q-238 0 -372 -172t-134 -430q0 -256 133.5 -429t372.5 -173z" />
    <glyph glyph-name="afii10033" unicode="&#x41f;" horiz-adv-x="1479" 
d="M1319 0h-195v1298h-770v-1298h-194v1462h1159v-1462z" />
    <glyph glyph-name="afii10034" unicode="&#x420;" horiz-adv-x="1327" 
d="M160 1462h641q221 0 334.5 -113.5t113.5 -318.5t-113.5 -319.5t-334.5 -112.5h-447v-598h-194v1462zM354 762h381q160 0 240 67t80 201t-80 201t-240 67h-381v-536z" />
    <glyph glyph-name="afii10035" unicode="&#x421;" horiz-adv-x="1479" 
d="M764 -35q-315 0 -495.5 208t-180.5 554q0 339 186.5 554.5t505.5 215.5q241 0 405.5 -125.5t196.5 -349.5h-194q-33 156 -144.5 233.5t-265.5 77.5q-235 0 -365 -165.5t-130 -426.5q0 -284 131 -448t366 -164q174 0 290.5 110t131.5 312h195q-29 -277 -191 -431.5
t-442 -154.5z" />
    <glyph glyph-name="afii10036" unicode="&#x422;" horiz-adv-x="1176" 
d="M492 0v1298h-488v164h1170v-164h-488v-1298h-194z" />
    <glyph glyph-name="afii10037" unicode="&#x423;" horiz-adv-x="1251" 
d="M0 1462h211l422 -893l422 893h207l-621 -1253q-121 -244 -342 -244q-92 0 -172 31v164q84 -31 143 -31q64 0 119 38t109 152l30 68z" />
    <glyph glyph-name="afii10038" unicode="&#x424;" horiz-adv-x="1593" 
d="M895 174v-174h-195v174q-288 7 -462.5 159t-174.5 402q0 246 174 403t463 169v155h195v-155q286 -8 460.5 -164t174.5 -408q0 -247 -169 -395.5t-466 -165.5zM700 1149q-214 -10 -329 -120t-115 -294q0 -181 114 -285t330 -118v817zM895 1149v-817q212 10 327 114
t115 289q0 184 -114 294t-328 120z" />
    <glyph glyph-name="afii10039" unicode="&#x425;" horiz-adv-x="1251" 
d="M508 752l-481 710h233l365 -571l381 571h217l-484 -710l514 -752h-237l-393 604l-406 -604h-219z" />
    <glyph glyph-name="afii10040" unicode="&#x426;" horiz-adv-x="1479" 
d="M1260 0h-1100v1462h194v-1294h744v1294h194v-1294h162v-530h-194v362z" />
    <glyph glyph-name="afii10041" unicode="&#x427;" horiz-adv-x="1370" 
d="M1016 0v649q-233 -51 -400 -51q-259 0 -388.5 108t-129.5 324v432h195v-403q0 -154 79 -222.5t253 -68.5q154 0 391 49v645h194v-1462h-194z" />
    <glyph glyph-name="afii10042" unicode="&#x428;" horiz-adv-x="2198" 
d="M160 0v1462h194v-1294h645v1294h195v-1294h645v1294h195v-1462h-1874z" />
    <glyph glyph-name="afii10043" unicode="&#x429;" horiz-adv-x="2220" 
d="M160 0v1462h194v-1294h645v1294h195v-1294h645v1294h195v-1294h161v-530h-194v362h-1841z" />
    <glyph glyph-name="afii10044" unicode="&#x42a;" horiz-adv-x="1645" 
d="M477 0v1298h-473v164h668v-600h436q223 0 341 -110.5t118 -321.5q0 -203 -119 -316.5t-342 -113.5h-629zM672 164h381q159 0 239 66.5t80 199.5q0 134 -80 201t-239 67h-381v-534z" />
    <glyph glyph-name="afii10045" unicode="&#x42b;" horiz-adv-x="1784" 
d="M1430 1462h194v-1462h-194v1462zM160 0v1462h194v-600h437q223 0 340.5 -110.5t117.5 -321.5q0 -203 -118.5 -316.5t-342.5 -113.5h-628zM354 164h381q160 0 240 66.5t80 199.5q0 134 -80 201t-240 67h-381v-534z" />
    <glyph glyph-name="afii10046" unicode="&#x42c;" horiz-adv-x="1327" 
d="M160 0v1462h194v-600h437q223 0 340.5 -110.5t117.5 -321.5q0 -203 -118.5 -316.5t-342.5 -113.5h-628zM354 164h381q320 0 320 266q0 268 -320 268h-381v-534z" />
    <glyph glyph-name="afii10047" unicode="&#x42d;" horiz-adv-x="1479" 
d="M88 506h195q28 -188 138 -281.5t302 -93.5q196 0 328 147t141 406h-705v164h705q-20 226 -144 354.5t-323 128.5q-157 0 -272 -77.5t-160 -213.5h-195q52 215 223 336t400 121q317 0 493.5 -209t176.5 -561q0 -339 -190.5 -550.5t-483.5 -211.5q-264 0 -431 141.5
t-198 399.5z" />
    <glyph glyph-name="afii10048" unicode="&#x42e;" horiz-adv-x="2048" 
d="M354 842h283q35 307 211.5 481t451.5 174q310 0 490 -216.5t180 -549.5t-179.5 -549.5t-490.5 -216.5q-287 0 -467.5 193t-197.5 520h-281v-678h-194v1462h194v-620zM1300 129q231 0 353.5 169t122.5 433t-122.5 433t-353.5 169q-228 0 -352.5 -166t-124.5 -436
t124.5 -436t352.5 -166z" />
    <glyph glyph-name="afii10049" unicode="&#x42f;" horiz-adv-x="1362" 
d="M225 0h-237l489 633q-182 24 -273 126.5t-91 282.5q0 203 122.5 311.5t337.5 108.5h629v-1462h-194v625h-301zM1008 1298h-410q-147 0 -219 -68.5t-72 -187.5q0 -127 77.5 -190.5t233.5 -63.5h390v510z" />
    <glyph glyph-name="afii10065" unicode="&#x430;" horiz-adv-x="1100" 
d="M786 547q-41 -34 -197 -54q-141 -19 -199.5 -36.5t-95 -59.5t-36.5 -112q0 -72 52.5 -114t152.5 -42q150 0 236.5 73.5t86.5 166.5v178zM797 139q-69 -82 -162 -123t-211 -41q-167 0 -258.5 77.5t-91.5 219.5q0 156 102.5 235t392.5 113q118 13 168.5 42t50.5 92
q0 88 -59 132t-176 44q-130 0 -196 -50.5t-68 -150.5h-174q8 177 120 265.5t328 88.5q199 0 298.5 -72.5t99.5 -217.5v-545q0 -73 9 -96t46 -23q22 0 53 10v-135q-47 -29 -125 -29q-74 0 -110.5 41t-36.5 123z" />
    <glyph glyph-name="afii10066" unicode="&#x431;" horiz-adv-x="1176" 
d="M870 1462h174q-12 -78 -68.5 -133t-201.5 -76l-129 -18q-179 -25 -271.5 -111.5t-135.5 -306.5h6q128 238 399 238q207 0 333 -139t126 -386q0 -253 -143.5 -404t-368.5 -151q-244 0 -378 153.5t-134 438.5q0 408 133.5 591.5t394.5 221.5l135 21q116 18 129 61zM592 125
q140 0 233 111t93 290q0 176 -83 279.5t-233 103.5q-153 0 -249.5 -105t-96.5 -280q0 -178 91 -288.5t245 -110.5z" />
    <glyph glyph-name="afii10067" unicode="&#x432;" horiz-adv-x="1100" 
d="M131 1059h490q360 0 360 -258q0 -157 -154 -230v-2q201 -54 201 -258q0 -138 -92 -224.5t-229 -86.5h-576v1059zM616 631q189 0 189 141q0 137 -195 137h-309v-278h315zM301 150h373q84 0 131 44t47 121q0 168 -209 168h-342v-333z" />
    <glyph glyph-name="afii10068" unicode="&#x433;" horiz-adv-x="864" 
d="M305 905v-905h-174v1059h725v-154h-551z" />
    <glyph glyph-name="afii10069" unicode="&#x434;" horiz-adv-x="1176" 
d="M975 -336v336h-791v-336h-174v490h115q133 302 133 649v256h754v-905h137v-490h-174zM838 905h-408v-108q0 -362 -125 -643h533v751z" />
    <glyph glyph-name="afii10070" unicode="&#x435;" horiz-adv-x="1100" 
d="M866 631q-11 136 -97 217.5t-208 81.5q-126 0 -209.5 -82.5t-93.5 -216.5h608zM582 -25q-248 0 -378 160t-130 397q0 242 141.5 396.5t355.5 154.5q229 0 354.5 -168t125.5 -438h-793q0 -159 87.5 -253.5t242.5 -94.5q115 0 183.5 51.5t90.5 155.5h172
q-35 -178 -153.5 -269.5t-298.5 -91.5z" />
    <glyph glyph-name="afii10072" unicode="&#x436;" horiz-adv-x="1591" 
d="M213 0h-213l465 618l-406 441h220l430 -481v481h174v-492l438 492h211l-404 -441l463 -618h-215l-362 508l-131 -137v-371h-174v367l-136 141z" />
    <glyph glyph-name="afii10073" unicode="&#x437;" horiz-adv-x="1024" 
d="M74 752q13 158 129.5 244.5t314.5 86.5q187 0 291 -80.5t104 -218.5q0 -150 -174 -217q209 -59 209 -256q0 -153 -123 -244.5t-325 -91.5q-213 0 -325 89.5t-124 269.5h176q9 -109 77 -163t196 -54q118 0 193 49t75 141q0 172 -225 172h-146v150h117q223 0 223 147
q0 74 -56 120t-165 46q-121 0 -187.5 -47.5t-78.5 -142.5h-176z" />
    <glyph glyph-name="afii10074" unicode="&#x438;" 
d="M131 0v1059h174v-863l479 863h224v-1059h-174v864l-480 -864h-223z" />
    <glyph glyph-name="afii10075" unicode="&#x439;" 
d="M131 0v1059h174v-863l479 863h224v-1059h-174v864l-480 -864h-223zM352 1493q24 -85 81.5 -127.5t148.5 -42.5q88 0 130 46t72 124h105q-27 -142 -108 -212.5t-216 -70.5q-137 0 -215.5 70.5t-99.5 212.5h102z" />
    <glyph glyph-name="afii10076" unicode="&#x43a;" horiz-adv-x="1053" 
d="M131 1059h174v-490l483 490h234l-428 -408l459 -651h-222l-364 526l-162 -153v-373h-174v1059z" />
    <glyph glyph-name="afii10077" unicode="&#x43b;" horiz-adv-x="1118" 
d="M987 0h-174v905h-383l-22 -565q-7 -182 -78 -272.5t-205 -90.5q-63 0 -121 23v143q38 -16 88 -16q69 0 105.5 58t40.5 175l24 699h725v-1059z" />
    <glyph glyph-name="afii10078" unicode="&#x43c;" horiz-adv-x="1409" 
d="M1104 0v840h-6l-314 -840h-159l-314 840h-6v-840h-174v1059h252l322 -864h4l321 864h248v-1059h-174z" />
    <glyph glyph-name="afii10079" unicode="&#x43d;" 
d="M131 0v1059h174v-422h529v422h174v-1059h-174v483h-529v-483h-174z" />
    <glyph glyph-name="afii10080" unicode="&#x43e;" horiz-adv-x="1176" 
d="M588 -25q-236 0 -375 152t-139 401q0 253 139.5 404t374.5 151q234 0 374 -152t140 -403q0 -248 -139.5 -400.5t-374.5 -152.5zM588 129q142 0 236 107.5t94 291.5t-93.5 293t-236.5 109q-144 0 -237 -108.5t-93 -293.5q0 -186 94 -292.5t236 -106.5z" />
    <glyph glyph-name="afii10081" unicode="&#x43f;" 
d="M131 0v1059h877v-1059h-174v905h-529v-905h-174z" />
    <glyph glyph-name="afii10082" unicode="&#x440;" horiz-adv-x="1214" 
d="M137 1059h174v-144q42 84 127.5 126t214.5 42q227 0 357.5 -157.5t130.5 -399.5q0 -246 -129.5 -398.5t-354.5 -152.5q-103 0 -198.5 44t-147.5 122v-522h-174v1440zM629 930q-152 0 -238 -110t-86 -290q0 -183 88 -292t246 -109q152 0 234.5 108t82.5 302q0 171 -87 281
t-240 110z" />
    <glyph glyph-name="afii10083" unicode="&#x441;" horiz-adv-x="1100" 
d="M569 -25q-230 0 -362.5 145t-132.5 396q0 259 133 413t366 154q199 0 319 -96t138 -268h-180q-24 105 -89.5 158t-172.5 53q-162 0 -246 -109.5t-84 -304.5q0 -170 80.5 -278.5t228.5 -108.5q127 0 200 64.5t91 193.5h178q-32 -206 -148.5 -309t-318.5 -103z" />
    <glyph glyph-name="afii10084" unicode="&#x442;" horiz-adv-x="948" 
d="M561 905v-905h-174v905h-379v154h932v-154h-379z" />
    <glyph glyph-name="afii10085" unicode="&#x443;" horiz-adv-x="1024" 
d="M564 -98q-61 -159 -128.5 -221t-178.5 -62q-72 0 -121 18v160q71 -24 102 -24q93 0 144 96l54 137l-420 1053h197l311 -870l299 870h185z" />
    <glyph glyph-name="afii10086" unicode="&#x444;" horiz-adv-x="1640" 
d="M907 80v-461h-174v465q-102 -109 -244 -109q-193 0 -300 152t-107 418q0 251 111 394.5t301 143.5q151 0 239 -114v493h174v-493q109 114 252 114q185 0 292.5 -147.5t107.5 -390.5q0 -258 -108.5 -414t-317.5 -156q-140 0 -226 105zM733 791q-65 147 -215 147
q-123 0 -189.5 -101.5t-66.5 -295.5q0 -191 66.5 -305.5t199.5 -114.5q80 0 137.5 40t67.5 97v533zM907 793v-535q11 -57 68 -97t137 -40q132 0 199 112t67 308q0 197 -67.5 297t-188.5 100q-160 0 -215 -145z" />
    <glyph glyph-name="afii10087" unicode="&#x445;" horiz-adv-x="1061" 
d="M416 557l-369 502h223l254 -371l264 371h209l-364 -488l409 -571h-223l-295 438l-295 -438h-211z" />
    <glyph glyph-name="afii10088" unicode="&#x446;" horiz-adv-x="1163" 
d="M963 0h-832v1059h174v-905h520v905h174v-905h138v-490h-174v336z" />
    <glyph glyph-name="afii10089" unicode="&#x447;" horiz-adv-x="1071" 
d="M766 0v469q-179 -49 -328 -49q-344 0 -344 305v334h174v-307q0 -103 52.5 -144t150.5 -41q128 0 295 45v447h174v-1059h-174z" />
    <glyph glyph-name="afii10090" unicode="&#x448;" horiz-adv-x="1657" 
d="M131 1059h174v-905h436v905h174v-905h437v905h174v-1059h-1395v1059z" />
    <glyph glyph-name="afii10091" unicode="&#x449;" horiz-adv-x="1690" 
d="M131 1059h174v-905h436v905h174v-905h437v905h174v-905h137v-490h-174v336h-1358v1059z" />
    <glyph glyph-name="afii10092" unicode="&#x44a;" horiz-adv-x="1251" 
d="M311 0v905h-305v154h479v-404h377q156 0 250 -85t94 -236t-97 -242.5t-249 -91.5h-549zM485 506v-356h328q106 0 159.5 45t53.5 135q0 88 -53 132t-158 44h-330z" />
    <glyph glyph-name="afii10093" unicode="&#x44b;" horiz-adv-x="1450" 
d="M1145 0v1059h174v-1059h-174zM131 0v1059h174v-404h328q155 0 249.5 -86t94.5 -237q0 -149 -95 -240.5t-251 -91.5h-500zM305 506v-356h279q106 0 159.5 44.5t53.5 133.5t-53 133.5t-158 44.5h-281z" />
    <glyph glyph-name="afii10094" unicode="&#x44c;" horiz-adv-x="1071" 
d="M131 0v1059h174v-404h377q156 0 250 -86t94 -237q0 -149 -95 -240.5t-251 -91.5h-549zM305 506v-356h328q213 0 213 178t-211 178h-330z" />
    <glyph glyph-name="afii10095" unicode="&#x44d;" horiz-adv-x="1100" 
d="M63 360h177q18 -118 95 -176.5t189 -58.5q138 0 226 89t92 263h-443v154h439q-20 151 -95.5 227t-207.5 76q-224 0 -279 -184h-184q30 157 153 245t307 88q237 0 365.5 -149t128.5 -406q0 -253 -134 -403t-376 -150q-192 0 -312 102.5t-141 282.5z" />
    <glyph glyph-name="afii10096" unicode="&#x44e;" horiz-adv-x="1569" 
d="M520 635q27 206 153.5 327t330.5 121q227 0 359 -150t132 -405q0 -251 -131.5 -402t-359.5 -151q-212 0 -343.5 135t-146.5 375h-209v-485h-174v1059h174v-424h215zM1004 129q137 0 222 101.5t85 297.5q0 197 -85 299.5t-222 102.5q-138 0 -224 -102.5t-86 -299.5
q0 -196 86 -297.5t224 -101.5z" />
    <glyph glyph-name="afii10097" unicode="&#x44f;" horiz-adv-x="1096" 
d="M791 0v432h-232l-334 -432h-231l364 438q-131 24 -196.5 101t-65.5 206q0 148 93.5 231t246.5 83h529v-1059h-174zM463 905q-95 0 -142 -40t-47 -120t48 -119.5t145 -39.5h324v319h-328z" />
    <glyph glyph-name="afii10071" unicode="&#x451;" horiz-adv-x="1100" 
d="M866 631q-11 136 -97 217.5t-208 81.5q-126 0 -209.5 -82.5t-93.5 -216.5h608zM582 -25q-248 0 -378 160t-130 397q0 242 141.5 396.5t355.5 154.5q229 0 354.5 -168t125.5 -438h-793q0 -159 87.5 -253.5t242.5 -94.5q115 0 183.5 51.5t90.5 155.5h172
q-35 -178 -153.5 -269.5t-298.5 -91.5zM676 1446h184v-213h-184v213zM291 1446h184v-213h-184v213z" />
    <glyph glyph-name="afii10099" unicode="&#x452;" 
d="M1008 222q0 -260 -145.5 -417.5t-411.5 -185.5v162q191 33 287 145t96 304v462q0 96 -57.5 151.5t-158.5 55.5q-149 0 -231 -89t-82 -237v-573h-174v1188h-176v125h176v149h174v-149h348v-125h-348v-309q44 77 133.5 125.5t204.5 48.5q182 0 273.5 -95.5t91.5 -285.5
v-450z" />
    <glyph glyph-name="afii10100" unicode="&#x453;" horiz-adv-x="864" 
d="M305 905v-905h-174v1059h725v-154h-551zM533 1499h223l-269 -293h-131z" />
    <glyph glyph-name="afii10101" unicode="&#x454;" horiz-adv-x="1096" 
d="M1032 360q-28 -180 -147 -282.5t-310 -102.5q-238 0 -369.5 143t-131.5 396q0 267 134 418t374 151q382 0 442 -333h-184q-49 184 -256 184q-274 0 -322 -303h447v-154h-453q10 -170 92 -261t223 -91q241 0 285 235h176z" />
    <glyph glyph-name="afii10102" unicode="&#x455;" horiz-adv-x="1024" 
d="M512 -25q-200 0 -320 89t-129 270h175q3 -102 80.5 -153.5t203.5 -51.5q128 0 192 39.5t64 118.5q0 82 -80.5 121.5t-265.5 76.5q-166 32 -256 99t-90 198q0 139 113 220t282 81q208 0 316.5 -83t117.5 -248h-174q-6 88 -75 133t-170 45q-113 0 -169.5 -34t-56.5 -101
q0 -55 56 -94.5t168 -62.5q189 -40 272 -69.5t140 -93t57 -166.5q0 -163 -124 -248.5t-327 -85.5z" />
    <glyph glyph-name="afii10103" unicode="&#x456;" horiz-adv-x="455" 
d="M315 1249h-174v213h174v-213zM141 0v1059h174v-1059h-174z" />
    <glyph glyph-name="afii10104" unicode="&#x457;" horiz-adv-x="455" 
d="M141 0v1059h174v-1059h-174zM328 1446h184v-213h-184v213zM-57 1446h184v-213h-184v213z" />
    <glyph glyph-name="afii10105" unicode="&#x458;" horiz-adv-x="455" 
d="M315 1249h-174v213h174v-213zM141 -81v1140h174v-1169q0 -135 -63.5 -203t-190.5 -68q-49 0 -90 9v149q42 -4 72 -4q57 0 77.5 32t20.5 114z" />
    <glyph glyph-name="afii10106" unicode="&#x459;" horiz-adv-x="1583" 
d="M420 905l-23 -579q-7 -173 -79.5 -261t-196.5 -88q-60 0 -117 23v143q38 -16 84 -16q132 0 139 219l25 713h674v-404h270q156 0 249 -86t93 -237q0 -150 -94 -241t-250 -91h-442v905h-332zM926 506v-356h221q211 0 211 178t-209 178h-223z" />
    <glyph glyph-name="afii10107" unicode="&#x45a;" horiz-adv-x="1593" 
d="M752 0v504h-447v-504h-174v1059h174v-404h447v404h174v-404h278q156 0 250 -86t94 -237q0 -149 -95 -240.5t-251 -91.5h-450zM926 506v-356h229q213 0 213 178t-211 178h-231z" />
    <glyph glyph-name="afii10108" unicode="&#x45b;" 
d="M834 0v692q0 96 -57.5 151.5t-158.5 55.5q-149 0 -231 -89t-82 -237v-573h-174v1188h-176v125h176v149h174v-149h348v-125h-348v-309h4q40 77 129.5 125.5t204.5 48.5q365 0 365 -381v-672h-174z" />
    <glyph glyph-name="afii10109" unicode="&#x45c;" horiz-adv-x="1053" 
d="M131 1059h174v-490l483 490h234l-428 -408l459 -651h-222l-364 526l-162 -153v-373h-174v1059zM592 1499h223l-269 -293h-131z" />
    <glyph glyph-name="afii10110" unicode="&#x45e;" horiz-adv-x="1024" 
d="M564 -98q-61 -159 -128.5 -221t-178.5 -62q-72 0 -121 18v160q71 -24 102 -24q93 0 144 96l54 137l-420 1053h197l311 -870l299 870h185zM305 1493q24 -85 81.5 -127.5t148.5 -42.5q88 0 130 46t72 124h105q-27 -142 -108 -212.5t-216 -70.5q-137 0 -215.5 70.5
t-99.5 212.5h102z" />
    <glyph glyph-name="afii10193" unicode="&#x45f;" 
d="M655 -336h-174v336h-350v1059h174v-905h529v905h174v-1059h-353v-336z" />
    <glyph glyph-name="afii10050" unicode="&#x490;" horiz-adv-x="1130" 
d="M1108 1298h-754v-1298h-194v1462h753v205h195v-369z" />
    <glyph glyph-name="afii10098" unicode="&#x491;" horiz-adv-x="864" 
d="M848 905h-543v-905h-174v1059h543v317h174v-471z" />
    <glyph glyph-name="Wgrave" unicode="&#x1e80;" horiz-adv-x="1896" 
d="M1481 0h-203l-336 1020l-340 -1020h-203l-374 1230h198l287 -1013l332 1013h211l327 -1013l297 1013h195zM668 1656h223l176 -293h-131z" />
    <glyph glyph-name="wgrave" unicode="&#x1e81;" horiz-adv-x="1552" 
d="M1180 0h-185l-216 846l-216 -846h-188l-340 1059h192l242 -869l215 869h190l224 -869l239 869h181zM475 1499h223l176 -293h-131z" />
    <glyph glyph-name="Wacute" unicode="&#x1e82;" horiz-adv-x="1896" 
d="M1481 0h-203l-336 1020l-340 -1020h-203l-374 1230h198l287 -1013l332 1013h211l327 -1013l297 1013h195zM1000 1656h223l-269 -293h-131z" />
    <glyph glyph-name="wacute" unicode="&#x1e83;" horiz-adv-x="1552" 
d="M1180 0h-185l-216 846l-216 -846h-188l-340 1059h192l242 -869l215 869h190l224 -869l239 869h181zM857 1499h223l-269 -293h-131z" />
    <glyph glyph-name="Wdieresis" unicode="&#x1e84;" horiz-adv-x="1896" 
d="M1481 0h-203l-336 1020l-340 -1020h-203l-374 1230h198l287 -1013l332 1013h211l327 -1013l297 1013h195zM1051 1603h184v-213h-184v213zM666 1603h184v-213h-184v213z" />
    <glyph glyph-name="wdieresis" unicode="&#x1e85;" horiz-adv-x="1552" 
d="M1180 0h-185l-216 846l-216 -846h-188l-340 1059h192l242 -869l215 869h190l224 -869l239 869h181zM883 1446h184v-213h-184v213zM498 1446h184v-213h-184v213z" />
    <glyph glyph-name="Adotbelow" unicode="&#x1ea0;" horiz-adv-x="1327" 
d="M907 604l-245 684l-250 -684h495zM1128 0l-162 440h-613l-167 -440h-200l571 1462h215l571 -1462h-215zM755 -355h-184v213h184v-213z" />
    <glyph glyph-name="adotbelow" unicode="&#x1ea1;" horiz-adv-x="1100" 
d="M786 547q-41 -34 -197 -54q-141 -19 -199.5 -36.5t-95 -59.5t-36.5 -112q0 -72 52.5 -114t152.5 -42q150 0 236.5 73.5t86.5 166.5v178zM797 139q-69 -82 -162 -123t-211 -41q-167 0 -258.5 77.5t-91.5 219.5q0 156 102.5 235t392.5 113q118 13 168.5 42t50.5 92
q0 88 -59 132t-176 44q-130 0 -196 -50.5t-68 -150.5h-174q8 177 120 265.5t328 88.5q199 0 298.5 -72.5t99.5 -217.5v-545q0 -73 9 -96t46 -23q22 0 53 10v-135q-47 -29 -125 -29q-74 0 -110.5 41t-36.5 123zM642 -355h-184v213h184v-213z" />
    <glyph glyph-name="Ahookabove" unicode="&#x1ea2;" horiz-adv-x="1327" 
d="M906 507l-245 549l-248 -549h493zM1128 0l-152 343h-633l-157 -343h-200l571 1230h215l571 -1230h-215zM524 1545v97q68 25 125 25q194 0 194 -134q0 -57 -41.5 -94t-118.5 -39v-25h-72v107h12q71 0 71 41q0 42 -71 42q-37 0 -99 -20z" />
    <glyph glyph-name="ahookabove" unicode="&#x1ea3;" horiz-adv-x="1100" 
d="M786 547q-41 -34 -197 -54q-141 -19 -199.5 -36.5t-95 -59.5t-36.5 -112q0 -72 52.5 -114t152.5 -42q150 0 236.5 73.5t86.5 166.5v178zM797 139q-69 -82 -162 -123t-211 -41q-167 0 -258.5 77.5t-91.5 219.5q0 156 102.5 235t392.5 113q118 13 168.5 42t50.5 92
q0 88 -59 132t-176 44q-130 0 -196 -50.5t-68 -150.5h-174q8 177 120 265.5t328 88.5q199 0 298.5 -72.5t99.5 -217.5v-545q0 -73 9 -96t46 -23q22 0 53 10v-135q-47 -29 -125 -29q-74 0 -110.5 41t-36.5 123zM549 1215h-72v112q83 0 83 51q0 52 -71 52q-37 0 -99 -20v97
q55 25 125 25q97 0 145.5 -36t48.5 -108q0 -69 -40 -105t-120 -38v-30z" />
    <glyph glyph-name="Acircumflexacute" unicode="&#x1ea4;" horiz-adv-x="1327" 
d="M907 465l-245 487l-248 -487h493zM1128 0l-152 301h-632l-158 -301h-200l571 1126h215l571 -1126h-215zM675 1228zM577 1517h171l223 -218h-173l-136 122l-148 -122h-158zM1020 1667h223l-239 -228h-131z" />
    <glyph glyph-name="acircumflexacute" unicode="&#x1ea5;" horiz-adv-x="1100" 
d="M786 547q-41 -34 -197 -54q-141 -19 -199.5 -36.5t-95 -59.5t-36.5 -112q0 -72 52.5 -114t152.5 -42q150 0 236.5 73.5t86.5 166.5v178zM797 139q-69 -82 -162 -123t-211 -41q-167 0 -258.5 77.5t-91.5 219.5q0 156 102.5 235t392.5 113q118 13 168.5 42t50.5 92
q0 88 -59 132t-176 44q-130 0 -196 -50.5t-68 -150.5h-174q8 177 120 265.5t328 88.5q199 0 298.5 -72.5t99.5 -217.5v-545q0 -73 9 -96t46 -23q22 0 53 10v-135q-47 -29 -125 -29q-74 0 -110.5 41t-36.5 123zM463 1429h171l223 -218h-173l-136 122l-148 -122h-158z
M915 1667h223l-269 -293h-131z" />
    <glyph glyph-name="Acircumflexgrave" unicode="&#x1ea6;" horiz-adv-x="1327" 
d="M907 465l-245 487l-248 -487h493zM1128 0l-152 301h-632l-158 -301h-200l571 1126h215l571 -1126h-215zM675 1228zM577 1517h171l223 -218h-173l-136 122l-148 -122h-158zM86 1667h223l146 -228h-131z" />
    <glyph glyph-name="acircumflexgrave" unicode="&#x1ea7;" horiz-adv-x="1100" 
d="M786 547q-41 -34 -197 -54q-141 -19 -199.5 -36.5t-95 -59.5t-36.5 -112q0 -72 52.5 -114t152.5 -42q150 0 236.5 73.5t86.5 166.5v178zM797 139q-69 -82 -162 -123t-211 -41q-167 0 -258.5 77.5t-91.5 219.5q0 156 102.5 235t392.5 113q118 13 168.5 42t50.5 92
q0 88 -59 132t-176 44q-130 0 -196 -50.5t-68 -150.5h-174q8 177 120 265.5t328 88.5q199 0 298.5 -72.5t99.5 -217.5v-545q0 -73 9 -96t46 -23q22 0 53 10v-135q-47 -29 -125 -29q-74 0 -110.5 41t-36.5 123zM473 1429h171l223 -218h-173l-136 122l-148 -122h-158z
M-28 1667h223l176 -293h-131z" />
    <glyph glyph-name="Acircumflexhookabove" unicode="&#x1ea8;" horiz-adv-x="1327" 
d="M907 465l-245 487l-248 -487h493zM1128 0l-152 301h-632l-158 -301h-200l571 1126h215l571 -1126h-215zM675 1228zM577 1454h171l223 -218h-173l-136 122l-148 -122h-158zM794 1545v97q68 25 125 25q194 0 194 -134q0 -57 -41.5 -94t-118.5 -39v-25h-72v107h12
q71 0 71 41q0 42 -71 42q-37 0 -99 -20z" />
    <glyph glyph-name="acircumflexhookabove" unicode="&#x1ea9;" horiz-adv-x="1100" 
d="M786 547q-41 -34 -197 -54q-141 -19 -199.5 -36.5t-95 -59.5t-36.5 -112q0 -72 52.5 -114t152.5 -42q150 0 236.5 73.5t86.5 166.5v178zM797 139q-69 -82 -162 -123t-211 -41q-167 0 -258.5 77.5t-91.5 219.5q0 156 102.5 235t392.5 113q118 13 168.5 42t50.5 92
q0 88 -59 132t-176 44q-130 0 -196 -50.5t-68 -150.5h-174q8 177 120 265.5t328 88.5q199 0 298.5 -72.5t99.5 -217.5v-545q0 -73 9 -96t46 -23q22 0 53 10v-135q-47 -29 -125 -29q-74 0 -110.5 41t-36.5 123zM463 1429h171l223 -218h-173l-136 122l-148 -122h-158z
M849 1350h-72v112q83 0 83 51q0 52 -71 52q-37 0 -99 -20v97q55 25 125 25q97 0 145.5 -36t48.5 -108q0 -69 -40 -105t-120 -38v-30z" />
    <glyph glyph-name="Acircumflextilde" unicode="&#x1eaa;" horiz-adv-x="1327" 
d="M907 465l-245 487l-248 -487h493zM1128 0l-152 301h-632l-158 -301h-200l571 1126h215l571 -1126h-215zM675 1228zM577 1434h171l223 -218h-173l-136 122l-148 -122h-158zM419 1470h-107q42 197 217 197q45 0 84.5 -14t131.5 -44q34 -12 63 -12q78 0 100 70h107
q-42 -197 -217 -197q-44 0 -147 36q-98 34 -132 34q-78 0 -100 -70z" />
    <glyph glyph-name="acircumflextilde" unicode="&#x1eab;" horiz-adv-x="1100" 
d="M786 547q-41 -34 -197 -54q-141 -19 -199.5 -36.5t-95 -59.5t-36.5 -112q0 -72 52.5 -114t152.5 -42q150 0 236.5 73.5t86.5 166.5v178zM797 139q-69 -82 -162 -123t-211 -41q-167 0 -258.5 77.5t-91.5 219.5q0 156 102.5 235t392.5 113q118 13 168.5 42t50.5 92
q0 88 -59 132t-176 44q-130 0 -196 -50.5t-68 -150.5h-174q8 177 120 265.5t328 88.5q199 0 298.5 -72.5t99.5 -217.5v-545q0 -73 9 -96t46 -23q22 0 53 10v-135q-47 -29 -125 -29q-74 0 -110.5 41t-36.5 123zM463 1429h171l223 -218h-173l-136 122l-148 -122h-158z
M305 1470h-107q42 197 217 197q45 0 84.5 -14t131.5 -44q34 -12 63 -12q78 0 100 70h107q-42 -197 -217 -197q-44 0 -147 36q-98 34 -132 34q-78 0 -100 -70z" />
    <glyph glyph-name="Acircumflexdotbelow" unicode="&#x1eac;" horiz-adv-x="1327" 
d="M906 507l-245 549l-248 -549h493zM1128 0l-152 343h-633l-157 -343h-200l571 1230h215l571 -1230h-215zM657 1560l-143 -197h-158l211 293h191l213 -293h-173zM755 -355h-184v213h184v-213z" />
    <glyph glyph-name="acircumflexdotbelow" unicode="&#x1ead;" horiz-adv-x="1100" 
d="M786 547q-41 -34 -197 -54q-141 -19 -199.5 -36.5t-95 -59.5t-36.5 -112q0 -72 52.5 -114t152.5 -42q150 0 236.5 73.5t86.5 166.5v178zM797 139q-69 -82 -162 -123t-211 -41q-167 0 -258.5 77.5t-91.5 219.5q0 156 102.5 235t392.5 113q118 13 168.5 42t50.5 92
q0 88 -59 132t-176 44q-130 0 -196 -50.5t-68 -150.5h-174q8 177 120 265.5t328 88.5q199 0 298.5 -72.5t99.5 -217.5v-545q0 -73 9 -96t46 -23q22 0 53 10v-135q-47 -29 -125 -29q-74 0 -110.5 41t-36.5 123zM543 1403l-143 -197h-158l211 293h191l213 -293h-173zM642 -355
h-184v213h184v-213z" />
    <glyph glyph-name="Abreveacute" unicode="&#x1eae;" horiz-adv-x="1327" 
d="M907 465l-245 487l-248 -487h493zM1128 0l-152 301h-632l-158 -301h-200l571 1126h215l571 -1126h-215zM675 1228zM349 1491h114q27 -120 201 -120q173 0 200 120h114q-30 -233 -314 -233q-287 0 -315 233zM730 1667h223l-239 -228h-131z" />
    <glyph glyph-name="abreveacute" unicode="&#x1eaf;" horiz-adv-x="1100" 
d="M786 547q-41 -34 -197 -54q-141 -19 -199.5 -36.5t-95 -59.5t-36.5 -112q0 -72 52.5 -114t152.5 -42q150 0 236.5 73.5t86.5 166.5v178zM797 139q-69 -82 -162 -123t-211 -41q-167 0 -258.5 77.5t-91.5 219.5q0 156 102.5 235t392.5 113q118 13 168.5 42t50.5 92
q0 88 -59 132t-176 44q-130 0 -196 -50.5t-68 -150.5h-174q8 177 120 265.5t328 88.5q199 0 298.5 -72.5t99.5 -217.5v-545q0 -73 9 -96t46 -23q22 0 53 10v-135q-47 -29 -125 -29q-74 0 -110.5 41t-36.5 123zM235 1443h114q27 -120 201 -120q173 0 200 120h114
q-30 -233 -314 -233q-287 0 -315 233zM627 1647h223l-239 -228h-131z" />
    <glyph glyph-name="Abrevegrave" unicode="&#x1eb0;" horiz-adv-x="1327" 
d="M907 465l-245 487l-248 -487h493zM1128 0l-152 301h-632l-158 -301h-200l571 1126h215l571 -1126h-215zM675 1228zM349 1491h114q27 -120 201 -120q173 0 200 120h114q-30 -233 -314 -233q-287 0 -315 233zM384 1667h223l146 -228h-131z" />
    <glyph glyph-name="abrevegrave" unicode="&#x1eb1;" horiz-adv-x="1100" 
d="M786 547q-41 -34 -197 -54q-141 -19 -199.5 -36.5t-95 -59.5t-36.5 -112q0 -72 52.5 -114t152.5 -42q150 0 236.5 73.5t86.5 166.5v178zM797 139q-69 -82 -162 -123t-211 -41q-167 0 -258.5 77.5t-91.5 219.5q0 156 102.5 235t392.5 113q118 13 168.5 42t50.5 92
q0 88 -59 132t-176 44q-130 0 -196 -50.5t-68 -150.5h-174q8 177 120 265.5t328 88.5q199 0 298.5 -72.5t99.5 -217.5v-545q0 -73 9 -96t46 -23q22 0 53 10v-135q-47 -29 -125 -29q-74 0 -110.5 41t-36.5 123zM235 1443h114q27 -120 201 -120q173 0 200 120h114
q-30 -233 -314 -233q-287 0 -315 233zM280 1647h223l146 -228h-131z" />
    <glyph glyph-name="Abrevehookabove" unicode="&#x1eb2;" horiz-adv-x="1327" 
d="M907 465l-245 487l-248 -487h493zM1128 0l-152 301h-632l-158 -301h-200l571 1126h215l571 -1126h-215zM675 1228zM349 1458h114q27 -120 201 -120q173 0 200 120h114q-30 -233 -314 -233q-287 0 -315 233zM504 1545v97q68 25 125 25q194 0 194 -134q0 -57 -41.5 -94
t-118.5 -39v-25h-72v107h12q71 0 71 41q0 42 -71 42q-37 0 -99 -20z" />
    <glyph glyph-name="abrevehookabove" unicode="&#x1eb3;" horiz-adv-x="1100" 
d="M786 547q-41 -34 -197 -54q-141 -19 -199.5 -36.5t-95 -59.5t-36.5 -112q0 -72 52.5 -114t152.5 -42q150 0 236.5 73.5t86.5 166.5v178zM797 139q-69 -82 -162 -123t-211 -41q-167 0 -258.5 77.5t-91.5 219.5q0 156 102.5 235t392.5 113q118 13 168.5 42t50.5 92
q0 88 -59 132t-176 44q-130 0 -196 -50.5t-68 -150.5h-174q8 177 120 265.5t328 88.5q199 0 298.5 -72.5t99.5 -217.5v-545q0 -73 9 -96t46 -23q22 0 53 10v-135q-47 -29 -125 -29q-74 0 -110.5 41t-36.5 123zM235 1443h114q27 -120 201 -120q173 0 200 120h114
q-30 -233 -314 -233q-287 0 -315 233zM390 1545v97q68 25 125 25q194 0 194 -134q0 -57 -41.5 -94t-118.5 -39v-25h-72v107h12q71 0 71 41q0 42 -71 42q-37 0 -99 -20z" />
    <glyph glyph-name="Abrevetilde" unicode="&#x1eb4;" horiz-adv-x="1327" 
d="M907 465l-245 487l-248 -487h493zM1128 0l-152 301h-632l-158 -301h-200l571 1126h215l571 -1126h-215zM675 1228zM349 1419h114q27 -120 201 -120q173 0 200 120h114q-30 -233 -314 -233q-287 0 -315 233zM419 1470h-107q42 197 217 197q45 0 84.5 -14t131.5 -44
q34 -12 63 -12q78 0 100 70h107q-42 -197 -217 -197q-44 0 -147 36q-98 34 -132 34q-78 0 -100 -70z" />
    <glyph glyph-name="abrevetilde" unicode="&#x1eb5;" horiz-adv-x="1100" 
d="M786 547q-41 -34 -197 -54q-141 -19 -199.5 -36.5t-95 -59.5t-36.5 -112q0 -72 52.5 -114t152.5 -42q150 0 236.5 73.5t86.5 166.5v178zM797 139q-69 -82 -162 -123t-211 -41q-167 0 -258.5 77.5t-91.5 219.5q0 156 102.5 235t392.5 113q118 13 168.5 42t50.5 92
q0 88 -59 132t-176 44q-130 0 -196 -50.5t-68 -150.5h-174q8 177 120 265.5t328 88.5q199 0 298.5 -72.5t99.5 -217.5v-545q0 -73 9 -96t46 -23q22 0 53 10v-135q-47 -29 -125 -29q-74 0 -110.5 41t-36.5 123zM235 1419h114q27 -120 201 -120q173 0 200 120h114
q-30 -233 -314 -233q-287 0 -315 233zM305 1470h-107q42 197 217 197q45 0 84.5 -14t131.5 -44q34 -12 63 -12q78 0 100 70h107q-42 -197 -217 -197q-44 0 -147 36q-98 34 -132 34q-78 0 -100 -70z" />
    <glyph glyph-name="Abrevedotbelow" unicode="&#x1eb6;" horiz-adv-x="1327" 
d="M906 507l-245 549l-248 -549h493zM1128 0l-152 343h-633l-157 -343h-200l571 1230h215l571 -1230h-215zM446 1650q24 -85 81.5 -127.5t148.5 -42.5q88 0 130 46t72 124h105q-27 -142 -108 -212.5t-216 -70.5q-137 0 -215.5 70.5t-99.5 212.5h102zM755 -355h-184v213h184
v-213z" />
    <glyph glyph-name="abrevedotbelow" unicode="&#x1eb7;" horiz-adv-x="1100" 
d="M786 547q-41 -34 -197 -54q-141 -19 -199.5 -36.5t-95 -59.5t-36.5 -112q0 -72 52.5 -114t152.5 -42q150 0 236.5 73.5t86.5 166.5v178zM797 139q-69 -82 -162 -123t-211 -41q-167 0 -258.5 77.5t-91.5 219.5q0 156 102.5 235t392.5 113q118 13 168.5 42t50.5 92
q0 88 -59 132t-176 44q-130 0 -196 -50.5t-68 -150.5h-174q8 177 120 265.5t328 88.5q199 0 298.5 -72.5t99.5 -217.5v-545q0 -73 9 -96t46 -23q22 0 53 10v-135q-47 -29 -125 -29q-74 0 -110.5 41t-36.5 123zM332 1493q24 -85 81.5 -127.5t148.5 -42.5q88 0 130 46t72 124
h105q-27 -142 -108 -212.5t-216 -70.5q-137 0 -215.5 70.5t-99.5 212.5h102zM642 -355h-184v213h184v-213z" />
    <glyph glyph-name="Edotbelow" unicode="&#x1eb8;" horiz-adv-x="1251" 
d="M160 0v1462h1009v-164h-815v-464h760v-164h-760v-506h822v-164h-1016zM747 -355h-184v213h184v-213z" />
    <glyph glyph-name="edotbelow" unicode="&#x1eb9;" horiz-adv-x="1100" 
d="M866 631q-11 136 -97 217.5t-208 81.5q-126 0 -209.5 -82.5t-93.5 -216.5h608zM582 -25q-248 0 -378 160t-130 397q0 242 141.5 396.5t355.5 154.5q229 0 354.5 -168t125.5 -438h-793q0 -159 87.5 -253.5t242.5 -94.5q115 0 183.5 51.5t90.5 155.5h172
q-35 -178 -153.5 -269.5t-298.5 -91.5zM642 -355h-184v213h184v-213z" />
    <glyph glyph-name="Ehookabove" unicode="&#x1eba;" horiz-adv-x="1251" 
d="M160 0v1230h1009v-164h-815v-349h760v-164h-760v-389h822v-164h-1016zM496 1545v97q68 25 125 25q194 0 194 -134q0 -57 -41.5 -94t-118.5 -39v-25h-72v107h12q71 0 71 41q0 42 -71 42q-37 0 -99 -20z" />
    <glyph glyph-name="ehookabove" unicode="&#x1ebb;" horiz-adv-x="1100" 
d="M866 631q-11 136 -97 217.5t-208 81.5q-126 0 -209.5 -82.5t-93.5 -216.5h608zM582 -25q-248 0 -378 160t-130 397q0 242 141.5 396.5t355.5 154.5q229 0 354.5 -168t125.5 -438h-793q0 -159 87.5 -253.5t242.5 -94.5q115 0 183.5 51.5t90.5 155.5h172
q-35 -178 -153.5 -269.5t-298.5 -91.5zM579 1215h-72v112q83 0 83 51q0 52 -71 52q-37 0 -99 -20v97q55 25 125 25q97 0 145.5 -36t48.5 -108q0 -69 -40 -105t-120 -38v-30z" />
    <glyph glyph-name="Etilde" unicode="&#x1ebc;" horiz-adv-x="1251" 
d="M160 0v1230h1009v-164h-815v-349h760v-164h-760v-389h822v-164h-1016zM1017 1625q-21 -114 -73 -170.5t-134 -56.5q-59 0 -154 41q-103 39 -135 39q-69 0 -100 -86h-107q25 112 79 168.5t138 56.5q56 0 150 -41q91 -41 135 -41q68 0 94 90h107z" />
    <glyph glyph-name="etilde" unicode="&#x1ebd;" horiz-adv-x="1100" 
d="M866 631q-11 136 -97 217.5t-208 81.5q-126 0 -209.5 -82.5t-93.5 -216.5h608zM582 -25q-248 0 -378 160t-130 397q0 242 141.5 396.5t355.5 154.5q229 0 354.5 -168t125.5 -438h-793q0 -159 87.5 -253.5t242.5 -94.5q115 0 183.5 51.5t90.5 155.5h172
q-35 -178 -153.5 -269.5t-298.5 -91.5zM921 1468q-21 -114 -73 -170.5t-134 -56.5q-59 0 -154 41q-103 39 -135 39q-69 0 -100 -86h-107q25 112 79 168.5t138 56.5q56 0 150 -41q91 -41 135 -41q68 0 94 90h107z" />
    <glyph glyph-name="Ecircumflexacute" unicode="&#x1ebe;" horiz-adv-x="1251" 
d="M160 0v1126h1009v-164h-815v-298h760v-164h-760v-336h822v-164h-1016zM715 1228zM577 1517h171l223 -218h-173l-136 122l-148 -122h-158zM1020 1667h223l-239 -228h-131z" />
    <glyph glyph-name="ecircumflexacute" unicode="&#x1ebf;" horiz-adv-x="1100" 
d="M866 631q-11 136 -97 217.5t-208 81.5q-126 0 -209.5 -82.5t-93.5 -216.5h608zM582 -25q-248 0 -378 160t-130 397q0 242 141.5 396.5t355.5 154.5q229 0 354.5 -168t125.5 -438h-793q0 -159 87.5 -253.5t242.5 -94.5q115 0 183.5 51.5t90.5 155.5h172
q-35 -178 -153.5 -269.5t-298.5 -91.5zM483 1429h171l223 -218h-173l-136 122l-148 -122h-158zM935 1667h223l-269 -293h-131z" />
    <glyph glyph-name="Ecircumflexgrave" unicode="&#x1ec0;" horiz-adv-x="1251" 
d="M160 0v1126h1009v-164h-815v-298h760v-164h-760v-336h822v-164h-1016zM715 1228zM587 1517h171l223 -218h-173l-136 122l-148 -122h-158zM96 1667h223l146 -228h-131z" />
    <glyph glyph-name="ecircumflexgrave" unicode="&#x1ec1;" horiz-adv-x="1100" 
d="M866 631q-11 136 -97 217.5t-208 81.5q-126 0 -209.5 -82.5t-93.5 -216.5h608zM582 -25q-248 0 -378 160t-130 397q0 242 141.5 396.5t355.5 154.5q229 0 354.5 -168t125.5 -438h-793q0 -159 87.5 -253.5t242.5 -94.5q115 0 183.5 51.5t90.5 155.5h172
q-35 -178 -153.5 -269.5t-298.5 -91.5zM493 1429h171l223 -218h-173l-136 122l-148 -122h-158zM-8 1667h223l176 -293h-131z" />
    <glyph glyph-name="Ecircumflexhookabove" unicode="&#x1ec2;" horiz-adv-x="1251" 
d="M160 0v1126h1009v-164h-815v-298h760v-164h-760v-336h822v-164h-1016zM715 1228zM587 1454h171l223 -218h-173l-136 122l-148 -122h-158zM804 1545v97q68 25 125 25q194 0 194 -134q0 -57 -41.5 -94t-118.5 -39v-25h-72v107h12q71 0 71 41q0 42 -71 42q-37 0 -99 -20z
" />
    <glyph glyph-name="ecircumflexhookabove" unicode="&#x1ec3;" horiz-adv-x="1100" 
d="M866 631q-11 136 -97 217.5t-208 81.5q-126 0 -209.5 -82.5t-93.5 -216.5h608zM582 -25q-248 0 -378 160t-130 397q0 242 141.5 396.5t355.5 154.5q229 0 354.5 -168t125.5 -438h-793q0 -159 87.5 -253.5t242.5 -94.5q115 0 183.5 51.5t90.5 155.5h172
q-35 -178 -153.5 -269.5t-298.5 -91.5zM463 1429h171l223 -218h-173l-136 122l-148 -122h-158zM819 1350h-72v112q83 0 83 51q0 52 -71 52q-37 0 -99 -20v97q55 25 125 25q97 0 145.5 -36t48.5 -108q0 -69 -40 -105t-120 -38v-30z" />
    <glyph glyph-name="Ecircumflextilde" unicode="&#x1ec4;" horiz-adv-x="1251" 
d="M160 0v1126h1009v-164h-815v-298h760v-164h-760v-336h822v-164h-1016zM715 1228zM587 1434h171l223 -218h-173l-136 122l-148 -122h-158zM429 1470h-107q42 197 217 197q45 0 84.5 -14t131.5 -44q34 -12 63 -12q78 0 100 70h107q-42 -197 -217 -197q-44 0 -147 36
q-98 34 -132 34q-78 0 -100 -70z" />
    <glyph glyph-name="ecircumflextilde" unicode="&#x1ec5;" horiz-adv-x="1100" 
d="M866 631q-11 136 -97 217.5t-208 81.5q-126 0 -209.5 -82.5t-93.5 -216.5h608zM582 -25q-248 0 -378 160t-130 397q0 242 141.5 396.5t355.5 154.5q229 0 354.5 -168t125.5 -438h-793q0 -159 87.5 -253.5t242.5 -94.5q115 0 183.5 51.5t90.5 155.5h172
q-35 -178 -153.5 -269.5t-298.5 -91.5zM483 1429h171l223 -218h-173l-136 122l-148 -122h-158zM325 1470h-107q42 197 217 197q45 0 84.5 -14t131.5 -44q34 -12 63 -12q78 0 100 70h107q-42 -197 -217 -197q-44 0 -147 36q-98 34 -132 34q-78 0 -100 -70z" />
    <glyph glyph-name="Ecircumflexdotbelow" unicode="&#x1ec6;" horiz-adv-x="1251" 
d="M160 0v1230h1009v-164h-815v-349h760v-164h-760v-389h822v-164h-1016zM671 1560l-143 -197h-158l211 293h191l213 -293h-173zM762 -355h-184v213h184v-213z" />
    <glyph glyph-name="ecircumflexdotbelow" unicode="&#x1ec7;" horiz-adv-x="1100" 
d="M866 631q-11 136 -97 217.5t-208 81.5q-126 0 -209.5 -82.5t-93.5 -216.5h608zM582 -25q-248 0 -378 160t-130 397q0 242 141.5 396.5t355.5 154.5q229 0 354.5 -168t125.5 -438h-793q0 -159 87.5 -253.5t242.5 -94.5q115 0 183.5 51.5t90.5 155.5h172
q-35 -178 -153.5 -269.5t-298.5 -91.5zM543 1403l-143 -197h-158l211 293h191l213 -293h-173zM642 -355h-184v213h184v-213z" />
    <glyph glyph-name="Ihookabove" unicode="&#x1ec8;" horiz-adv-x="530" 
d="M168 0v1230h194v-1230h-194zM105 1545v97q68 25 125 25q194 0 194 -134q0 -57 -41.5 -94t-118.5 -39v-25h-72v107h12q71 0 71 41q0 42 -71 42q-37 0 -99 -20z" />
    <glyph glyph-name="ihookabove" unicode="&#x1ec9;" horiz-adv-x="455" 
d="M141 0v1059h174v-1059h-174zM228 1215h-72v112q83 0 83 51q0 52 -71 52q-37 0 -99 -20v97q55 25 125 25q97 0 145.5 -36t48.5 -108q0 -69 -40 -105t-120 -38v-30z" />
    <glyph glyph-name="Idotbelow" unicode="&#x1eca;" horiz-adv-x="530" 
d="M168 0v1462h194v-1462h-194zM357 -355h-184v213h184v-213z" />
    <glyph glyph-name="idotbelow" unicode="&#x1ecb;" horiz-adv-x="455" 
d="M315 1249h-174v213h174v-213zM141 0v1059h174v-1059h-174zM319 -355h-184v213h184v-213z" />
    <glyph glyph-name="Odotbelow" unicode="&#x1ecc;" horiz-adv-x="1556" 
d="M778 -35q-320 0 -510 218t-190 548t190.5 548t509.5 218t510 -217.5t191 -548.5q0 -330 -191 -548t-510 -218zM778 129q238 0 372 171t134 431q0 262 -134.5 432t-371.5 170q-238 0 -372 -172t-134 -430q0 -256 133.5 -429t372.5 -173zM870 -355h-184v213h184v-213z" />
    <glyph glyph-name="odotbelow" unicode="&#x1ecd;" horiz-adv-x="1176" 
d="M588 -25q-236 0 -375 152t-139 401q0 253 139.5 404t374.5 151q234 0 374 -152t140 -403q0 -248 -139.5 -400.5t-374.5 -152.5zM588 129q142 0 236 107.5t94 291.5t-93.5 293t-236.5 109q-144 0 -237 -108.5t-93 -293.5q0 -186 94 -292.5t236 -106.5zM680 -355h-184v213
h184v-213z" />
    <glyph glyph-name="Ohookabove" unicode="&#x1ece;" horiz-adv-x="1556" 
d="M778 -35q-321 0 -510.5 184.5t-189.5 461.5q0 278 190 462t510 184q319 0 510 -184t191 -462t-190.5 -462t-510.5 -184zM778 129q240 0 373 138t133 344q0 209 -133.5 345.5t-372.5 136.5t-372.5 -138t-133.5 -344q0 -204 132.5 -343t373.5 -139zM618 1545v97
q68 25 125 25q194 0 194 -134q0 -57 -41.5 -94t-118.5 -39v-25h-72v107h12q71 0 71 41q0 42 -71 42q-37 0 -99 -20z" />
    <glyph glyph-name="ohookabove" unicode="&#x1ecf;" horiz-adv-x="1176" 
d="M588 -25q-236 0 -375 152t-139 401q0 253 139.5 404t374.5 151q234 0 374 -152t140 -403q0 -248 -139.5 -400.5t-374.5 -152.5zM588 129q142 0 236 107.5t94 291.5t-93.5 293t-236.5 109q-144 0 -237 -108.5t-93 -293.5q0 -186 94 -292.5t236 -106.5zM587 1215h-72v112
q83 0 83 51q0 52 -71 52q-37 0 -99 -20v97q55 25 125 25q97 0 145.5 -36t48.5 -108q0 -69 -40 -105t-120 -38v-30z" />
    <glyph glyph-name="Ocircumflexacute" unicode="&#x1ed0;" horiz-adv-x="1556" 
d="M778 -35q-322 0 -511 170t-189 424t189 424t511 170t511.5 -170t189.5 -424t-189.5 -424t-511.5 -170zM778 129q240 0 373 123t133 307q0 186 -133 308t-373 122t-373 -123.5t-133 -306.5q0 -182 132.5 -306t373.5 -124zM775 1228zM687 1517h171l223 -218h-173l-136 122
l-148 -122h-158zM1130 1667h223l-239 -228h-131z" />
    <glyph glyph-name="ocircumflexacute" unicode="&#x1ed1;" horiz-adv-x="1176" 
d="M588 -25q-236 0 -375 152t-139 401q0 253 139.5 404t374.5 151q234 0 374 -152t140 -403q0 -248 -139.5 -400.5t-374.5 -152.5zM588 129q142 0 236 107.5t94 291.5t-93.5 293t-236.5 109q-144 0 -237 -108.5t-93 -293.5q0 -186 94 -292.5t236 -106.5zM503 1429h171
l223 -218h-173l-136 122l-148 -122h-158zM955 1667h223l-269 -293h-131z" />
    <glyph glyph-name="Ocircumflexgrave" unicode="&#x1ed2;" horiz-adv-x="1556" 
d="M778 -35q-322 0 -511 170t-189 424t189 424t511 170t511.5 -170t189.5 -424t-189.5 -424t-511.5 -170zM778 129q240 0 373 123t133 307q0 186 -133 308t-373 122t-373 -123.5t-133 -306.5q0 -182 132.5 -306t373.5 -124zM775 1228zM691 1517h171l223 -218h-173l-136 122
l-148 -122h-158zM200 1667h223l146 -228h-131z" />
    <glyph glyph-name="ocircumflexgrave" unicode="&#x1ed3;" horiz-adv-x="1176" 
d="M588 -25q-236 0 -375 152t-139 401q0 253 139.5 404t374.5 151q234 0 374 -152t140 -403q0 -248 -139.5 -400.5t-374.5 -152.5zM588 129q142 0 236 107.5t94 291.5t-93.5 293t-236.5 109q-144 0 -237 -108.5t-93 -293.5q0 -186 94 -292.5t236 -106.5zM503 1429h171
l223 -218h-173l-136 122l-148 -122h-158zM2 1667h223l176 -293h-131z" />
    <glyph glyph-name="Ocircumflexhookabove" unicode="&#x1ed4;" horiz-adv-x="1556" 
d="M778 -35q-322 0 -511 170t-189 424t189 424t511 170t511.5 -170t189.5 -424t-189.5 -424t-511.5 -170zM778 129q240 0 373 123t133 307q0 186 -133 308t-373 122t-373 -123.5t-133 -306.5q0 -182 132.5 -306t373.5 -124zM775 1228zM691 1454h171l223 -218h-173l-136 122
l-148 -122h-158zM908 1545v97q68 25 125 25q194 0 194 -134q0 -57 -41.5 -94t-118.5 -39v-25h-72v107h12q71 0 71 41q0 42 -71 42q-37 0 -99 -20z" />
    <glyph glyph-name="ocircumflexhookabove" unicode="&#x1ed5;" horiz-adv-x="1176" 
d="M588 -25q-236 0 -375 152t-139 401q0 253 139.5 404t374.5 151q234 0 374 -152t140 -403q0 -248 -139.5 -400.5t-374.5 -152.5zM588 129q142 0 236 107.5t94 291.5t-93.5 293t-236.5 109q-144 0 -237 -108.5t-93 -293.5q0 -186 94 -292.5t236 -106.5zM503 1429h171
l223 -218h-173l-136 122l-148 -122h-158zM889 1350h-72v112q83 0 83 51q0 52 -71 52q-37 0 -99 -20v97q55 25 125 25q97 0 145.5 -36t48.5 -108q0 -69 -40 -105t-120 -38v-30z" />
    <glyph glyph-name="Ocircumflextilde" unicode="&#x1ed6;" horiz-adv-x="1556" 
d="M778 -35q-322 0 -511 170t-189 424t189 424t511 170t511.5 -170t189.5 -424t-189.5 -424t-511.5 -170zM778 129q240 0 373 123t133 307q0 186 -133 308t-373 122t-373 -123.5t-133 -306.5q0 -182 132.5 -306t373.5 -124zM775 1228zM691 1434h171l223 -218h-173l-136 122
l-148 -122h-158zM533 1470h-107q42 197 217 197q45 0 84.5 -14t131.5 -44q34 -12 63 -12q78 0 100 70h107q-42 -197 -217 -197q-44 0 -147 36q-98 34 -132 34q-78 0 -100 -70z" />
    <glyph glyph-name="ocircumflextilde" unicode="&#x1ed7;" horiz-adv-x="1176" 
d="M588 -25q-236 0 -375 152t-139 401q0 253 139.5 404t374.5 151q234 0 374 -152t140 -403q0 -248 -139.5 -400.5t-374.5 -152.5zM588 129q142 0 236 107.5t94 291.5t-93.5 293t-236.5 109q-144 0 -237 -108.5t-93 -293.5q0 -186 94 -292.5t236 -106.5zM503 1429h171
l223 -218h-173l-136 122l-148 -122h-158zM345 1470h-107q42 197 217 197q45 0 84.5 -14t131.5 -44q34 -12 63 -12q78 0 100 70h107q-42 -197 -217 -197q-44 0 -147 36q-98 34 -132 34q-78 0 -100 -70z" />
    <glyph glyph-name="Ocircumflexdotbelow" unicode="&#x1ed8;" horiz-adv-x="1556" 
d="M778 -35q-321 0 -510.5 184.5t-189.5 461.5q0 278 190 462t510 184q319 0 510 -184t191 -462t-190.5 -462t-510.5 -184zM778 129q240 0 373 138t133 344q0 209 -133.5 345.5t-372.5 136.5t-372.5 -138t-133.5 -344q0 -204 132.5 -343t373.5 -139zM771 1560l-143 -197
h-158l211 293h191l213 -293h-173zM870 -355h-184v213h184v-213z" />
    <glyph glyph-name="ocircumflexdotbelow" unicode="&#x1ed9;" horiz-adv-x="1176" 
d="M588 -25q-236 0 -375 152t-139 401q0 253 139.5 404t374.5 151q234 0 374 -152t140 -403q0 -248 -139.5 -400.5t-374.5 -152.5zM588 129q142 0 236 107.5t94 291.5t-93.5 293t-236.5 109q-144 0 -237 -108.5t-93 -293.5q0 -186 94 -292.5t236 -106.5zM581 1403l-143 -197
h-158l211 293h191l213 -293h-173zM680 -355h-184v213h184v-213z" />
    <glyph glyph-name="Ohornacute" unicode="&#x1eda;" horiz-adv-x="1603" 
d="M1298 1064q117 17 117 159v76h168v-60q0 -231 -201 -280q97 -151 97 -348q0 -278 -190.5 -462t-510.5 -184q-321 0 -510.5 184.5t-189.5 461.5q0 278 190 462t510 184q322 0 520 -193zM778 129q240 0 373 138t133 344q0 209 -133.5 345.5t-372.5 136.5t-372.5 -138
t-133.5 -344q0 -204 132.5 -343t373.5 -139zM829 1656h223l-269 -293h-131z" />
    <glyph glyph-name="ohornacute" unicode="&#x1edb;" horiz-adv-x="1303" 
d="M995 892q136 15 136 158v72h152v-64q0 -237 -235 -258q54 -119 54 -272q0 -248 -139.5 -400.5t-374.5 -152.5q-236 0 -375 152t-139 401q0 253 139.5 404t374.5 151q259 0 407 -191zM588 129q142 0 236 107.5t94 291.5t-93.5 293t-236.5 109q-144 0 -237 -108.5
t-93 -293.5q0 -186 94 -292.5t236 -106.5zM628 1499h223l-269 -293h-131z" />
    <glyph glyph-name="Ohorngrave" unicode="&#x1edc;" horiz-adv-x="1603" 
d="M1298 1064q117 17 117 159v76h168v-60q0 -231 -201 -280q97 -151 97 -348q0 -278 -190.5 -462t-510.5 -184q-321 0 -510.5 184.5t-189.5 461.5q0 278 190 462t510 184q322 0 520 -193zM778 129q240 0 373 138t133 344q0 209 -133.5 345.5t-372.5 136.5t-372.5 -138
t-133.5 -344q0 -204 132.5 -343t373.5 -139zM503 1656h223l176 -293h-131z" />
    <glyph glyph-name="ohorngrave" unicode="&#x1edd;" horiz-adv-x="1303" 
d="M995 892q136 15 136 158v72h152v-64q0 -237 -235 -258q54 -119 54 -272q0 -248 -139.5 -400.5t-374.5 -152.5q-236 0 -375 152t-139 401q0 253 139.5 404t374.5 151q259 0 407 -191zM588 129q142 0 236 107.5t94 291.5t-93.5 293t-236.5 109q-144 0 -237 -108.5
t-93 -293.5q0 -186 94 -292.5t236 -106.5zM342 1499h223l176 -293h-131z" />
    <glyph glyph-name="Ohornhookabove" unicode="&#x1ede;" horiz-adv-x="1603" 
d="M1298 1064q117 17 117 159v76h168v-60q0 -231 -201 -280q97 -151 97 -348q0 -278 -190.5 -462t-510.5 -184q-321 0 -510.5 184.5t-189.5 461.5q0 278 190 462t510 184q322 0 520 -193zM778 129q240 0 373 138t133 344q0 209 -133.5 345.5t-372.5 136.5t-372.5 -138
t-133.5 -344q0 -204 132.5 -343t373.5 -139zM642 1545v97q68 25 125 25q194 0 194 -134q0 -57 -41.5 -94t-118.5 -39v-25h-72v107h12q71 0 71 41q0 42 -71 42q-37 0 -99 -20z" />
    <glyph glyph-name="ohornhookabove" unicode="&#x1edf;" horiz-adv-x="1303" 
d="M995 892q136 15 136 158v72h152v-64q0 -237 -235 -258q54 -119 54 -272q0 -248 -139.5 -400.5t-374.5 -152.5q-236 0 -375 152t-139 401q0 253 139.5 404t374.5 151q259 0 407 -191zM588 129q142 0 236 107.5t94 291.5t-93.5 293t-236.5 109q-144 0 -237 -108.5
t-93 -293.5q0 -186 94 -292.5t236 -106.5zM631 1215h-72v112q83 0 83 51q0 52 -71 52q-37 0 -99 -20v97q55 25 125 25q97 0 145.5 -36t48.5 -108q0 -69 -40 -105t-120 -38v-30z" />
    <glyph glyph-name="Ohorntilde" unicode="&#x1ee0;" horiz-adv-x="1603" 
d="M1298 1064q117 17 117 159v76h168v-60q0 -231 -201 -280q97 -151 97 -348q0 -278 -190.5 -462t-510.5 -184q-321 0 -510.5 184.5t-189.5 461.5q0 278 190 462t510 184q322 0 520 -193zM778 129q240 0 373 138t133 344q0 209 -133.5 345.5t-372.5 136.5t-372.5 -138
t-133.5 -344q0 -204 132.5 -343t373.5 -139zM1134 1625q-21 -114 -73 -170.5t-134 -56.5q-59 0 -154 41q-103 39 -135 39q-69 0 -100 -86h-107q25 112 79 168.5t138 56.5q56 0 150 -41q91 -41 135 -41q68 0 94 90h107z" />
    <glyph glyph-name="ohorntilde" unicode="&#x1ee1;" horiz-adv-x="1303" 
d="M995 892q136 15 136 158v72h152v-64q0 -237 -235 -258q54 -119 54 -272q0 -248 -139.5 -400.5t-374.5 -152.5q-236 0 -375 152t-139 401q0 253 139.5 404t374.5 151q259 0 407 -191zM588 129q142 0 236 107.5t94 291.5t-93.5 293t-236.5 109q-144 0 -237 -108.5
t-93 -293.5q0 -186 94 -292.5t236 -106.5zM943 1468q-21 -114 -73 -170.5t-134 -56.5q-59 0 -154 41q-103 39 -135 39q-69 0 -100 -86h-107q25 112 79 168.5t138 56.5q56 0 150 -41q91 -41 135 -41q68 0 94 90h107z" />
    <glyph glyph-name="Ohorndotbelow" unicode="&#x1ee2;" horiz-adv-x="1603" 
d="M1280 1289q135 8 135 161v96h168v-80q0 -243 -223 -284q119 -192 119 -451q0 -330 -191 -548t-510 -218q-320 0 -510 218t-190 548t190.5 548t509.5 218q305 0 502 -208zM778 129q238 0 372 171t134 431q0 262 -134.5 432t-371.5 170q-238 0 -372 -172t-134 -430
q0 -256 133.5 -429t372.5 -173zM869 -355h-184v213h184v-213z" />
    <glyph glyph-name="ohorndotbelow" unicode="&#x1ee3;" horiz-adv-x="1303" 
d="M995 892q136 15 136 158v72h152v-64q0 -237 -235 -258q54 -119 54 -272q0 -248 -139.5 -400.5t-374.5 -152.5q-236 0 -375 152t-139 401q0 253 139.5 404t374.5 151q259 0 407 -191zM588 129q142 0 236 107.5t94 291.5t-93.5 293t-236.5 109q-144 0 -237 -108.5
t-93 -293.5q0 -186 94 -292.5t236 -106.5zM676 -355h-184v213h184v-213z" />
    <glyph glyph-name="Udotbelow" unicode="&#x1ee4;" horiz-adv-x="1479" 
d="M752 -35q-300 0 -450 140.5t-150 422.5v934h194v-934q0 -196 104.5 -297.5t301.5 -101.5q190 0 285.5 99.5t95.5 299.5v934h194v-934q0 -280 -149.5 -421.5t-425.5 -141.5zM831 -355h-184v213h184v-213z" />
    <glyph glyph-name="udotbelow" unicode="&#x1ee5;" 
d="M844 168q-57 -97 -144 -145t-204 -48q-183 0 -274 96.5t-91 290.5v697h174v-717q0 -98 57.5 -155.5t157.5 -57.5q152 0 233 91t81 241v598h174v-1059h-164v168zM641 -355h-184v213h184v-213z" />
    <glyph glyph-name="Uhookabove" unicode="&#x1ee6;" horiz-adv-x="1479" 
d="M752 -35q-300 0 -450 140.5t-150 422.5v702h194v-702q0 -196 104.5 -297.5t301.5 -101.5q190 0 285.5 99.5t95.5 299.5v702h194v-702q0 -280 -149.5 -421.5t-425.5 -141.5zM580 1545v97q68 25 125 25q194 0 194 -134q0 -57 -41.5 -94t-118.5 -39v-25h-72v107h12
q71 0 71 41q0 42 -71 42q-37 0 -99 -20z" />
    <glyph glyph-name="uhookabove" unicode="&#x1ee7;" 
d="M844 168q-57 -97 -144 -145t-204 -48q-183 0 -274 96.5t-91 290.5v697h174v-717q0 -98 57.5 -155.5t157.5 -57.5q152 0 233 91t81 241v598h174v-1059h-164v168zM569 1215h-72v112q83 0 83 51q0 52 -71 52q-37 0 -99 -20v97q55 25 125 25q97 0 145.5 -36t48.5 -108
q0 -69 -40 -105t-120 -38v-30z" />
    <glyph glyph-name="Uhornacute" unicode="&#x1ee8;" horiz-adv-x="1653" 
d="M1327 528q0 -280 -149.5 -421.5t-425.5 -141.5q-600 0 -600 563v702h194v-702q0 -196 104.5 -297.5t301.5 -101.5q381 0 381 399v702h194v-190q138 18 138 163v96h168v-80q0 -285 -306 -292v-399zM783 1656h223l-269 -293h-131z" />
    <glyph glyph-name="uhornacute" unicode="&#x1ee9;" horiz-adv-x="1298" 
d="M1008 1059v-165q118 28 118 156v72h152v-64q0 -245 -270 -261v-797h-164v168h-4q-109 -193 -344 -193q-365 0 -365 387v697h174v-717q0 -98 57.5 -155.5t157.5 -57.5q152 0 233 91t81 241v598h174zM626 1499h223l-269 -293h-131z" />
    <glyph glyph-name="Uhorngrave" unicode="&#x1eea;" horiz-adv-x="1653" 
d="M1327 528q0 -280 -149.5 -421.5t-425.5 -141.5q-600 0 -600 563v702h194v-702q0 -196 104.5 -297.5t301.5 -101.5q381 0 381 399v702h194v-190q138 18 138 163v96h168v-80q0 -285 -306 -292v-399zM457 1656h223l176 -293h-131z" />
    <glyph glyph-name="uhorngrave" unicode="&#x1eeb;" horiz-adv-x="1298" 
d="M1008 1059v-165q118 28 118 156v72h152v-64q0 -245 -270 -261v-797h-164v168h-4q-109 -193 -344 -193q-365 0 -365 387v697h174v-717q0 -98 57.5 -155.5t157.5 -57.5q152 0 233 91t81 241v598h174zM300 1499h223l176 -293h-131z" />
    <glyph glyph-name="Uhornhookabove" unicode="&#x1eec;" horiz-adv-x="1653" 
d="M1327 528q0 -280 -149.5 -421.5t-425.5 -141.5q-600 0 -600 563v702h194v-702q0 -196 104.5 -297.5t301.5 -101.5q381 0 381 399v702h194v-190q138 18 138 163v96h168v-80q0 -285 -306 -292v-399zM607 1545v97q68 25 125 25q194 0 194 -134q0 -57 -41.5 -94t-118.5 -39
v-25h-72v107h12q71 0 71 41q0 42 -71 42q-37 0 -99 -20z" />
    <glyph glyph-name="uhornhookabove" unicode="&#x1eed;" horiz-adv-x="1298" 
d="M1008 1059v-165q118 28 118 156v72h152v-64q0 -245 -270 -261v-797h-164v168h-4q-109 -193 -344 -193q-365 0 -365 387v697h174v-717q0 -98 57.5 -155.5t157.5 -57.5q152 0 233 91t81 241v598h174zM603 1215h-72v112q83 0 83 51q0 52 -71 52q-37 0 -99 -20v97
q55 25 125 25q97 0 145.5 -36t48.5 -108q0 -69 -40 -105t-120 -38v-30z" />
    <glyph glyph-name="Uhorntilde" unicode="&#x1eee;" horiz-adv-x="1653" 
d="M1327 528q0 -280 -149.5 -421.5t-425.5 -141.5q-600 0 -600 563v702h194v-702q0 -196 104.5 -297.5t301.5 -101.5q381 0 381 399v702h194v-190q138 18 138 163v96h168v-80q0 -285 -306 -292v-399zM1098 1625q-21 -114 -73 -170.5t-134 -56.5q-59 0 -154 41
q-103 39 -135 39q-69 0 -100 -86h-107q25 112 79 168.5t138 56.5q56 0 150 -41q91 -41 135 -41q68 0 94 90h107z" />
    <glyph glyph-name="uhorntilde" unicode="&#x1eef;" horiz-adv-x="1298" 
d="M1008 1059v-165q118 28 118 156v72h152v-64q0 -245 -270 -261v-797h-164v168h-4q-109 -193 -344 -193q-365 0 -365 387v697h174v-717q0 -98 57.5 -155.5t157.5 -57.5q152 0 233 91t81 241v598h174zM912 1468q-21 -114 -73 -170.5t-134 -56.5q-59 0 -154 41
q-103 39 -135 39q-69 0 -100 -86h-107q25 112 79 168.5t138 56.5q56 0 150 -41q91 -41 135 -41q68 0 94 90h107z" />
    <glyph glyph-name="Uhorndotbelow" unicode="&#x1ef0;" horiz-adv-x="1653" 
d="M1327 1462v-175q138 18 138 163v96h168v-80q0 -285 -306 -292v-646q0 -280 -149.5 -421.5t-425.5 -141.5q-600 0 -600 563v934h194v-934q0 -196 104.5 -297.5t301.5 -101.5q381 0 381 399v934h194zM828 -355h-184v213h184v-213z" />
    <glyph glyph-name="uhorndotbelow" unicode="&#x1ef1;" horiz-adv-x="1298" 
d="M1008 1059v-165q118 28 118 156v72h152v-64q0 -245 -270 -261v-797h-164v168h-4q-109 -193 -344 -193q-365 0 -365 387v697h174v-717q0 -98 57.5 -155.5t157.5 -57.5q152 0 233 91t81 241v598h174zM621 -355h-184v213h184v-213z" />
    <glyph glyph-name="Ygrave" unicode="&#x1ef2;" horiz-adv-x="1327" 
d="M764 485v-485h-195v485l-565 743h232l438 -585l428 585h221zM361 1656h223l176 -293h-131z" />
    <glyph glyph-name="ygrave" unicode="&#x1ef3;" horiz-adv-x="1024" 
d="M564 -98q-61 -159 -128.5 -221t-178.5 -62q-72 0 -121 18v160q71 -24 102 -24q93 0 144 96l54 137l-420 1053h197l311 -870l299 870h185zM215 1499h223l176 -293h-131z" />
    <glyph glyph-name="Ydotbelow" unicode="&#x1ef4;" horiz-adv-x="1327" 
d="M764 598v-598h-195v598l-565 864h232l438 -696l428 696h221zM755 -355h-184v213h184v-213z" />
    <glyph glyph-name="ydotbelow" unicode="&#x1ef5;" horiz-adv-x="1024" 
d="M564 -98q-61 -159 -128.5 -221t-178.5 -62q-72 0 -121 18v160q71 -24 102 -24q93 0 144 96l54 137l-420 1053h197l311 -870l299 870h185zM904 -355h-184v213h184v-213z" />
    <glyph glyph-name="Yhookabove" unicode="&#x1ef6;" horiz-adv-x="1327" 
d="M764 485v-485h-195v485l-565 743h232l438 -585l428 585h221zM519 1545v97q68 25 125 25q194 0 194 -134q0 -57 -41.5 -94t-118.5 -39v-25h-72v107h12q71 0 71 41q0 42 -71 42q-37 0 -99 -20z" />
    <glyph glyph-name="yhookabove" unicode="&#x1ef7;" horiz-adv-x="1024" 
d="M564 -98q-61 -159 -128.5 -221t-178.5 -62q-72 0 -121 18v160q71 -24 102 -24q93 0 144 96l54 137l-420 1053h197l311 -870l299 870h185zM511 1215h-72v112q83 0 83 51q0 52 -71 52q-37 0 -99 -20v97q55 25 125 25q97 0 145.5 -36t48.5 -108q0 -69 -40 -105t-120 -38v-30
z" />
    <glyph glyph-name="Ytilde" unicode="&#x1ef8;" horiz-adv-x="1327" 
d="M764 485v-485h-195v485l-565 743h232l438 -585l428 585h221zM1015 1625q-21 -114 -73 -170.5t-134 -56.5q-59 0 -154 41q-103 39 -135 39q-69 0 -100 -86h-107q25 112 79 168.5t138 56.5q56 0 150 -41q91 -41 135 -41q68 0 94 90h107z" />
    <glyph glyph-name="ytilde" unicode="&#x1ef9;" horiz-adv-x="1024" 
d="M564 -98q-61 -159 -128.5 -221t-178.5 -62q-72 0 -121 18v160q71 -24 102 -24q93 0 144 96l54 137l-420 1053h197l311 -870l299 870h185zM863 1468q-21 -114 -73 -170.5t-134 -56.5q-59 0 -154 41q-103 39 -135 39q-69 0 -100 -86h-107q25 112 79 168.5t138 56.5
q56 0 150 -41q91 -41 135 -41q68 0 94 90h107z" />
    <glyph glyph-name="endash" unicode="&#x2013;" horiz-adv-x="1024" 
d="M1024 487h-1024v164h1024v-164z" />
    <glyph glyph-name="emdash" unicode="&#x2014;" horiz-adv-x="2048" 
d="M1782 487h-1516v164h1516v-164z" />
    <glyph glyph-name="afii00208" unicode="&#x2015;" horiz-adv-x="2048" 
d="M205 651h1638v-164h-1638v164z" />
    <glyph glyph-name="underscoredbl" unicode="&#x2017;" horiz-adv-x="1024" 
d="M0 -109h1024v-87h-1024v87zM0 -294h1024v-87h-1024v87z" />
    <glyph glyph-name="quoteleft" unicode="&#x2018;" horiz-adv-x="569" 
d="M399 934h-227v227q0 135 59.5 218t165.5 83v-102q-118 0 -118 -199h120v-227z" />
    <glyph glyph-name="quoteright" unicode="&#x2019;" horiz-adv-x="569" 
d="M170 1462h227v-227q0 -141 -61.5 -221t-163.5 -80v102q119 0 119 199h-121v227z" />
    <glyph glyph-name="quotesinglbase" unicode="&#x201a;" horiz-adv-x="569" 
d="M170 227h227v-227q0 -141 -61.5 -221t-163.5 -80v102q119 0 119 199h-121v227z" />
    <glyph glyph-name="quotereversed" unicode="&#x201b;" horiz-adv-x="569" 
d="M399 1235h-121q0 -199 119 -199v-102q-102 0 -163.5 80t-61.5 221v227h227v-227z" />
    <glyph glyph-name="quotedblleft" unicode="&#x201c;" horiz-adv-x="872" 
d="M737 934h-227v227q0 135 59.5 218t165.5 83v-102q-119 0 -119 -199h121v-227zM362 934h-227v227q0 135 59.5 218t165.5 83v-102q-118 0 -118 -199h120v-227z" />
    <glyph glyph-name="quotedblright" unicode="&#x201d;" horiz-adv-x="872" 
d="M510 1462h227v-227q0 -141 -61.5 -221t-163.5 -80v102q119 0 119 199h-121v227zM135 1462h227v-227q0 -139 -60.5 -220t-164.5 -81v102q119 0 119 199h-121v227z" />
    <glyph glyph-name="quotedblbase" unicode="&#x201e;" horiz-adv-x="872" 
d="M135 227h227v-227q0 -139 -60.5 -220t-164.5 -81v102q119 0 119 199h-121v227zM510 227h227v-227q0 -141 -61.5 -221t-163.5 -80v102q119 0 119 199h-121v227z" />
    <glyph glyph-name="dagger" unicode="&#x2020;" 
d="M483 905h-397v154h397v403h164v-403h406v-154h-406v-1222h-164v1222z" />
    <glyph glyph-name="daggerdbl" unicode="&#x2021;" 
d="M483 86h-397v154h397v665h-397v154h397v403h164v-403h406v-154h-406v-665h406v-154h-406v-403h-164v403z" />
    <glyph glyph-name="bullet" unicode="&#x2022;" horiz-adv-x="1024" 
d="M512 1096q149 0 258 -106.5t109 -258.5q0 -150 -107.5 -258t-259.5 -108q-153 0 -259 109t-106 257q0 150 107.5 257.5t257.5 107.5z" />
    <glyph glyph-name="ellipsis" unicode="&#x2026;" horiz-adv-x="2048" 
d="M227 227h228v-227h-228v227zM909 227h228v-227h-228v227zM1591 227h228v-227h-228v227z" />
    <glyph glyph-name="perthousand" unicode="&#x2030;" horiz-adv-x="2351" 
d="M446 754q-143 0 -221 87.5t-78 254.5q0 166 76 261t228 95q144 0 221.5 -89t77.5 -257q0 -152 -75.5 -252t-228.5 -100zM449 866q71 0 109 62t38 172q0 111 -36 175.5t-103 64.5q-77 0 -116.5 -65.5t-39.5 -172.5q0 -118 37 -177t111 -59zM185 -45l1096 1517h176
l-1096 -1517h-176zM1191 -25q-143 0 -221 87.5t-78 254.5q0 166 76 261t228 95q144 0 221.5 -89t77.5 -257q0 -152 -75.5 -252t-228.5 -100zM1194 87q71 0 109 62t38 172q0 111 -36 175.5t-103 64.5q-77 0 -116.5 -65.5t-39.5 -172.5q0 -118 37 -177t111 -59zM1900 -25
q-143 0 -221 87.5t-78 254.5q0 166 76 261t228 95q144 0 221.5 -89t77.5 -257q0 -152 -75.5 -252t-228.5 -100zM1903 87q71 0 109 62t38 172q0 111 -36 175.5t-103 64.5q-77 0 -116.5 -65.5t-39.5 -172.5q0 -118 37 -177t111 -59z" />
    <glyph glyph-name="minute" unicode="&#x2032;" horiz-adv-x="569" 
d="M260 1462h149l-100 -528h-149z" />
    <glyph glyph-name="second" unicode="&#x2033;" horiz-adv-x="889" 
d="M260 1462h149l-100 -528h-149zM580 1462h149l-100 -528h-149z" />
    <glyph glyph-name="guilsinglleft" unicode="&#x2039;" horiz-adv-x="530" 
d="M102 479v180l312 246v-176l-205 -160l205 -159v-177z" />
    <glyph glyph-name="guilsinglright" unicode="&#x203a;" horiz-adv-x="530" 
d="M428 659v-180l-311 -246v177l205 159l-205 160v176z" />
    <glyph glyph-name="exclamdbl" unicode="&#x203c;" horiz-adv-x="1010" 
d="M362 1012l-51 -637h-92l-51 637v450h194v-450zM152 227h227v-227h-227v227zM842 1012l-51 -637h-92l-51 637v450h194v-450zM632 227h227v-227h-227v227z" />
    <glyph glyph-name="uni203E" unicode="&#x203e;" horiz-adv-x="1024" 
d="M1024 1555h-1024v102h1024v-102z" />
    <glyph glyph-name="uni2044" unicode="&#x2044;" horiz-adv-x="342" 
d="M551 1485h131l-891 -1542h-131z" />
    <glyph glyph-name="n.superior" unicode="&#x207f;" horiz-adv-x="758" 
d="M86 1454h135v-94q76 113 215 113q121 0 178.5 -68t57.5 -172v-420h-137v387q0 160 -142 160q-84 0 -128 -55.5t-44 -135.5v-356h-135v641z" />
    <glyph glyph-name="franc" unicode="&#x20a3;" 
d="M54 270v164h126v993h910v-164h-716v-439h652v-164h-652v-226h462v-164h-462v-270h-194v270h-126z" />
    <glyph glyph-name="lira" unicode="&#x20a4;" 
d="M46 524v92h244q-20 45 -59 114q-12 20 -22 40h-163v92h118q-45 99 -45 219q0 185 135.5 300.5t331.5 115.5q227 0 357 -132t126 -396h-174q-10 374 -299 374q-123 0 -208 -76.5t-85 -191.5q0 -106 53 -213h389v-92h-341q59 -114 73 -154h268v-92h-249v-8
q0 -100 -49.5 -187t-188.5 -198l4 -4q134 59 215 59q72 0 195 -30q117 -37 172 -37q82 0 182 76l88 -136q-108 -94 -299 -94q-65 0 -203 41q-129 43 -215 43q-101 0 -204 -72l-97 136q226 154 226 366q0 22 -4 45h-272z" />
    <glyph glyph-name="peseta" unicode="&#x20a7;" horiz-adv-x="2622" 
d="M160 1462h491q221 0 334.5 -113.5t113.5 -318.5t-113.5 -319.5t-334.5 -112.5h-297v-598h-194v1462zM354 762h231q320 0 320 268t-320 268h-231v-536zM1475 1059h196v-154h-196v-657q0 -60 22 -77t109 -17h65v-154h-118q-159 0 -205.5 52t-46.5 179v674h-146v154h146v317
h174v-317zM1928 334q7 -205 236 -205q212 0 212 158q0 81 -69 121t-231 77q-145 32 -222.5 99t-77.5 198q0 140 101 220.5t250 80.5q371 0 386 -331h-174q-5 89 -61 133.5t-136 44.5q-182 0 -182 -135q0 -110 194 -157q193 -47 257.5 -79.5t107 -93.5t42.5 -156
q0 -163 -111.5 -248.5t-293.5 -85.5q-181 0 -288.5 89.5t-114.5 269.5h175z" />
    <glyph glyph-name="dong" unicode="&#x20ab;" 
d="M499 1323h318v104h174v-104h146v-109h-146v-991h-174v143h-3q-71 -164 -294 -164q-204 0 -323 130.5t-119 334.5q0 209 117 339.5t321 130.5q91 0 173 -43t125 -122h3v242h-318v109zM545 356q132 0 205 85t73 222q0 146 -75 233.5t-214 87.5q-132 0 -202 -89t-70 -240
q0 -127 74.5 -213t208.5 -86zM911 109v-109h-733v109h733z" />
    <glyph glyph-name="Euro" unicode="&#x20ac;" 
d="M1049 1186q-146 141 -293 141q-141 0 -237 -110.5t-132 -294.5h580l-56 -125h-538l-2 -17v-69q0 -15 2 -21h510l-54 -125h-446q68 -440 389 -440q78 0 146 26t169 121v-215q-139 -90 -315 -90q-502 0 -588 598h-157l55 125h94q-2 6 -2 21v55q0 20 2 31h-149l53 125h110
q51 263 202 413t380 150q186 0 371 -129z" />
    <glyph glyph-name="afii61248" unicode="&#x2105;" horiz-adv-x="1708" 
d="M1229 1485h131l-891 -1542h-131zM551 1163q-8 172 -152 172q-90 0 -134 -72.5t-44 -263.5q0 -159 39 -246t139 -87q151 0 156 182h147q-28 -299 -305 -299q-325 0 -325 450q0 453 336 453q268 0 290 -289h-147zM977 426q0 453 332 453q327 0 327 -451q0 -453 -331 -453
q-154 0 -241 102.5t-87 348.5zM1487 428q0 336 -180 336q-102 0 -141.5 -88t-39.5 -250q0 -336 181 -336q101 0 140.5 88t39.5 250z" />
    <glyph glyph-name="afii61289" unicode="&#x2113;" horiz-adv-x="692" 
d="M195 672v415q0 231 69.5 305t175.5 74q100 0 164 -63t64 -176q0 -69 -18 -136t-57 -139.5t-115.5 -172.5t-90.5 -120v-393q0 -47 16.5 -89t57.5 -42q56 0 170 107v-185q-114 -88 -225 -88q-106 0 -158.5 60.5t-52.5 181.5v225l-80 -98l-99 98zM387 913q8 15 34 53
q93 139 93 216q0 59 -17.5 88.5t-52.5 29.5q-29 0 -43 -23.5t-14 -70.5v-293z" />
    <glyph glyph-name="afii61352" unicode="&#x2116;" horiz-adv-x="2048" 
d="M995 0l-649 1135h-4v-1135h-184v1427h207l655 -1146h4v1146h184v-1427h-213zM1937 561q0 -129 -79.5 -210t-221.5 -81q-141 0 -221 79t-80 222q0 129 80 210t221 81q142 0 221.5 -78.5t79.5 -222.5zM1636 750q-151 0 -151 -185q0 -182 151 -182q152 0 152 184
q0 183 -152 183zM1360 0v129h573v-129h-573z" />
    <glyph glyph-name="trademark" unicode="&#x2122;" horiz-adv-x="2028" 
d="M799 1350h-264v-732h-140v732h-264v112h668v-112zM1898 618h-139v705h-4l-276 -705h-88l-277 705h-4v-705h-139v844h215l252 -641l248 641h212v-844z" />
    <glyph glyph-name="uni2126" unicode="&#x2126;" horiz-adv-x="1554" 
d="M1489 0h-578v147q180 123 270.5 292t90.5 384q0 218 -134.5 364t-355.5 146q-224 0 -361.5 -145t-137.5 -385q0 -206 92 -370t276 -286v-147h-579v164h350v8q-167 115 -250.5 272.5t-83.5 356.5q0 300 197 498t497 198q303 0 493.5 -194t190.5 -482q0 -206 -84 -368
t-252 -281v-8h359v-164z" />
    <glyph glyph-name="estimated" unicode="&#x212e;" horiz-adv-x="1229" 
d="M1150 530h-828v-370q120 -121 296 -121q127 0 226 61.5t170 184.5l71 -43q-120 -174 -234.5 -225.5t-232.5 -51.5q-236 0 -382 161.5t-146 403.5q0 254 149 410t379 156q215 0 366.5 -141t165.5 -425zM917 604v295q-129 125 -301 123q-175 2 -294 -123v-295h595z" />
    <glyph glyph-name="oneeighth" unicode="&#x215b;" horiz-adv-x="1708" 
d="M490 562h-140v619h-235v102q121 0 189 36t83 109h103v-866zM1185 1485h131l-891 -1542h-131zM1335 -18q-147 0 -227 71.5t-80 194.5q0 155 159 219q-123 51 -123 179q0 99 72 168.5t203 69.5t201.5 -63.5t70.5 -174.5q0 -132 -125 -179q162 -53 162 -217
q0 -122 -84.5 -195t-228.5 -73zM1337 86q78 0 126 44t48 122q0 71 -48 117t-126 46q-76 0 -124 -46t-48 -117q0 -78 48 -122t124 -44zM1337 509q65 0 105 37t40 100q0 66 -41 99.5t-104 33.5q-66 0 -105 -35.5t-39 -97.5q0 -63 39 -100t105 -37z" />
    <glyph glyph-name="threeeighths" unicode="&#x215c;" horiz-adv-x="1708" 
d="M550 1028q180 -47 180 -208q0 -124 -91.5 -200t-229.5 -76q-148 0 -234 74.5t-86 215.5h136q6 -180 188 -180q82 0 131 41t49 119q0 77 -51 114t-121 37h-76v102h50q81 0 122 33.5t41 101.5q0 62 -39.5 97.5t-103.5 35.5q-157 0 -170 -182h-135q4 133 85 213t220 80
q125 0 203 -63.5t78 -172.5q0 -125 -146 -182zM1258 1485h131l-891 -1542h-131zM1325 -18q-147 0 -227 71.5t-80 194.5q0 155 159 219q-123 51 -123 179q0 99 72 168.5t203 69.5t201.5 -63.5t70.5 -174.5q0 -132 -125 -179q162 -53 162 -217q0 -122 -84.5 -195t-228.5 -73z
M1327 86q78 0 126 44t48 122q0 71 -48 117t-126 46q-76 0 -124 -46t-48 -117q0 -78 48 -122t124 -44zM1327 509q65 0 105 37t40 100q0 66 -41 99.5t-104 33.5q-66 0 -105 -35.5t-39 -97.5q0 -63 39 -100t105 -37z" />
    <glyph glyph-name="fiveeighths" unicode="&#x215d;" horiz-adv-x="1708" 
d="M207 1428h461v-112h-357l-49 -239q75 65 174 65q138 0 212.5 -77t74.5 -208q0 -130 -86.5 -221.5t-230.5 -91.5q-129 0 -215 64.5t-93 197.5h140q5 -76 47 -114t121 -38q89 0 133.5 50t44.5 151q0 78 -44 130t-136 52q-102 0 -156 -86h-133zM1257 1485h131l-891 -1542
h-131zM1325 -18q-147 0 -227 71.5t-80 194.5q0 155 159 219q-123 51 -123 179q0 99 72 168.5t203 69.5t201.5 -63.5t70.5 -174.5q0 -132 -125 -179q162 -53 162 -217q0 -122 -84.5 -195t-228.5 -73zM1327 86q78 0 126 44t48 122q0 71 -48 117t-126 46q-76 0 -124 -46
t-48 -117q0 -78 48 -122t124 -44zM1327 509q65 0 105 37t40 100q0 66 -41 99.5t-104 33.5q-66 0 -105 -35.5t-39 -97.5q0 -63 39 -100t105 -37z" />
    <glyph glyph-name="seveneighths" unicode="&#x215e;" horiz-adv-x="1708" 
d="M156 1428h590v-106q-148 -169 -229 -359t-95 -401h-151q15 202 98.5 389.5t235.5 360.5h-449v116zM1165 1485h131l-891 -1542h-131zM1295 -18q-147 0 -227 71.5t-80 194.5q0 155 159 219q-123 51 -123 179q0 99 72 168.5t203 69.5t201.5 -63.5t70.5 -174.5
q0 -132 -125 -179q162 -53 162 -217q0 -122 -84.5 -195t-228.5 -73zM1297 86q78 0 126 44t48 122q0 71 -48 117t-126 46q-76 0 -124 -46t-48 -117q0 -78 48 -122t124 -44zM1297 509q65 0 105 37t40 100q0 66 -41 99.5t-104 33.5q-66 0 -105 -35.5t-39 -97.5q0 -63 39 -100
t105 -37z" />
    <glyph glyph-name="arrowleft" unicode="&#x2190;" horiz-adv-x="2048" 
d="M603 157q-121 135 -209 205.5t-204 131.5v46q116 61 203 130.5t210 205.5h76q-46 -96 -77.5 -147.5t-88.5 -124.5h1344v-175h-1344q55 -69 88 -122.5t78 -149.5h-76z" />
    <glyph glyph-name="arrowup" unicode="&#x2191;" horiz-adv-x="1024" 
d="M153 1254q135 122 205.5 209.5t131.5 203.5h45q61 -116 130.5 -202.5t206.5 -210.5v-76q-97 46 -148.5 78t-123.5 88v-1344h-175v1344q-69 -54 -122.5 -87t-149.5 -79v76z" />
    <glyph glyph-name="arrowright" unicode="&#x2192;" horiz-adv-x="2048" 
d="M1444 876q122 -135 209.5 -205t203.5 -132v-45q-116 -61 -202.5 -130.5t-210.5 -206.5h-76q46 97 78 148.5t88 123.5h-1344v175h1344q-54 69 -87 122.5t-79 149.5h76z" />
    <glyph glyph-name="arrowdown" unicode="&#x2193;" horiz-adv-x="1024" 
d="M871 413q-135 -122 -205.5 -209.5t-131.5 -203.5h-45q-61 116 -131 202.5t-206 210.5v76q97 -46 148.5 -78t123.5 -88v1344h175v-1344q69 54 122.5 87t149.5 79v-76z" />
    <glyph glyph-name="arrowboth" unicode="&#x2194;" horiz-adv-x="2048" 
d="M513 604h1021q-54 68 -87 122t-79 150h76q122 -135 209.5 -205t203.5 -132v-45q-116 -61 -202.5 -130.5t-210.5 -206.5h-76q46 97 77.5 148t88.5 124h-1021q55 -69 88 -122.5t78 -149.5h-76q-121 135 -209 205.5t-204 131.5v46q116 61 203 130.5t210 205.5h76
q-46 -96 -77.5 -147.5t-88.5 -124.5z" />
    <glyph glyph-name="arrowupdn" unicode="&#x2195;" horiz-adv-x="1024" 
d="M600 1343v-1020q68 54 122 87.5t150 79.5v-77q-135 -121 -205.5 -208.5t-131.5 -204.5h-45q-61 116 -131 203t-206 210v77q96 -47 147.5 -78t124.5 -89v1020q-69 -54 -122.5 -87t-149.5 -79v76q135 122 205.5 209.5t131.5 204.5h45q61 -117 130.5 -203.5t206.5 -210.5
v-76q-97 46 -148.5 78t-123.5 88z" />
    <glyph glyph-name="arrowupdnbse" unicode="&#x21a8;" horiz-adv-x="1024" 
d="M600 1343v-1020q67 54 121 87.5t151 79.5v-77q-136 -121 -206.5 -208.5t-130.5 -204.5h-45q-62 116 -132 203t-205 210v77q95 -47 146.5 -78t125.5 -89v1020q-70 -54 -123.5 -87t-148.5 -79v76q134 122 204.5 209.5t132.5 204.5h45q60 -117 129.5 -203.5t207.5 -210.5
v-76q-98 46 -149.5 78t-122.5 88zM153 -73h719v-175h-719v175z" />
    <glyph glyph-name="partialdiff" unicode="&#x2202;" horiz-adv-x="1047" 
d="M805 719q0 184 -14 269t-61.5 176t-116.5 137.5t-160 46.5q-55 0 -113.5 -24.5t-120.5 -72.5l-86 103q71 61 149 92t164 31q248 0 381.5 -202t133.5 -534q0 -368 -121 -567t-355 -199q-180 0 -298.5 131t-118.5 330q0 191 113 314.5t294 123.5q97 0 179.5 -39t150.5 -116
zM797 573q-69 87 -144.5 131t-158.5 44q-125 0 -200 -91t-75 -227q0 -139 75 -235.5t195 -96.5q146 0 227 148.5t81 326.5z" />
    <glyph glyph-name="uni2206" unicode="&#x2206;" horiz-adv-x="1327" 
d="M-8 0l565 1462h215l565 -1462h-1345zM254 164h807l-395 1124h-4z" />
    <glyph glyph-name="product" unicode="&#x220f;" horiz-adv-x="1473" 
d="M1171 -381v1900h-872v-1900h-160v2048h1192v-2048h-160z" />
    <glyph glyph-name="summation" unicode="&#x2211;" horiz-adv-x="1260" 
d="M51 -381v131l660 901l-631 885v131h1102v-148h-895l616 -868l-653 -885h956v-147h-1155z" />
    <glyph glyph-name="minus" unicode="&#x2212;" horiz-adv-x="1229" 
d="M1130 448h-1032v140h1032v-140z" />
    <glyph glyph-name="fraction" unicode="&#x2215;" horiz-adv-x="342" 
d="M551 1485h131l-891 -1542h-131z" />
    <glyph glyph-name="periodcentered" unicode="&#x2219;" horiz-adv-x="569" 
d="M285 768q53 0 92 -39t39 -92q0 -49 -39 -90t-90 -41q-54 0 -93.5 39t-39.5 92t38.5 92t92.5 39z" />
    <glyph glyph-name="radical" unicode="&#x221a;" horiz-adv-x="1032" 
d="M621 -381h-154l-332 684l-96 -45l-57 123l229 106l309 -649l377 1829h156z" />
    <glyph glyph-name="infinity" unicode="&#x221e;" horiz-adv-x="1554" 
d="M778 424q-161 -152 -237.5 -186.5t-153.5 -34.5q-135 0 -218 88.5t-83 224.5q0 138 83 229t214 91q84 0 167.5 -43t227.5 -191q152 158 230.5 198t156.5 40q134 0 218.5 -90.5t84.5 -227.5q0 -139 -81.5 -230t-219.5 -91q-91 0 -188.5 55.5t-200.5 167.5zM690 514
q-96 92 -172.5 138t-134.5 46q-78 0 -121 -55t-43 -127q0 -78 45 -127t125 -49q63 0 138.5 43.5t162.5 130.5zM866 514q88 -87 165 -130.5t143 -43.5q77 0 119 51t42 125q0 78 -43 131t-125 53q-53 0 -114.5 -33.5t-186.5 -152.5z" />
    <glyph glyph-name="orthogonal" unicode="&#x221f;" horiz-adv-x="2048" 
d="M123 0v1667h135v-1532h1667v-135h-1802z" />
    <glyph glyph-name="intersection" unicode="&#x2229;" horiz-adv-x="1473" 
d="M1315 0h-146v596q0 238 -11 335.5t-63 190t-142.5 143t-217.5 50.5q-142 0 -235 -60.5t-138.5 -164.5t-51 -208.5t-5.5 -285.5v-596h-147v588q0 256 10 348t50 187.5t115 173.5t179 120.5t225 42.5q137 0 245.5 -49t182.5 -137t109 -196.5t38 -208.5t3 -281v-588z" />
    <glyph glyph-name="integral" unicode="&#x222b;" horiz-adv-x="1135" 
d="M600 1273v-1127q0 -211 -20 -307.5t-78.5 -157.5t-159.5 -61q-58 0 -99.5 29t-41.5 77q0 29 23.5 51.5t51.5 22.5q37 0 67 -43t40 -43q31 0 44 59t13 250v1098q0 330 70.5 437.5t189.5 107.5q66 0 114 -30t48 -85q0 -37 -25.5 -57.5t-60.5 -20.5q-38 0 -69 45
q-32 43 -46 43q-33 0 -47 -50t-14 -238z" />
    <glyph glyph-name="approxequal" unicode="&#x2248;" horiz-adv-x="1214" 
d="M172 539h-104q16 141 85 222t179 81q95 0 287 -73q191 -73 274 -73q59 0 97.5 38.5t56.5 115.5h102q-16 -147 -87.5 -223t-178.5 -76q-98 0 -293 73q-195 72 -262 72q-61 0 -100 -39.5t-56 -117.5zM172 170h-106q24 151 90 227t174 76q93 0 287 -72q193 -73 274 -73
q59 0 97.5 37.5t55.5 113.5h103q-18 -149 -84 -223t-180 -74q-95 0 -293 73q-204 75 -264 75q-62 0 -100.5 -40t-53.5 -120z" />
    <glyph glyph-name="notequal" unicode="&#x2260;" horiz-adv-x="1214" 
d="M539 233l-156 -299l-127 66l121 233h-289v148h365l137 260h-502v145h580l157 304l127 -66l-125 -238h299v-145h-374l-138 -260h512v-148h-587z" />
    <glyph glyph-name="equivalence" unicode="&#x2261;" horiz-adv-x="1163" 
d="M1063 987h-965v146h965v-146zM1063 583h-965v146h965v-146zM1063 178h-965v146h965v-146z" />
    <glyph glyph-name="lessequal" unicode="&#x2264;" horiz-adv-x="1214" 
d="M88 545v153l1038 383v-159l-835 -299l835 -297v-158zM88 -61v147h1038v-147h-1038z" />
    <glyph glyph-name="greaterequal" unicode="&#x2265;" horiz-adv-x="1214" 
d="M88 168v158l836 297l-836 299v159l1038 -383v-153zM88 -61v147h1038v-147h-1038z" />
    <glyph glyph-name="house" unicode="&#x2302;" horiz-adv-x="1229" 
d="M153 0v634l461 519l462 -519v-634h-923zM234 81h761v519l-381 427l-380 -427v-519z" />
    <glyph glyph-name="revlogicalnot" unicode="&#x2310;" horiz-adv-x="1118" 
d="M324 436h-230v463h930v-129h-700v-334z" />
    <glyph glyph-name="integraltp" unicode="&#x2320;" horiz-adv-x="1237" 
d="M547 -381v1607q0 222 89 331.5t202 109.5q68 0 103.5 -33.5t35.5 -75.5q0 -37 -25.5 -64.5t-62.5 -27.5q-29 0 -52 11.5t-49 49.5q-21 37 -45 37q-30 0 -41.5 -26.5t-11.5 -151.5v-1767h-143z" />
    <glyph glyph-name="integralbt" unicode="&#x2321;" horiz-adv-x="1237" 
d="M690 59q0 -217 -87 -328.5t-204 -111.5q-69 0 -104 32.5t-35 75.5q0 39 26.5 66t61.5 27q30 0 52.5 -12.5t48.5 -51.5q22 -35 45 -35q30 0 41.5 26.5t11.5 152.5v1767h143v-1608z" />
    <glyph glyph-name="SF100000" unicode="&#x2500;" horiz-adv-x="1451" 
d="M0 552v181h1452v-181h-1452z" />
    <glyph glyph-name="SF110000" unicode="&#x2502;" horiz-adv-x="1451" 
d="M635 -381v2048h181v-2048h-181z" />
    <glyph glyph-name="SF010000" unicode="&#x250c;" horiz-adv-x="1451" 
d="M635 -381v1114h817v-181h-636v-933h-181z" />
    <glyph glyph-name="SF030000" unicode="&#x2510;" horiz-adv-x="1451" 
d="M635 -381v933h-635v181h816v-1114h-181z" />
    <glyph glyph-name="SF020000" unicode="&#x2514;" horiz-adv-x="1451" 
d="M635 552v1115h181v-934h636v-181h-817z" />
    <glyph glyph-name="SF040000" unicode="&#x2518;" horiz-adv-x="1451" 
d="M0 552v181h635v934h181v-1115h-816z" />
    <glyph glyph-name="SF080000" unicode="&#x251c;" horiz-adv-x="1451" 
d="M635 -381v2048h181v-934h636v-181h-636v-933h-181z" />
    <glyph glyph-name="SF090000" unicode="&#x2524;" horiz-adv-x="1451" 
d="M635 -381v933h-635v181h635v934h181v-2048h-181z" />
    <glyph glyph-name="SF060000" unicode="&#x252c;" horiz-adv-x="1451" 
d="M635 -381v933h-635v181h1452v-181h-636v-933h-181z" />
    <glyph glyph-name="SF070000" unicode="&#x2534;" horiz-adv-x="1451" 
d="M0 552v181h635v934h181v-934h636v-181h-1452z" />
    <glyph glyph-name="SF050000" unicode="&#x253c;" horiz-adv-x="1451" 
d="M635 -381v933h-635v181h635v934h181v-934h636v-181h-636v-933h-181z" />
    <glyph glyph-name="SF430000" unicode="&#x2550;" horiz-adv-x="1451" 
d="M0 552h1452v-181h-1452v181zM0 733v181h1452v-181h-1452z" />
    <glyph glyph-name="SF240000" unicode="&#x2551;" horiz-adv-x="1451" 
d="M635 -381h-181v2048h181v-2048zM816 1667h181v-2048h-181v2048z" />
    <glyph glyph-name="SF510000" unicode="&#x2552;" horiz-adv-x="1451" 
d="M635 -381v1295h817v-181h-636v-181h636v-181h-636v-752h-181z" />
    <glyph glyph-name="SF520000" unicode="&#x2553;" horiz-adv-x="1451" 
d="M635 -381h-181v1114h998v-181h-455v-933h-181v933h-181v-933z" />
    </font>
</defs>
</svg>
